<svg width="24" height="24" viewBox="0 0 24 24" fill="none" xmlns="http://www.w3.org/2000/svg">
<path fill-rule="evenodd" clip-rule="evenodd" d="M7.66112 8.03539C7.96723 7.94278 8.29928 8.03535 8.51333 8.27295C8.72739 8.51056 8.78491 8.85044 8.66096 9.14525C7.87105 10.9198 8.25625 12.9976 9.62976 14.3711C11.0033 15.7445 13.0811 16.1297 14.8556 15.3397C15.1504 15.2158 15.4903 15.2733 15.7279 15.4873C15.9655 15.7014 16.0581 16.0334 15.9655 16.3395C15.0303 19.3528 12.1028 21.2909 8.96363 20.975C5.82447 20.6591 3.34182 18.1765 3.02583 15.0373C2.70984 11.8982 4.6479 8.9706 7.66112 8.03539Z" stroke="#FF8800" stroke-linecap="round" stroke-linejoin="round"/>
<path fill-rule="evenodd" clip-rule="evenodd" d="M17.9549 7.8269C18.0637 7.62439 18.275 7.49805 18.5048 7.49805C18.7347 7.49805 18.9459 7.62439 19.0547 7.8269L19.5397 8.71445C19.5971 8.81996 19.6838 8.90665 19.7893 8.96411L20.6769 9.44908C20.8794 9.55784 21.0057 9.7691 21.0057 9.99896C21.0057 10.2288 20.8794 10.4401 20.6769 10.5488L19.7893 11.0338C19.6838 11.0913 19.5971 11.178 19.5397 11.2835L19.0547 12.171C18.9459 12.3735 18.7347 12.4999 18.5048 12.4999C18.275 12.4999 18.0637 12.3735 17.9549 12.171L17.47 11.2835C17.4125 11.178 17.3258 11.0913 17.2203 11.0338L16.3328 10.5488C16.1302 10.4401 16.0039 10.2288 16.0039 9.99896C16.0039 9.7691 16.1302 9.55784 16.3328 9.44908L17.2203 8.96411C17.3258 8.90665 17.4125 8.81996 17.47 8.71445L17.9549 7.8269Z" stroke="#FF8800" stroke-linecap="round" stroke-linejoin="round"/>
<path fill-rule="evenodd" clip-rule="evenodd" d="M12.5608 3.25918C12.6478 3.09717 12.8169 2.99609 13.0007 2.99609C13.1846 2.99609 13.3536 3.09717 13.4406 3.25918L13.8286 3.96923C13.8746 4.05364 13.9439 4.12299 14.0284 4.16895L14.7384 4.55693C14.9004 4.64393 15.0015 4.81294 15.0015 4.99684C15.0015 5.18073 14.9004 5.34974 14.7384 5.43674L14.0284 5.82472C13.9439 5.87069 13.8746 5.94004 13.8286 6.02445L13.4406 6.73449C13.3536 6.8965 13.1846 6.99758 13.0007 6.99758C12.8169 6.99758 12.6478 6.8965 12.5608 6.73449L12.1729 6.02445C12.1269 5.94004 12.0575 5.87069 11.9731 5.82472L11.2631 5.43674C11.1011 5.34974 11 5.18073 11 4.99684C11 4.81294 11.1011 4.64393 11.2631 4.55693L11.9731 4.16895C12.0575 4.12299 12.1269 4.05364 12.1729 3.96923L12.5608 3.25918Z" stroke="#FF8800" stroke-linecap="round" stroke-linejoin="round"/>
</svg>
