<svg width="36" height="36" viewBox="0 0 36 36" fill="none" xmlns="http://www.w3.org/2000/svg">
<path d="M17.9965 24.4194C17.6755 24.4194 17.4129 24.682 17.4164 25.003C17.4164 25.324 17.679 25.5866 18 25.5866C18.321 25.5866 18.5836 25.324 18.5836 25.003C18.5836 24.682 18.321 24.4194 17.9965 24.4194" stroke="#F2F2F2" stroke-width="1.5" stroke-linecap="round" stroke-linejoin="round"/>
<path d="M17.9965 17.4165C17.6755 17.4165 17.4129 17.6791 17.4164 18.0001C17.4164 18.321 17.679 18.5837 18 18.5837C18.321 18.5837 18.5836 18.321 18.5836 18.0001C18.5836 17.6791 18.321 17.4165 17.9965 17.4165" stroke="#F2F2F2" stroke-width="1.5" stroke-linecap="round" stroke-linejoin="round"/>
<path d="M17.9965 10.4136C17.6755 10.4136 17.4129 10.6762 17.4164 10.9972C17.4164 11.3181 17.679 11.5807 18 11.5807C18.321 11.5807 18.5836 11.3181 18.5836 10.9972C18.5836 10.6762 18.321 10.4136 17.9965 10.4136" stroke="#F2F2F2" stroke-width="1.5" stroke-linecap="round" stroke-linejoin="round"/>
</svg>
