<?xml version="1.0" encoding="utf-8"?>
<!-- Generator: Adobe Illustrator 28.0.0, SVG Export Plug-In . SVG Version: 6.00 Build 0)  -->
<svg version="1.1" id="Layer_1" xmlns="http://www.w3.org/2000/svg" xmlns:xlink="http://www.w3.org/1999/xlink" x="0px" y="0px"
	 viewBox="0 0 124 124" style="enable-background:new 0 0 124 124;" xml:space="preserve">
<style type="text/css">
	.st0{fill:#FF8800;}
	.st1{fill:#FFFFFF;}
	.st2{fill:url(#SVGID_1_);stroke:url(#SVGID_00000074406641475016084230000004843078173112339619_);stroke-miterlimit:10;}
	.st3{fill:#F37A20;}
</style>
<g>
	<path class="st0" d="M65.3,54.3c1.2,0.7,2.2,1.6,2.9,2.8c0.7,1.2,1,2.6,1,4.1c0,1.5-0.3,2.9-1,4.1c-0.7,1.2-1.6,2.1-2.9,2.8
		s-2.7,1-4.3,1h-6.2V53.3H61C62.6,53.3,64.1,53.6,65.3,54.3z M63.7,64.2c0.7-0.7,1.1-1.7,1.1-3c0-1.3-0.4-2.3-1.1-3
		c-0.7-0.7-1.7-1.1-3-1.1h-1.5v8.1h1.5C61.9,65.2,62.9,64.9,63.7,64.2z"/>
	<path class="st0" d="M85.8,69.1h-4.4l-5.8-8.8v8.8h-4.4V53.3h4.4l5.8,8.9v-8.9h4.4L85.8,69.1L85.8,69.1z"/>
	<path class="st0" d="M88.8,57c0.7-1.2,1.6-2.2,2.8-2.8c1.2-0.7,2.6-1,4.1-1c2,0,3.6,0.5,5,1.6c1.3,1,2.2,2.5,2.6,4.3h-4.7
		c-0.3-0.6-0.7-1-1.2-1.3s-1.1-0.5-1.7-0.5c-1,0-1.8,0.4-2.4,1.1c-0.6,0.7-0.9,1.7-0.9,2.9s0.3,2.2,0.9,2.9c0.6,0.7,1.4,1.1,2.4,1.1
		c0.7,0,1.2-0.2,1.7-0.5s0.9-0.8,1.2-1.3h4.7c-0.4,1.8-1.3,3.2-2.6,4.3c-1.3,1.1-3,1.6-5,1.6c-1.6,0-2.9-0.3-4.1-1
		c-1.2-0.7-2.1-1.6-2.8-2.8c-0.7-1.2-1-2.6-1-4.2C87.8,59.6,88.1,58.2,88.8,57z"/>
	<path class="st0" d="M114.7,69.1l-4.9-6.9v6.9h-4.4V53.3h4.4v6.8l4.9-6.8h5.1l-5.8,7.7l6.1,8.1L114.7,69.1L114.7,69.1z"/>
</g>
<g>
	<path class="st1" d="M39.3,55.3L39.3,55.3c-1.3-1.2-1-4-0.6-5.9c0.2-0.9-0.6-1.5-1.3-1.3c-4.6,2.7-11,12.8-13.3,16.9
		c-0.1,0.2-0.3,0.3-0.5,0.3c-0.1,0-0.2,0-0.3-0.1C23,65,22.9,64.7,23,64.4c0,0,2.5-4.3,5.5-8.6c1.3-1.8,2.5-3.3,3.6-4.6l-7.5-4.3
		c0,0-0.1,0-0.1-0.1l0,0c-1.3-1.2-1.8-4.8-1.4-6.7c0.2-1-0.9-1.7-1.8-1.1c-8.4,6.3-14,16.5-14,16.5l0,0c-0.1,0.2-0.2,0.5-0.2,0.8
		v0.2v0.7v16c0,0.8,0.4,1.6,1.1,1.9l12.8,7.3l0,0l1,0.6c0.8,0.5,1.8,0.5,2.6,0l1-0.6c0.1,0,0.2-0.1,0.2-0.1l13.1-7.8
		c0.5-0.3,0.8-0.8,0.8-1.4V59v-0.9v-1.4C39.9,56.2,39.7,55.6,39.3,55.3z"/>
	
		<radialGradient id="SVGID_1_" cx="15.01" cy="-6.2606" r="11.1191" gradientTransform="matrix(1 0 0 1 0 76)" gradientUnits="userSpaceOnUse">
		<stop  offset="0" style="stop-color:#14151D"/>
		<stop  offset="0.5985" style="stop-color:#13131B"/>
		<stop  offset="1" style="stop-color:#0E0E12"/>
	</radialGradient>
	
		<radialGradient id="SVGID_00000122699353678053036490000008455002294293589677_" cx="15.01" cy="-6.2606" r="9.2929" gradientTransform="matrix(1 0 0 1 0 76)" gradientUnits="userSpaceOnUse">
		<stop  offset="0" style="stop-color:#14151D"/>
		<stop  offset="0.5985" style="stop-color:#13131B"/>
		<stop  offset="1" style="stop-color:#0E0E12"/>
	</radialGradient>
	
		<path style="fill:url(#SVGID_1_);stroke:url(#SVGID_00000122699353678053036490000008455002294293589677_);stroke-miterlimit:10;" d="
		M20.8,80.4c0.3,0.1,0.6-0.1,0.6-0.4v-0.9V67c0-0.6-0.3-1.1-0.8-1.3L9.4,59.1c-0.3-0.2-0.7,0-0.7,0.4v13c0,0.6,0.3,1.2,0.9,1.5
		L20,80L20.8,80.4z"/>
	<g>
		
			<image style="overflow:visible;opacity:0.97;enable-background:new    ;" width="110" height="155" xlink:href="2F793BA3B253FD57.png"  transform="matrix(8.260000e-02 0 0 8.260000e-02 7.5078 62.1594)">
		</image>
		<g>
			<g>
				<g>
					
						<ellipse transform="matrix(0.8198 -0.5727 0.5727 0.8198 -38.5916 20.4723)" class="st3" cx="13.2" cy="71.6" rx="0.1" ry="0.2"/>
					
						<ellipse transform="matrix(0.8198 -0.5727 0.5727 0.8198 -38.5533 20.2964)" class="st3" cx="13" cy="71.4" rx="0.1" ry="0.2"/>
					
						<ellipse transform="matrix(0.8198 -0.5727 0.5727 0.8198 -38.5167 20.1279)" class="st3" cx="12.7" cy="71.3" rx="0.1" ry="0.2"/>
					
						<ellipse transform="matrix(0.8198 -0.5727 0.5727 0.8198 -38.4784 19.9521)" class="st3" cx="12.5" cy="71.1" rx="0.1" ry="0.2"/>
					<ellipse transform="matrix(0.8198 -0.5727 0.5727 0.8198 -38.44 19.7762)" class="st3" cx="12.2" cy="71" rx="0.1" ry="0.2"/>
					
						<ellipse transform="matrix(0.8198 -0.5727 0.5727 0.8198 -38.4017 19.6004)" class="st3" cx="11.9" cy="70.8" rx="0.1" ry="0.2"/>
					
						<ellipse transform="matrix(0.8198 -0.5727 0.5727 0.8198 -38.3633 19.4246)" class="st3" cx="11.7" cy="70.7" rx="0.1" ry="0.2"/>
					
						<ellipse transform="matrix(0.8198 -0.5727 0.5727 0.8198 -38.3267 19.2561)" class="st3" cx="11.4" cy="70.5" rx="0.1" ry="0.2"/>
					
						<ellipse transform="matrix(0.8198 -0.5727 0.5727 0.8198 -38.2884 19.0802)" class="st3" cx="11.2" cy="70.4" rx="0.1" ry="0.2"/>
					
						<ellipse transform="matrix(0.8198 -0.5727 0.5727 0.8198 -38.2501 18.9044)" class="st3" cx="10.9" cy="70.2" rx="0.1" ry="0.2"/>
				</g>
				<g>
					
						<ellipse transform="matrix(0.8198 -0.5727 0.5727 0.8198 -38.4384 20.4228)" class="st3" cx="13.2" cy="71.3" rx="0.1" ry="0.2"/>
					
						<ellipse transform="matrix(0.8198 -0.5727 0.5727 0.8198 -38.4037 20.2517)" class="st3" cx="13" cy="71.1" rx="0.1" ry="0.2"/>
					
						<ellipse transform="matrix(0.8198 -0.5727 0.5727 0.8198 -38.3654 20.0759)" class="st3" cx="12.7" cy="71" rx="0.1" ry="0.2"/>
					
						<ellipse transform="matrix(0.8198 -0.5727 0.5727 0.8198 -38.3223 19.9037)" class="st3" cx="12.5" cy="70.8" rx="0.1" ry="0.2"/>
					
						<ellipse transform="matrix(0.8198 -0.5727 0.5727 0.8198 -38.2905 19.7315)" class="st3" cx="12.2" cy="70.7" rx="0.1" ry="0.2"/>
					
						<ellipse transform="matrix(0.8198 -0.5727 0.5727 0.8198 -38.2521 19.5557)" class="st3" cx="11.9" cy="70.6" rx="0.1" ry="0.2"/>
					
						<ellipse transform="matrix(0.8198 -0.5727 0.5727 0.8198 -38.209 19.3835)" class="st3" cx="11.7" cy="70.4" rx="0.1" ry="0.2"/>
					
						<ellipse transform="matrix(0.8198 -0.5727 0.5727 0.8198 -38.1707 19.2077)" class="st3" cx="11.4" cy="70.2" rx="0.1" ry="0.2"/>
					
						<ellipse transform="matrix(0.8198 -0.5727 0.5727 0.8198 -38.1323 19.0318)" class="st3" cx="11.2" cy="70.1" rx="0.1" ry="0.2"/>
					
						<ellipse transform="matrix(0.8198 -0.5727 0.5727 0.8198 -38.0957 18.8633)" class="st3" cx="10.9" cy="70" rx="0.1" ry="0.2"/>
				</g>
				<g>
					<g>
						
							<ellipse transform="matrix(0.8198 -0.5727 0.5727 0.8198 -38.2824 20.3744)" class="st3" cx="13.2" cy="71" rx="0.1" ry="0.2"/>
						
							<ellipse transform="matrix(0.8198 -0.5727 0.5727 0.8198 -38.244 20.1986)" class="st3" cx="13" cy="70.9" rx="0.1" ry="0.2"/>
						
							<ellipse transform="matrix(0.8198 -0.5727 0.5727 0.8198 -38.2074 20.0301)" class="st3" cx="12.7" cy="70.7" rx="0.1" ry="0.2"/>
						
							<ellipse transform="matrix(0.8198 -0.5727 0.5727 0.8198 -38.1691 19.8543)" class="st3" cx="12.5" cy="70.6" rx="0.1" ry="0.2"/>
						
							<ellipse transform="matrix(0.8198 -0.5727 0.5727 0.8198 -38.1307 19.6784)" class="st3" cx="12.2" cy="70.4" rx="0.1" ry="0.2"/>
						
							<ellipse transform="matrix(0.8198 -0.5727 0.5727 0.8198 -38.0924 19.5026)" class="st3" cx="11.9" cy="70.3" rx="0.1" ry="0.2"/>
						
							<ellipse transform="matrix(0.8198 -0.5727 0.5727 0.8198 -38.0558 19.3341)" class="st3" cx="11.7" cy="70.1" rx="0.1" ry="0.2"/>
						
							<ellipse transform="matrix(0.8198 -0.5727 0.5727 0.8198 -38.0175 19.1582)" class="st3" cx="11.4" cy="70" rx="0.1" ry="0.2"/>
						
							<ellipse transform="matrix(0.8198 -0.5727 0.5727 0.8198 -37.9791 18.9824)" class="st3" cx="11.2" cy="69.8" rx="0.1" ry="0.2"/>
						
							<ellipse transform="matrix(0.8198 -0.5727 0.5727 0.8198 -37.9408 18.8066)" class="st3" cx="10.9" cy="69.7" rx="0.1" ry="0.2"/>
					</g>
					<g>
						
							<ellipse transform="matrix(0.8198 -0.5727 0.5727 0.8198 -38.1328 20.3298)" class="st3" cx="13.2" cy="70.8" rx="0.1" ry="0.2"/>
						
							<ellipse transform="matrix(0.8198 -0.5727 0.5727 0.8198 -38.0944 20.1539)" class="st3" cx="13" cy="70.6" rx="0.1" ry="0.2"/>
						
							<ellipse transform="matrix(0.8198 -0.5727 0.5727 0.8198 -38.0561 19.9781)" class="st3" cx="12.7" cy="70.5" rx="0.1" ry="0.2"/>
						
							<ellipse transform="matrix(0.8198 -0.5727 0.5727 0.8198 -38.013 19.8059)" class="st3" cx="12.5" cy="70.3" rx="0.1" ry="0.2"/>
						
							<ellipse transform="matrix(0.8198 -0.5727 0.5727 0.8198 -37.9812 19.6337)" class="st3" cx="12.2" cy="70.2" rx="0.1" ry="0.2"/>
						
							<ellipse transform="matrix(0.8198 -0.5727 0.5727 0.8198 -37.9428 19.4579)" class="st3" cx="11.9" cy="70" rx="0.1" ry="0.2"/>
						
							<ellipse transform="matrix(0.8198 -0.5727 0.5727 0.8198 -37.8998 19.2857)" class="st3" cx="11.7" cy="69.9" rx="0.1" ry="0.2"/>
						
							<ellipse transform="matrix(0.8198 -0.5727 0.5727 0.8198 -37.8614 19.1099)" class="st3" cx="11.4" cy="69.7" rx="0.1" ry="0.2"/>
						
							<ellipse transform="matrix(0.8198 -0.5727 0.5727 0.8198 -37.8295 18.9378)" class="st3" cx="11.2" cy="69.6" rx="0.1" ry="0.2"/>
						
							<ellipse transform="matrix(0.8198 -0.5727 0.5727 0.8198 -37.7864 18.7655)" class="st3" cx="10.9" cy="69.4" rx="0.1" ry="0.2"/>
					</g>
				</g>
				<g>
					
						<ellipse transform="matrix(0.8198 -0.5727 0.5727 0.8198 -37.9662 20.277)" class="st3" cx="13.2" cy="70.5" rx="0.1" ry="0.2"/>
					
						<ellipse transform="matrix(0.8198 -0.5727 0.5727 0.8198 -37.9279 20.1011)" class="st3" cx="13" cy="70.3" rx="0.1" ry="0.2"/>
					
						<ellipse transform="matrix(0.8198 -0.5727 0.5727 0.8198 -37.8876 19.9279)" class="st3" cx="12.7" cy="70.2" rx="0.1" ry="0.2"/>
					
						<ellipse transform="matrix(0.8198 -0.5727 0.5727 0.8198 -37.8529 19.7568)" class="st3" cx="12.5" cy="70" rx="0.1" ry="0.2"/>
					
						<ellipse transform="matrix(0.8198 -0.5727 0.5727 0.8198 -37.8145 19.5809)" class="st3" cx="12.2" cy="69.9" rx="0.1" ry="0.2"/>
					
						<ellipse transform="matrix(0.8198 -0.5727 0.5727 0.8198 -37.7762 19.4051)" class="st3" cx="11.9" cy="69.7" rx="0.1" ry="0.2"/>
					
						<ellipse transform="matrix(0.8198 -0.5727 0.5727 0.8198 -37.7396 19.2366)" class="st3" cx="11.7" cy="69.6" rx="0.1" ry="0.2"/>
					
						<ellipse transform="matrix(0.8198 -0.5727 0.5727 0.8198 -37.7013 19.0608)" class="st3" cx="11.4" cy="69.4" rx="0.1" ry="0.2"/>
					
						<ellipse transform="matrix(0.8198 -0.5727 0.5727 0.8198 -37.6629 18.8849)" class="st3" cx="11.2" cy="69.3" rx="0.1" ry="0.2"/>
					
						<ellipse transform="matrix(0.8198 -0.5727 0.5727 0.8198 -37.6246 18.7091)" class="st3" cx="10.9" cy="69.1" rx="0.1" ry="0.2"/>
				</g>
				<g>
					
						<ellipse transform="matrix(0.8198 -0.5727 0.5727 0.8198 -37.8129 20.2276)" class="st3" cx="13.2" cy="70.2" rx="0.1" ry="0.2"/>
					<ellipse transform="matrix(0.8198 -0.5727 0.5727 0.8198 -37.7746 20.0517)" class="st3" cx="13" cy="70" rx="0.1" ry="0.2"/>
					
						<ellipse transform="matrix(0.8198 -0.5727 0.5727 0.8198 -37.7363 19.8758)" class="st3" cx="12.7" cy="69.9" rx="0.1" ry="0.2"/>
					
						<ellipse transform="matrix(0.8198 -0.5727 0.5727 0.8198 -37.6997 19.7074)" class="st3" cx="12.5" cy="69.8" rx="0.1" ry="0.2"/>
					
						<ellipse transform="matrix(0.8198 -0.5727 0.5727 0.8198 -37.6613 19.5316)" class="st3" cx="12.2" cy="69.6" rx="0.1" ry="0.2"/>
					
						<ellipse transform="matrix(0.8198 -0.5727 0.5727 0.8198 -37.623 19.3557)" class="st3" cx="11.9" cy="69.5" rx="0.1" ry="0.2"/>
					
						<ellipse transform="matrix(0.8198 -0.5727 0.5727 0.8198 -37.5799 19.1835)" class="st3" cx="11.7" cy="69.3" rx="0.1" ry="0.2"/>
					
						<ellipse transform="matrix(0.8198 -0.5727 0.5727 0.8198 -37.5416 19.0076)" class="st3" cx="11.4" cy="69.2" rx="0.1" ry="0.2"/>
					
						<ellipse transform="matrix(0.8198 -0.5727 0.5727 0.8198 -37.5097 18.8355)" class="st3" cx="11.2" cy="69" rx="0.1" ry="0.2"/>
					
						<ellipse transform="matrix(0.8198 -0.5727 0.5727 0.8198 -37.4666 18.6633)" class="st3" cx="10.9" cy="68.9" rx="0.1" ry="0.2"/>
				</g>
				<g>
					<g>
						
							<ellipse transform="matrix(0.8198 -0.5727 0.5727 0.8198 -37.6569 20.1792)" class="st3" cx="13.2" cy="69.9" rx="0.1" ry="0.2"/>
						<ellipse transform="matrix(0.8198 -0.5727 0.5727 0.8198 -37.625 20.007)" class="st3" cx="13" cy="69.8" rx="0.1" ry="0.2"/>
						
							<ellipse transform="matrix(0.8198 -0.5727 0.5727 0.8198 -37.5819 19.8349)" class="st3" cx="12.7" cy="69.6" rx="0.1" ry="0.2"/>
						
							<ellipse transform="matrix(0.8198 -0.5727 0.5727 0.8198 -37.5436 19.659)" class="st3" cx="12.5" cy="69.5" rx="0.1" ry="0.2"/>
						
							<ellipse transform="matrix(0.8198 -0.5727 0.5727 0.8198 -37.5053 19.4831)" class="st3" cx="12.2" cy="69.3" rx="0.1" ry="0.2"/>
						
							<ellipse transform="matrix(0.8198 -0.5727 0.5727 0.8198 -37.4687 19.3147)" class="st3" cx="12" cy="69.2" rx="0.1" ry="0.2"/>
						
							<ellipse transform="matrix(0.8198 -0.5727 0.5727 0.8198 -37.4303 19.1388)" class="st3" cx="11.7" cy="69" rx="0.1" ry="0.2"/>
						
							<ellipse transform="matrix(0.8198 -0.5727 0.5727 0.8198 -37.392 18.963)" class="st3" cx="11.4" cy="68.9" rx="0.1" ry="0.2"/>
						
							<ellipse transform="matrix(0.8198 -0.5727 0.5727 0.8198 -37.3536 18.7871)" class="st3" cx="11.2" cy="68.7" rx="0.1" ry="0.2"/>
						
							<ellipse transform="matrix(0.8198 -0.5727 0.5727 0.8198 -37.3153 18.6113)" class="st3" cx="10.9" cy="68.6" rx="0.1" ry="0.2"/>
					</g>
					<g>
						
							<ellipse transform="matrix(0.8198 -0.5727 0.5727 0.8198 -37.5037 20.1297)" class="st3" cx="13.2" cy="69.7" rx="0.1" ry="0.2"/>
						
							<ellipse transform="matrix(0.8198 -0.5727 0.5727 0.8198 -37.4653 19.9539)" class="st3" cx="13" cy="69.5" rx="0.1" ry="0.2"/>
						
							<ellipse transform="matrix(0.8198 -0.5727 0.5727 0.8198 -37.427 19.778)" class="st3" cx="12.7" cy="69.4" rx="0.1" ry="0.2"/>
						
							<ellipse transform="matrix(0.8198 -0.5727 0.5727 0.8198 -37.3904 19.6096)" class="st3" cx="12.5" cy="69.2" rx="0.1" ry="0.2"/>
						
							<ellipse transform="matrix(0.8198 -0.5727 0.5727 0.8198 -37.3521 19.4337)" class="st3" cx="12.2" cy="69.1" rx="0.1" ry="0.2"/>
						
							<ellipse transform="matrix(0.8198 -0.5727 0.5727 0.8198 -37.3137 19.2578)" class="st3" cx="11.9" cy="68.9" rx="0.1" ry="0.2"/>
						
							<ellipse transform="matrix(0.8198 -0.5727 0.5727 0.8198 -37.2754 19.082)" class="st3" cx="11.7" cy="68.8" rx="0.1" ry="0.2"/>
						
							<ellipse transform="matrix(0.8198 -0.5727 0.5727 0.8198 -37.2388 18.9136)" class="st3" cx="11.4" cy="68.6" rx="0.1" ry="0.2"/>
						
							<ellipse transform="matrix(0.8198 -0.5727 0.5727 0.8198 -37.2004 18.7377)" class="st3" cx="11.2" cy="68.5" rx="0.1" ry="0.2"/>
						
							<ellipse transform="matrix(0.8198 -0.5727 0.5727 0.8198 -37.1621 18.5618)" class="st3" cx="10.9" cy="68.3" rx="0.1" ry="0.2"/>
					</g>
				</g>
				<g>
					
						<ellipse transform="matrix(0.8198 -0.5727 0.5727 0.8198 -37.3478 20.0816)" class="st3" cx="13.2" cy="69.4" rx="0.1" ry="0.2"/>
					
						<ellipse transform="matrix(0.8198 -0.5727 0.5727 0.8198 -37.3159 19.9094)" class="st3" cx="13" cy="69.2" rx="0.1" ry="0.2"/>
					
						<ellipse transform="matrix(0.8198 -0.5727 0.5727 0.8198 -37.2729 19.7373)" class="st3" cx="12.7" cy="69.1" rx="0.1" ry="0.2"/>
					
						<ellipse transform="matrix(0.8198 -0.5727 0.5727 0.8198 -37.2345 19.5614)" class="st3" cx="12.5" cy="68.9" rx="0.1" ry="0.2"/>
					
						<ellipse transform="matrix(0.8198 -0.5727 0.5727 0.8198 -37.1962 19.3856)" class="st3" cx="12.2" cy="68.8" rx="0.1" ry="0.2"/>
					
						<ellipse transform="matrix(0.8198 -0.5727 0.5727 0.8198 -37.1595 19.2171)" class="st3" cx="12" cy="68.6" rx="0.1" ry="0.2"/>
					
						<ellipse transform="matrix(0.8198 -0.5727 0.5727 0.8198 -37.1213 19.0413)" class="st3" cx="11.7" cy="68.5" rx="0.1" ry="0.2"/>
					
						<ellipse transform="matrix(0.8198 -0.5727 0.5727 0.8198 -37.0829 18.8654)" class="st3" cx="11.4" cy="68.4" rx="0.1" ry="0.2"/>
					
						<ellipse transform="matrix(0.8198 -0.5727 0.5727 0.8198 -37.0446 18.6895)" class="st3" cx="11.2" cy="68.2" rx="0.1" ry="0.2"/>
					
						<ellipse transform="matrix(0.8198 -0.5727 0.5727 0.8198 -37.0062 18.5137)" class="st3" cx="10.9" cy="68.1" rx="0.1" ry="0.2"/>
				</g>
				<g>
					
						<ellipse transform="matrix(0.8198 -0.5727 0.5727 0.8198 -37.1946 20.0321)" class="st3" cx="13.2" cy="69.1" rx="0.1" ry="0.2"/>
					<ellipse transform="matrix(0.8198 -0.5727 0.5727 0.8198 -37.1563 19.8563)" class="st3" cx="13" cy="69" rx="0.1" ry="0.2"/>
					
						<ellipse transform="matrix(0.8198 -0.5727 0.5727 0.8198 -37.1179 19.6805)" class="st3" cx="12.7" cy="68.8" rx="0.1" ry="0.2"/>
					
						<ellipse transform="matrix(0.8198 -0.5727 0.5727 0.8198 -37.0813 19.512)" class="st3" cx="12.5" cy="68.7" rx="0.1" ry="0.2"/>
					
						<ellipse transform="matrix(0.8198 -0.5727 0.5727 0.8198 -37.0429 19.3361)" class="st3" cx="12.2" cy="68.5" rx="0.1" ry="0.2"/>
					
						<ellipse transform="matrix(0.8198 -0.5727 0.5727 0.8198 -37.0047 19.1603)" class="st3" cx="11.9" cy="68.4" rx="0.1" ry="0.2"/>
					
						<ellipse transform="matrix(0.8198 -0.5727 0.5727 0.8198 -36.9663 18.9844)" class="st3" cx="11.7" cy="68.2" rx="0.1" ry="0.2"/>
					
						<ellipse transform="matrix(0.8198 -0.5727 0.5727 0.8198 -36.9297 18.816)" class="st3" cx="11.4" cy="68.1" rx="0.1" ry="0.2"/>
					
						<ellipse transform="matrix(0.8198 -0.5727 0.5727 0.8198 -36.8913 18.6401)" class="st3" cx="11.2" cy="67.9" rx="0.1" ry="0.2"/>
					
						<ellipse transform="matrix(0.8198 -0.5727 0.5727 0.8198 -36.853 18.4643)" class="st3" cx="10.9" cy="67.8" rx="0.1" ry="0.2"/>
				</g>
				<g>
					<g>
						
							<ellipse transform="matrix(0.8198 -0.5727 0.5727 0.8198 -37.045 19.9875)" class="st3" cx="13.2" cy="68.9" rx="0.1" ry="0.2"/>
						
							<ellipse transform="matrix(0.8198 -0.5727 0.5727 0.8198 -37.0067 19.8116)" class="st3" cx="13" cy="68.7" rx="0.1" ry="0.2"/>
						
							<ellipse transform="matrix(0.8198 -0.5727 0.5727 0.8198 -36.9684 19.6358)" class="st3" cx="12.7" cy="68.6" rx="0.1" ry="0.2"/>
						
							<ellipse transform="matrix(0.8198 -0.5727 0.5727 0.8198 -36.9253 19.4636)" class="st3" cx="12.5" cy="68.4" rx="0.1" ry="0.2"/>
						
							<ellipse transform="matrix(0.8198 -0.5727 0.5727 0.8198 -36.8869 19.2878)" class="st3" cx="12.2" cy="68.3" rx="0.1" ry="0.2"/>
						
							<ellipse transform="matrix(0.8198 -0.5727 0.5727 0.8198 -36.855 19.1156)" class="st3" cx="11.9" cy="68.1" rx="0.1" ry="0.2"/>
						
							<ellipse transform="matrix(0.8198 -0.5727 0.5727 0.8198 -36.812 18.9435)" class="st3" cx="11.7" cy="68" rx="0.1" ry="0.2"/>
						
							<ellipse transform="matrix(0.8198 -0.5727 0.5727 0.8198 -36.7736 18.7676)" class="st3" cx="11.4" cy="67.8" rx="0.1" ry="0.2"/>
						
							<ellipse transform="matrix(0.8198 -0.5727 0.5727 0.8198 -36.7353 18.5917)" class="st3" cx="11.2" cy="67.7" rx="0.1" ry="0.2"/>
						
							<ellipse transform="matrix(0.8198 -0.5727 0.5727 0.8198 -36.6987 18.4233)" class="st3" cx="10.9" cy="67.5" rx="0.1" ry="0.2"/>
					</g>
					<g>
						
							<ellipse transform="matrix(0.8198 -0.5727 0.5727 0.8198 -36.8853 19.9343)" class="st3" cx="13.2" cy="68.6" rx="0.1" ry="0.2"/>
						
							<ellipse transform="matrix(0.8198 -0.5727 0.5727 0.8198 -36.847 19.7585)" class="st3" cx="13" cy="68.4" rx="0.1" ry="0.2"/>
						
							<ellipse transform="matrix(0.8198 -0.5727 0.5727 0.8198 -36.8103 19.59)" class="st3" cx="12.7" cy="68.3" rx="0.1" ry="0.2"/>
						
							<ellipse transform="matrix(0.8198 -0.5727 0.5727 0.8198 -36.772 19.4141)" class="st3" cx="12.5" cy="68.1" rx="0.1" ry="0.2"/>
						
							<ellipse transform="matrix(0.8198 -0.5727 0.5727 0.8198 -36.7337 19.2383)" class="st3" cx="12.2" cy="68" rx="0.1" ry="0.2"/>
						
							<ellipse transform="matrix(0.8198 -0.5727 0.5727 0.8198 -36.6954 19.0625)" class="st3" cx="11.9" cy="67.8" rx="0.1" ry="0.2"/>
						
							<ellipse transform="matrix(0.8198 -0.5727 0.5727 0.8198 -36.6587 18.894)" class="st3" cx="11.7" cy="67.7" rx="0.1" ry="0.2"/>
						
							<ellipse transform="matrix(0.8198 -0.5727 0.5727 0.8198 -36.6204 18.7182)" class="st3" cx="11.4" cy="67.5" rx="0.1" ry="0.2"/>
						
							<ellipse transform="matrix(0.8198 -0.5727 0.5727 0.8198 -36.5821 18.5423)" class="st3" cx="11.2" cy="67.4" rx="0.1" ry="0.2"/>
						
							<ellipse transform="matrix(0.8198 -0.5727 0.5727 0.8198 -36.5474 18.3712)" class="st3" cx="10.9" cy="67.3" rx="0.1" ry="0.2"/>
					</g>
				</g>
				<g>
					
						<ellipse transform="matrix(0.8198 -0.5727 0.5727 0.8198 -36.7252 19.8853)" class="st3" cx="13.2" cy="68.3" rx="0.1" ry="0.2"/>
					
						<ellipse transform="matrix(0.8198 -0.5727 0.5727 0.8198 -36.6868 19.7094)" class="st3" cx="13" cy="68.1" rx="0.1" ry="0.2"/>
					
						<ellipse transform="matrix(0.8198 -0.5727 0.5727 0.8198 -36.6485 19.5336)" class="st3" cx="12.7" cy="68" rx="0.1" ry="0.2"/>
					
						<ellipse transform="matrix(0.8198 -0.5727 0.5727 0.8198 -36.6054 19.3614)" class="st3" cx="12.5" cy="67.8" rx="0.1" ry="0.2"/>
					
						<ellipse transform="matrix(0.8198 -0.5727 0.5727 0.8198 -36.5735 19.1893)" class="st3" cx="12.2" cy="67.7" rx="0.1" ry="0.2"/>
					
						<ellipse transform="matrix(0.8198 -0.5727 0.5727 0.8198 -36.5352 19.0134)" class="st3" cx="11.9" cy="67.6" rx="0.1" ry="0.2"/>
					
						<ellipse transform="matrix(0.8198 -0.5727 0.5727 0.8198 -36.4921 18.8412)" class="st3" cx="11.7" cy="67.4" rx="0.1" ry="0.2"/>
					
						<ellipse transform="matrix(0.8198 -0.5727 0.5727 0.8198 -36.4538 18.6653)" class="st3" cx="11.4" cy="67.3" rx="0.1" ry="0.2"/>
					
						<ellipse transform="matrix(0.8198 -0.5727 0.5727 0.8198 -36.4155 18.4895)" class="st3" cx="11.2" cy="67.1" rx="0.1" ry="0.2"/>
					<ellipse transform="matrix(0.8198 -0.5727 0.5727 0.8198 -36.3788 18.321)" class="st3" cx="10.9" cy="67" rx="0.1" ry="0.2"/>
				</g>
				<g>
					
						<ellipse transform="matrix(0.8198 -0.5727 0.5727 0.8198 -36.5691 19.8369)" class="st3" cx="13.2" cy="68" rx="0.1" ry="0.2"/>
					<ellipse transform="matrix(0.8198 -0.5727 0.5727 0.8198 -36.5308 19.661)" class="st3" cx="13" cy="67.9" rx="0.1" ry="0.2"/>
					
						<ellipse transform="matrix(0.8198 -0.5727 0.5727 0.8198 -36.4942 19.4926)" class="st3" cx="12.7" cy="67.7" rx="0.1" ry="0.2"/>
					
						<ellipse transform="matrix(0.8198 -0.5727 0.5727 0.8198 -36.4558 19.3167)" class="st3" cx="12.5" cy="67.6" rx="0.1" ry="0.2"/>
					
						<ellipse transform="matrix(0.8198 -0.5727 0.5727 0.8198 -36.4175 19.1409)" class="st3" cx="12.2" cy="67.4" rx="0.1" ry="0.2"/>
					
						<ellipse transform="matrix(0.8198 -0.5727 0.5727 0.8198 -36.3792 18.965)" class="st3" cx="11.9" cy="67.3" rx="0.1" ry="0.2"/>
					
						<ellipse transform="matrix(0.8198 -0.5727 0.5727 0.8198 -36.3426 18.7965)" class="st3" cx="11.7" cy="67.1" rx="0.1" ry="0.2"/>
					
						<ellipse transform="matrix(0.8198 -0.5727 0.5727 0.8198 -36.3042 18.6207)" class="st3" cx="11.4" cy="67" rx="0.1" ry="0.2"/>
					
						<ellipse transform="matrix(0.8198 -0.5727 0.5727 0.8198 -36.2659 18.4449)" class="st3" cx="11.2" cy="66.8" rx="0.1" ry="0.2"/>
					
						<ellipse transform="matrix(0.8198 -0.5727 0.5727 0.8198 -36.2276 18.269)" class="st3" cx="10.9" cy="66.7" rx="0.1" ry="0.2"/>
				</g>
				<g>
					<g>
						
							<ellipse transform="matrix(0.8198 -0.5727 0.5727 0.8198 -36.4159 19.7875)" class="st3" cx="13.2" cy="67.8" rx="0.1" ry="0.2"/>
						
							<ellipse transform="matrix(0.8198 -0.5727 0.5727 0.8198 -36.3775 19.6116)" class="st3" cx="13" cy="67.6" rx="0.1" ry="0.2"/>
						
							<ellipse transform="matrix(0.8198 -0.5727 0.5727 0.8198 -36.3392 19.4357)" class="st3" cx="12.7" cy="67.5" rx="0.1" ry="0.2"/>
						
							<ellipse transform="matrix(0.8198 -0.5727 0.5727 0.8198 -36.2961 19.2635)" class="st3" cx="12.5" cy="67.3" rx="0.1" ry="0.2"/>
						
							<ellipse transform="matrix(0.8198 -0.5727 0.5727 0.8198 -36.2643 19.0914)" class="st3" cx="12.2" cy="67.2" rx="0.1" ry="0.2"/>
						
							<ellipse transform="matrix(0.8198 -0.5727 0.5727 0.8198 -36.2259 18.9156)" class="st3" cx="11.9" cy="67" rx="0.1" ry="0.2"/>
						
							<ellipse transform="matrix(0.8198 -0.5727 0.5727 0.8198 -36.1829 18.7434)" class="st3" cx="11.7" cy="66.9" rx="0.1" ry="0.2"/>
						
							<ellipse transform="matrix(0.8198 -0.5727 0.5727 0.8198 -36.1445 18.5675)" class="st3" cx="11.4" cy="66.7" rx="0.1" ry="0.2"/>
						
							<ellipse transform="matrix(0.8198 -0.5727 0.5727 0.8198 -36.1126 18.3954)" class="st3" cx="11.2" cy="66.6" rx="0.1" ry="0.2"/>
						
							<ellipse transform="matrix(0.8198 -0.5727 0.5727 0.8198 -36.0695 18.2232)" class="st3" cx="10.9" cy="66.4" rx="0.1" ry="0.2"/>
					</g>
					<g>
						
							<ellipse transform="matrix(0.8198 -0.5727 0.5727 0.8198 -36.2598 19.739)" class="st3" cx="13.2" cy="67.5" rx="0.1" ry="0.2"/>
						
							<ellipse transform="matrix(0.8198 -0.5727 0.5727 0.8198 -36.228 19.5669)" class="st3" cx="13" cy="67.3" rx="0.1" ry="0.2"/>
						
							<ellipse transform="matrix(0.8198 -0.5727 0.5727 0.8198 -36.1849 19.3947)" class="st3" cx="12.7" cy="67.2" rx="0.1" ry="0.2"/>
						
							<ellipse transform="matrix(0.8198 -0.5727 0.5727 0.8198 -36.1466 19.2189)" class="st3" cx="12.5" cy="67" rx="0.1" ry="0.2"/>
						
							<ellipse transform="matrix(0.8198 -0.5727 0.5727 0.8198 -36.1082 19.043)" class="st3" cx="12.2" cy="66.9" rx="0.1" ry="0.2"/>
						
							<ellipse transform="matrix(0.8198 -0.5727 0.5727 0.8198 -36.0699 18.8672)" class="st3" cx="11.9" cy="66.7" rx="0.1" ry="0.2"/>
						
							<ellipse transform="matrix(0.8198 -0.5727 0.5727 0.8198 -36.0333 18.6987)" class="st3" cx="11.7" cy="66.6" rx="0.1" ry="0.2"/>
						
							<ellipse transform="matrix(0.8198 -0.5727 0.5727 0.8198 -35.9949 18.5229)" class="st3" cx="11.4" cy="66.5" rx="0.1" ry="0.2"/>
						
							<ellipse transform="matrix(0.8198 -0.5727 0.5727 0.8198 -35.9566 18.347)" class="st3" cx="11.2" cy="66.3" rx="0.1" ry="0.2"/>
						
							<ellipse transform="matrix(0.8198 -0.5727 0.5727 0.8198 -35.9183 18.1712)" class="st3" cx="10.9" cy="66.2" rx="0.1" ry="0.2"/>
					</g>
				</g>
				<g>
					<g>
						
							<ellipse transform="matrix(0.8198 -0.5727 0.5727 0.8198 -36.1066 19.6896)" class="st3" cx="13.2" cy="67.2" rx="0.1" ry="0.2"/>
						
							<ellipse transform="matrix(0.8198 -0.5727 0.5727 0.8198 -36.0682 19.5138)" class="st3" cx="13" cy="67.1" rx="0.1" ry="0.2"/>
						
							<ellipse transform="matrix(0.8198 -0.5727 0.5727 0.8198 -36.03 19.3379)" class="st3" cx="12.7" cy="66.9" rx="0.1" ry="0.2"/>
						
							<ellipse transform="matrix(0.8198 -0.5727 0.5727 0.8198 -35.9933 19.1695)" class="st3" cx="12.5" cy="66.8" rx="0.1" ry="0.2"/>
						
							<ellipse transform="matrix(0.8198 -0.5727 0.5727 0.8198 -35.955 18.9936)" class="st3" cx="12.2" cy="66.6" rx="0.1" ry="0.2"/>
						
							<ellipse transform="matrix(0.8198 -0.5727 0.5727 0.8198 -35.9166 18.8177)" class="st3" cx="11.9" cy="66.5" rx="0.1" ry="0.2"/>
						
							<ellipse transform="matrix(0.8198 -0.5727 0.5727 0.8198 -35.8783 18.6419)" class="st3" cx="11.7" cy="66.3" rx="0.1" ry="0.2"/>
						
							<ellipse transform="matrix(0.8198 -0.5727 0.5727 0.8198 -35.8417 18.4734)" class="st3" cx="11.4" cy="66.2" rx="0.1" ry="0.2"/>
						
							<ellipse transform="matrix(0.8198 -0.5727 0.5727 0.8198 -35.8034 18.2976)" class="st3" cx="11.2" cy="66" rx="0.1" ry="0.2"/>
						
							<ellipse transform="matrix(0.8198 -0.5727 0.5727 0.8198 -35.765 18.1217)" class="st3" cx="10.9" cy="65.9" rx="0.1" ry="0.2"/>
					</g>
					<g>
						<ellipse transform="matrix(0.8198 -0.5727 0.5727 0.8198 -35.957 19.645)" class="st3" cx="13.2" cy="67" rx="0.1" ry="0.2"/>
						
							<ellipse transform="matrix(0.8198 -0.5727 0.5727 0.8198 -35.9187 19.4691)" class="st3" cx="13" cy="66.8" rx="0.1" ry="0.2"/>
						
							<ellipse transform="matrix(0.8198 -0.5727 0.5727 0.8198 -35.8803 19.2932)" class="st3" cx="12.7" cy="66.7" rx="0.1" ry="0.2"/>
						
							<ellipse transform="matrix(0.8198 -0.5727 0.5727 0.8198 -35.8373 19.121)" class="st3" cx="12.5" cy="66.5" rx="0.1" ry="0.2"/>
						
							<ellipse transform="matrix(0.8198 -0.5727 0.5727 0.8198 -35.7989 18.9452)" class="st3" cx="12.2" cy="66.4" rx="0.1" ry="0.2"/>
						
							<ellipse transform="matrix(0.8198 -0.5727 0.5727 0.8198 -35.7671 18.7731)" class="st3" cx="11.9" cy="66.2" rx="0.1" ry="0.2"/>
						
							<ellipse transform="matrix(0.8198 -0.5727 0.5727 0.8198 -35.724 18.6009)" class="st3" cx="11.7" cy="66.1" rx="0.1" ry="0.2"/>
						
							<ellipse transform="matrix(0.8198 -0.5727 0.5727 0.8198 -35.6857 18.4251)" class="st3" cx="11.4" cy="65.9" rx="0.1" ry="0.2"/>
						
							<ellipse transform="matrix(0.8198 -0.5727 0.5727 0.8198 -35.6473 18.2492)" class="st3" cx="11.2" cy="65.8" rx="0.1" ry="0.2"/>
						
							<ellipse transform="matrix(0.8198 -0.5727 0.5727 0.8198 -35.6107 18.0807)" class="st3" cx="10.9" cy="65.6" rx="0.1" ry="0.2"/>
					</g>
				</g>
			</g>
		</g>
	</g>
	<g>
		
			<image style="overflow:visible;opacity:0.97;enable-background:new    ;" width="109" height="154" xlink:href="2F793BA3B253FD55.png"  transform="matrix(8.260000e-02 0 0 8.260000e-02 13.1481 65.5602)">
		</image>
		<g>
			<g>
				<g>
					
						<ellipse transform="matrix(0.8198 -0.5727 0.5727 0.8198 -39.4958 24.2769)" class="st3" cx="18.8" cy="74.9" rx="0.1" ry="0.2"/>
					
						<ellipse transform="matrix(0.8198 -0.5727 0.5727 0.8198 -39.4603 24.0999)" class="st3" cx="18.6" cy="74.7" rx="0.1" ry="0.2"/>
					
						<ellipse transform="matrix(0.8198 -0.5727 0.5727 0.8198 -39.4171 23.9278)" class="st3" cx="18.3" cy="74.6" rx="0.1" ry="0.2"/>
					
						<ellipse transform="matrix(0.8198 -0.5727 0.5727 0.8198 -39.3825 23.7567)" class="st3" cx="18.1" cy="74.4" rx="0.1" ry="0.2"/>
					
						<ellipse transform="matrix(0.8198 -0.5727 0.5727 0.8198 -39.3442 23.5808)" class="st3" cx="17.8" cy="74.3" rx="0.1" ry="0.2"/>
					
						<ellipse transform="matrix(0.8198 -0.5727 0.5727 0.8198 -39.3039 23.4076)" class="st3" cx="17.5" cy="74.2" rx="0.1" ry="0.2"/>
					
						<ellipse transform="matrix(0.8198 -0.5727 0.5727 0.8198 -39.2692 23.2365)" class="st3" cx="17.3" cy="74" rx="0.1" ry="0.2"/>
					
						<ellipse transform="matrix(0.8198 -0.5727 0.5727 0.8198 -39.2309 23.0606)" class="st3" cx="17" cy="73.9" rx="0.1" ry="0.2"/>
					
						<ellipse transform="matrix(0.8198 -0.5727 0.5727 0.8198 -39.1925 22.8848)" class="st3" cx="16.8" cy="73.7" rx="0.1" ry="0.2"/>
					
						<ellipse transform="matrix(0.8198 -0.5727 0.5727 0.8198 -39.1542 22.7089)" class="st3" cx="16.5" cy="73.6" rx="0.1" ry="0.2"/>
				</g>
				<g>
					
						<ellipse transform="matrix(0.8198 -0.5727 0.5727 0.8198 -39.3426 24.2274)" class="st3" cx="18.8" cy="74.6" rx="0.1" ry="0.2"/>
					
						<ellipse transform="matrix(0.8198 -0.5727 0.5727 0.8198 -39.3042 24.0516)" class="st3" cx="18.6" cy="74.5" rx="0.1" ry="0.2"/>
					
						<ellipse transform="matrix(0.8198 -0.5727 0.5727 0.8198 -39.2659 23.8757)" class="st3" cx="18.3" cy="74.3" rx="0.1" ry="0.2"/>
					
						<ellipse transform="matrix(0.8198 -0.5727 0.5727 0.8198 -39.2292 23.7072)" class="st3" cx="18.1" cy="74.2" rx="0.1" ry="0.2"/>
					<ellipse transform="matrix(0.8198 -0.5727 0.5727 0.8198 -39.191 23.5314)" class="st3" cx="17.8" cy="74" rx="0.1" ry="0.2"/>
					
						<ellipse transform="matrix(0.8198 -0.5727 0.5727 0.8198 -39.1526 23.3555)" class="st3" cx="17.5" cy="73.9" rx="0.1" ry="0.2"/>
					
						<ellipse transform="matrix(0.8198 -0.5727 0.5727 0.8198 -39.1095 23.1834)" class="st3" cx="17.3" cy="73.7" rx="0.1" ry="0.2"/>
					<path class="st3" d="M16.9,73.5c0,0,0.1,0,0.1,0.1c0,0.1,0.1,0.1,0,0.2c0,0-0.1,0-0.1-0.1S16.9,73.5,16.9,73.5z"/>
					
						<ellipse transform="matrix(0.8198 -0.5727 0.5727 0.8198 -39.0393 22.8354)" class="st3" cx="16.8" cy="73.4" rx="0.1" ry="0.2"/>
					
						<ellipse transform="matrix(0.8198 -0.5727 0.5727 0.8198 -38.9962 22.6632)" class="st3" cx="16.5" cy="73.3" rx="0.1" ry="0.2"/>
				</g>
				<g>
					<g>
						
							<ellipse transform="matrix(0.8198 -0.5727 0.5727 0.8198 -39.1893 24.178)" class="st3" cx="18.8" cy="74.4" rx="0.1" ry="0.2"/>
						
							<ellipse transform="matrix(0.8198 -0.5727 0.5727 0.8198 -39.1547 24.0069)" class="st3" cx="18.6" cy="74.2" rx="0.1" ry="0.2"/>
						
							<ellipse transform="matrix(0.8198 -0.5727 0.5727 0.8198 -39.1115 23.8347)" class="st3" cx="18.3" cy="74.1" rx="0.1" ry="0.2"/>
						
							<ellipse transform="matrix(0.8198 -0.5727 0.5727 0.8198 -39.0732 23.6589)" class="st3" cx="18.1" cy="73.9" rx="0.1" ry="0.2"/>
						
							<ellipse transform="matrix(0.8198 -0.5727 0.5727 0.8198 -39.0349 23.483)" class="st3" cx="17.8" cy="73.8" rx="0.1" ry="0.2"/>
						
							<ellipse transform="matrix(0.8198 -0.5727 0.5727 0.8198 -38.9983 23.3146)" class="st3" cx="17.5" cy="73.6" rx="0.1" ry="0.2"/>
						
							<ellipse transform="matrix(0.8198 -0.5727 0.5727 0.8198 -38.9599 23.1387)" class="st3" cx="17.3" cy="73.5" rx="0.1" ry="0.2"/>
						
							<ellipse transform="matrix(0.8198 -0.5727 0.5727 0.8198 -38.9216 22.9628)" class="st3" cx="17" cy="73.3" rx="0.1" ry="0.2"/>
						
							<ellipse transform="matrix(0.8198 -0.5727 0.5727 0.8198 -38.8833 22.787)" class="st3" cx="16.8" cy="73.2" rx="0.1" ry="0.2"/>
						
							<ellipse transform="matrix(0.8198 -0.5727 0.5727 0.8198 -38.8467 22.6185)" class="st3" cx="16.5" cy="73" rx="0.1" ry="0.2"/>
					</g>
					<g>
						
							<ellipse transform="matrix(0.8198 -0.5727 0.5727 0.8198 -39.0333 24.1296)" class="st3" cx="18.8" cy="74.1" rx="0.1" ry="0.2"/>
						
							<ellipse transform="matrix(0.8198 -0.5727 0.5727 0.8198 -38.9949 23.9537)" class="st3" cx="18.6" cy="73.9" rx="0.1" ry="0.2"/>
						
							<ellipse transform="matrix(0.8198 -0.5727 0.5727 0.8198 -38.9583 23.7852)" class="st3" cx="18.3" cy="73.8" rx="0.1" ry="0.2"/>
						
							<ellipse transform="matrix(0.8198 -0.5727 0.5727 0.8198 -38.92 23.6094)" class="st3" cx="18.1" cy="73.6" rx="0.1" ry="0.2"/>
						
							<ellipse transform="matrix(0.8198 -0.5727 0.5727 0.8198 -38.8817 23.4336)" class="st3" cx="17.8" cy="73.5" rx="0.1" ry="0.2"/>
						
							<ellipse transform="matrix(0.8198 -0.5727 0.5727 0.8198 -38.8433 23.2577)" class="st3" cx="17.5" cy="73.3" rx="0.1" ry="0.2"/>
						
							<ellipse transform="matrix(0.8198 -0.5727 0.5727 0.8198 -38.8067 23.0892)" class="st3" cx="17.3" cy="73.2" rx="0.1" ry="0.2"/>
						
							<ellipse transform="matrix(0.8198 -0.5727 0.5727 0.8198 -38.7684 22.9134)" class="st3" cx="17" cy="73.1" rx="0.1" ry="0.2"/>
						
							<ellipse transform="matrix(0.8198 -0.5727 0.5727 0.8198 -38.73 22.7375)" class="st3" cx="16.8" cy="72.9" rx="0.1" ry="0.2"/>
						
							<ellipse transform="matrix(0.8198 -0.5727 0.5727 0.8198 -38.6917 22.5617)" class="st3" cx="16.5" cy="72.8" rx="0.1" ry="0.2"/>
					</g>
				</g>
				<g>
					
						<ellipse transform="matrix(0.8198 -0.5727 0.5727 0.8198 -38.8731 24.0805)" class="st3" cx="18.8" cy="73.8" rx="0.1" ry="0.2"/>
					<path class="st3" d="M18.5,73.5c0,0,0.1,0,0.1,0.1s0.1,0.1,0,0.2c0,0-0.1,0-0.1-0.1C18.5,73.6,18.4,73.6,18.5,73.5z"/>
					
						<ellipse transform="matrix(0.8198 -0.5727 0.5727 0.8198 -38.7917 23.7325)" class="st3" cx="18.3" cy="73.5" rx="0.1" ry="0.2"/>
					
						<ellipse transform="matrix(0.8198 -0.5727 0.5727 0.8198 -38.7534 23.5566)" class="st3" cx="18.1" cy="73.4" rx="0.1" ry="0.2"/>
					
						<ellipse transform="matrix(0.8198 -0.5727 0.5727 0.8198 -38.715 23.3808)" class="st3" cx="17.8" cy="73.2" rx="0.1" ry="0.2"/>
					
						<ellipse transform="matrix(0.8198 -0.5727 0.5727 0.8198 -38.6784 23.2123)" class="st3" cx="17.5" cy="73.1" rx="0.1" ry="0.2"/>
					
						<ellipse transform="matrix(0.8198 -0.5727 0.5727 0.8198 -38.6401 23.0364)" class="st3" cx="17.3" cy="72.9" rx="0.1" ry="0.2"/>
					
						<ellipse transform="matrix(0.8198 -0.5727 0.5727 0.8198 -38.6018 22.8606)" class="st3" cx="17" cy="72.8" rx="0.1" ry="0.2"/>
					
						<ellipse transform="matrix(0.8198 -0.5727 0.5727 0.8198 -38.5634 22.6848)" class="st3" cx="16.8" cy="72.6" rx="0.1" ry="0.2"/>
					
						<ellipse transform="matrix(0.8198 -0.5727 0.5727 0.8198 -38.5268 22.5163)" class="st3" cx="16.5" cy="72.5" rx="0.1" ry="0.2"/>
				</g>
				<g>
					
						<ellipse transform="matrix(0.8198 -0.5727 0.5727 0.8198 -38.7171 24.0321)" class="st3" cx="18.8" cy="73.5" rx="0.1" ry="0.2"/>
					
						<ellipse transform="matrix(0.8198 -0.5727 0.5727 0.8198 -38.6788 23.8563)" class="st3" cx="18.6" cy="73.4" rx="0.1" ry="0.2"/>
					
						<ellipse transform="matrix(0.8198 -0.5727 0.5727 0.8198 -38.6385 23.6831)" class="st3" cx="18.3" cy="73.2" rx="0.1" ry="0.2"/>
					
						<ellipse transform="matrix(0.8198 -0.5727 0.5727 0.8198 -38.6038 23.5119)" class="st3" cx="18.1" cy="73.1" rx="0.1" ry="0.2"/>
					
						<ellipse transform="matrix(0.8198 -0.5727 0.5727 0.8198 -38.5655 23.3361)" class="st3" cx="17.8" cy="72.9" rx="0.1" ry="0.2"/>
					
						<ellipse transform="matrix(0.8198 -0.5727 0.5727 0.8198 -38.5271 23.1603)" class="st3" cx="17.5" cy="72.8" rx="0.1" ry="0.2"/>
					
						<ellipse transform="matrix(0.8198 -0.5727 0.5727 0.8198 -38.4869 22.9871)" class="st3" cx="17.3" cy="72.6" rx="0.1" ry="0.2"/>
					<ellipse transform="matrix(0.8198 -0.5727 0.5727 0.8198 -38.4522 22.816)" class="st3" cx="17" cy="72.5" rx="0.1" ry="0.2"/>
					
						<ellipse transform="matrix(0.8198 -0.5727 0.5727 0.8198 -38.4139 22.6401)" class="st3" cx="16.8" cy="72.4" rx="0.1" ry="0.2"/>
					
						<ellipse transform="matrix(0.8198 -0.5727 0.5727 0.8198 -38.3755 22.4642)" class="st3" cx="16.5" cy="72.2" rx="0.1" ry="0.2"/>
				</g>
				<g>
					<g>
						
							<ellipse transform="matrix(0.8198 -0.5727 0.5727 0.8198 -38.5638 23.9827)" class="st3" cx="18.8" cy="73.3" rx="0.1" ry="0.2"/>
						
							<ellipse transform="matrix(0.8198 -0.5727 0.5727 0.8198 -38.5255 23.8068)" class="st3" cx="18.6" cy="73.1" rx="0.1" ry="0.2"/>
						
							<ellipse transform="matrix(0.8198 -0.5727 0.5727 0.8198 -38.4872 23.631)" class="st3" cx="18.3" cy="73" rx="0.1" ry="0.2"/>
						
							<ellipse transform="matrix(0.8198 -0.5727 0.5727 0.8198 -38.4441 23.4588)" class="st3" cx="18" cy="72.8" rx="0.1" ry="0.2"/>
						
							<ellipse transform="matrix(0.8198 -0.5727 0.5727 0.8198 -38.4122 23.2867)" class="st3" cx="17.8" cy="72.7" rx="0.1" ry="0.2"/>
						
							<ellipse transform="matrix(0.8198 -0.5727 0.5727 0.8198 -38.3739 23.1108)" class="st3" cx="17.5" cy="72.5" rx="0.1" ry="0.2"/>
						
							<ellipse transform="matrix(0.8198 -0.5727 0.5727 0.8198 -38.3308 22.9386)" class="st3" cx="17.3" cy="72.4" rx="0.1" ry="0.2"/>
						
							<ellipse transform="matrix(0.8198 -0.5727 0.5727 0.8198 -38.2925 22.7628)" class="st3" cx="17" cy="72.2" rx="0.1" ry="0.2"/>
						
							<ellipse transform="matrix(0.8198 -0.5727 0.5727 0.8198 -38.2606 22.5907)" class="st3" cx="16.8" cy="72.1" rx="0.1" ry="0.2"/>
						
							<ellipse transform="matrix(0.8198 -0.5727 0.5727 0.8198 -38.2175 22.4185)" class="st3" cx="16.5" cy="71.9" rx="0.1" ry="0.2"/>
					</g>
					<g>
						
							<ellipse transform="matrix(0.8198 -0.5727 0.5727 0.8198 -38.4078 23.9343)" class="st3" cx="18.8" cy="73" rx="0.1" ry="0.2"/>
						
							<ellipse transform="matrix(0.8198 -0.5727 0.5727 0.8198 -38.3675 23.761)" class="st3" cx="18.6" cy="72.8" rx="0.1" ry="0.2"/>
						
							<ellipse transform="matrix(0.8198 -0.5727 0.5727 0.8198 -38.3329 23.59)" class="st3" cx="18.3" cy="72.7" rx="0.1" ry="0.2"/>
						
							<ellipse transform="matrix(0.8198 -0.5727 0.5727 0.8198 -38.2945 23.4141)" class="st3" cx="18.1" cy="72.5" rx="0.1" ry="0.2"/>
						
							<ellipse transform="matrix(0.8198 -0.5727 0.5727 0.8198 -38.2562 23.2383)" class="st3" cx="17.8" cy="72.4" rx="0.1" ry="0.2"/>
						
							<ellipse transform="matrix(0.8198 -0.5727 0.5727 0.8198 -38.2179 23.0624)" class="st3" cx="17.5" cy="72.3" rx="0.1" ry="0.2"/>
						
							<ellipse transform="matrix(0.8198 -0.5727 0.5727 0.8198 -38.1813 22.894)" class="st3" cx="17.3" cy="72.1" rx="0.1" ry="0.2"/>
						<ellipse transform="matrix(0.8198 -0.5727 0.5727 0.8198 -38.1429 22.7181)" class="st3" cx="17" cy="72" rx="0.1" ry="0.2"/>
						
							<ellipse transform="matrix(0.8198 -0.5727 0.5727 0.8198 -38.1046 22.5423)" class="st3" cx="16.8" cy="71.8" rx="0.1" ry="0.2"/>
						
							<ellipse transform="matrix(0.8198 -0.5727 0.5727 0.8198 -38.0662 22.3664)" class="st3" cx="16.5" cy="71.7" rx="0.1" ry="0.2"/>
					</g>
				</g>
				<g>
					
						<ellipse transform="matrix(0.8198 -0.5727 0.5727 0.8198 -38.2548 23.8851)" class="st3" cx="18.8" cy="72.7" rx="0.1" ry="0.2"/>
					
						<ellipse transform="matrix(0.8198 -0.5727 0.5727 0.8198 -38.2164 23.7093)" class="st3" cx="18.6" cy="72.6" rx="0.1" ry="0.2"/>
					
						<ellipse transform="matrix(0.8198 -0.5727 0.5727 0.8198 -38.1781 23.5334)" class="st3" cx="18.3" cy="72.4" rx="0.1" ry="0.2"/>
					<ellipse transform="matrix(0.8198 -0.5727 0.5727 0.8198 -38.135 23.3612)" class="st3" cx="18" cy="72.3" rx="0.1" ry="0.2"/>
					
						<ellipse transform="matrix(0.8198 -0.5727 0.5727 0.8198 -38.1032 23.1891)" class="st3" cx="17.8" cy="72.1" rx="0.1" ry="0.2"/>
					
						<ellipse transform="matrix(0.8198 -0.5727 0.5727 0.8198 -38.0648 23.0133)" class="st3" cx="17.5" cy="72" rx="0.1" ry="0.2"/>
					
						<ellipse transform="matrix(0.8198 -0.5727 0.5727 0.8198 -38.0217 22.8411)" class="st3" cx="17.3" cy="71.8" rx="0.1" ry="0.2"/>
					
						<ellipse transform="matrix(0.8198 -0.5727 0.5727 0.8198 -37.9834 22.6652)" class="st3" cx="17" cy="71.7" rx="0.1" ry="0.2"/>
					
						<ellipse transform="matrix(0.8198 -0.5727 0.5727 0.8198 -37.9515 22.4931)" class="st3" cx="16.8" cy="71.5" rx="0.1" ry="0.2"/>
					
						<ellipse transform="matrix(0.8198 -0.5727 0.5727 0.8198 -37.9084 22.3209)" class="st3" cx="16.5" cy="71.4" rx="0.1" ry="0.2"/>
				</g>
				<g>
					
						<ellipse transform="matrix(0.8198 -0.5727 0.5727 0.8198 -38.0987 23.8367)" class="st3" cx="18.8" cy="72.5" rx="0.1" ry="0.2"/>
					
						<ellipse transform="matrix(0.8198 -0.5727 0.5727 0.8198 -38.0621 23.6683)" class="st3" cx="18.6" cy="72.3" rx="0.1" ry="0.2"/>
					
						<ellipse transform="matrix(0.8198 -0.5727 0.5727 0.8198 -38.0238 23.4924)" class="st3" cx="18.3" cy="72.2" rx="0.1" ry="0.2"/>
					
						<ellipse transform="matrix(0.8198 -0.5727 0.5727 0.8198 -37.9855 23.3166)" class="st3" cx="18.1" cy="72" rx="0.1" ry="0.2"/>
					
						<ellipse transform="matrix(0.8198 -0.5727 0.5727 0.8198 -37.9471 23.1407)" class="st3" cx="17.8" cy="71.9" rx="0.1" ry="0.2"/>
					
						<ellipse transform="matrix(0.8198 -0.5727 0.5727 0.8198 -37.9088 22.9648)" class="st3" cx="17.5" cy="71.7" rx="0.1" ry="0.2"/>
					
						<ellipse transform="matrix(0.8198 -0.5727 0.5727 0.8198 -37.8721 22.7964)" class="st3" cx="17.3" cy="71.6" rx="0.1" ry="0.2"/>
					
						<ellipse transform="matrix(0.8198 -0.5727 0.5727 0.8198 -37.8339 22.6205)" class="st3" cx="17" cy="71.4" rx="0.1" ry="0.2"/>
					
						<ellipse transform="matrix(0.8198 -0.5727 0.5727 0.8198 -37.7955 22.4447)" class="st3" cx="16.8" cy="71.3" rx="0.1" ry="0.2"/>
					
						<ellipse transform="matrix(0.8198 -0.5727 0.5727 0.8198 -37.7571 22.2689)" class="st3" cx="16.5" cy="71.1" rx="0.1" ry="0.2"/>
				</g>
				<g>
					<g>
						
							<ellipse transform="matrix(0.8198 -0.5727 0.5727 0.8198 -37.9455 23.7873)" class="st3" cx="18.8" cy="72.2" rx="0.1" ry="0.2"/>
						
							<ellipse transform="matrix(0.8198 -0.5727 0.5727 0.8198 -37.9072 23.6115)" class="st3" cx="18.6" cy="72" rx="0.1" ry="0.2"/>
						
							<ellipse transform="matrix(0.8198 -0.5727 0.5727 0.8198 -37.8688 23.4356)" class="st3" cx="18.3" cy="71.9" rx="0.1" ry="0.2"/>
						
							<ellipse transform="matrix(0.8198 -0.5727 0.5727 0.8198 -37.8322 23.2671)" class="st3" cx="18.1" cy="71.7" rx="0.1" ry="0.2"/>
						
							<ellipse transform="matrix(0.8198 -0.5727 0.5727 0.8198 -37.7939 23.0913)" class="st3" cx="17.8" cy="71.6" rx="0.1" ry="0.2"/>
						
							<ellipse transform="matrix(0.8198 -0.5727 0.5727 0.8198 -37.7555 22.9154)" class="st3" cx="17.5" cy="71.4" rx="0.1" ry="0.2"/>
						
							<ellipse transform="matrix(0.8198 -0.5727 0.5727 0.8198 -37.7124 22.7432)" class="st3" cx="17.3" cy="71.3" rx="0.1" ry="0.2"/>
						
							<ellipse transform="matrix(0.8198 -0.5727 0.5727 0.8198 -37.6806 22.5711)" class="st3" cx="17" cy="71.2" rx="0.1" ry="0.2"/>
						
							<ellipse transform="matrix(0.8198 -0.5727 0.5727 0.8198 -37.6423 22.3952)" class="st3" cx="16.8" cy="71" rx="0.1" ry="0.2"/>
						
							<ellipse transform="matrix(0.8198 -0.5727 0.5727 0.8198 -37.5992 22.2231)" class="st3" cx="16.5" cy="70.8" rx="0.1" ry="0.2"/>
					</g>
					<g>
						
							<ellipse transform="matrix(0.8198 -0.5727 0.5727 0.8198 -37.7959 23.7426)" class="st3" cx="18.8" cy="71.9" rx="0.1" ry="0.2"/>
						
							<ellipse transform="matrix(0.8198 -0.5727 0.5727 0.8198 -37.7576 23.5668)" class="st3" cx="18.6" cy="71.8" rx="0.1" ry="0.2"/>
						
							<ellipse transform="matrix(0.8198 -0.5727 0.5727 0.8198 -37.7145 23.3946)" class="st3" cx="18.3" cy="71.6" rx="0.1" ry="0.2"/>
						
							<ellipse transform="matrix(0.8198 -0.5727 0.5727 0.8198 -37.6762 23.2187)" class="st3" cx="18.1" cy="71.5" rx="0.1" ry="0.2"/>
						
							<ellipse transform="matrix(0.8198 -0.5727 0.5727 0.8198 -37.6378 23.0429)" class="st3" cx="17.8" cy="71.3" rx="0.1" ry="0.2"/>
						
							<ellipse transform="matrix(0.8198 -0.5727 0.5727 0.8198 -37.6012 22.8744)" class="st3" cx="17.5" cy="71.2" rx="0.1" ry="0.2"/>
						
							<ellipse transform="matrix(0.8198 -0.5727 0.5727 0.8198 -37.5629 22.6986)" class="st3" cx="17.3" cy="71" rx="0.1" ry="0.2"/>
						
							<ellipse transform="matrix(0.8198 -0.5727 0.5727 0.8198 -37.5245 22.5227)" class="st3" cx="17" cy="70.9" rx="0.1" ry="0.2"/>
						
							<ellipse transform="matrix(0.8198 -0.5727 0.5727 0.8198 -37.4862 22.3469)" class="st3" cx="16.8" cy="70.7" rx="0.1" ry="0.2"/>
						
							<ellipse transform="matrix(0.8198 -0.5727 0.5727 0.8198 -37.4496 22.1784)" class="st3" cx="16.5" cy="70.6" rx="0.1" ry="0.2"/>
					</g>
				</g>
				<g>
					
						<ellipse transform="matrix(0.8198 -0.5727 0.5727 0.8198 -37.6293 23.6899)" class="st3" cx="18.8" cy="71.6" rx="0.1" ry="0.2"/>
					
						<ellipse transform="matrix(0.8198 -0.5727 0.5727 0.8198 -37.591 23.514)" class="st3" cx="18.6" cy="71.5" rx="0.1" ry="0.2"/>
					
						<ellipse transform="matrix(0.8198 -0.5727 0.5727 0.8198 -37.5526 23.3381)" class="st3" cx="18.3" cy="71.3" rx="0.1" ry="0.2"/>
					
						<ellipse transform="matrix(0.8198 -0.5727 0.5727 0.8198 -37.516 23.1697)" class="st3" cx="18.1" cy="71.2" rx="0.1" ry="0.2"/>
					
						<ellipse transform="matrix(0.8198 -0.5727 0.5727 0.8198 -37.4777 22.9938)" class="st3" cx="17.8" cy="71" rx="0.1" ry="0.2"/>
					
						<ellipse transform="matrix(0.8198 -0.5727 0.5727 0.8198 -37.4393 22.818)" class="st3" cx="17.5" cy="70.9" rx="0.1" ry="0.2"/>
					
						<ellipse transform="matrix(0.8198 -0.5727 0.5727 0.8198 -37.3962 22.6458)" class="st3" cx="17.3" cy="70.7" rx="0.1" ry="0.2"/>
					
						<ellipse transform="matrix(0.8198 -0.5727 0.5727 0.8198 -37.3644 22.4737)" class="st3" cx="17" cy="70.6" rx="0.1" ry="0.2"/>
					
						<ellipse transform="matrix(0.8198 -0.5727 0.5727 0.8198 -37.3261 22.2978)" class="st3" cx="16.8" cy="70.5" rx="0.1" ry="0.2"/>
					
						<ellipse transform="matrix(0.8198 -0.5727 0.5727 0.8198 -37.283 22.1256)" class="st3" cx="16.5" cy="70.3" rx="0.1" ry="0.2"/>
				</g>
				<g>
					
						<ellipse transform="matrix(0.8198 -0.5727 0.5727 0.8198 -37.4761 23.6404)" class="st3" cx="18.8" cy="71.4" rx="0.1" ry="0.2"/>
					
						<ellipse transform="matrix(0.8198 -0.5727 0.5727 0.8198 -37.4378 23.4646)" class="st3" cx="18.6" cy="71.2" rx="0.1" ry="0.2"/>
					
						<ellipse transform="matrix(0.8198 -0.5727 0.5727 0.8198 -37.3946 23.2923)" class="st3" cx="18.3" cy="71.1" rx="0.1" ry="0.2"/>
					
						<ellipse transform="matrix(0.8198 -0.5727 0.5727 0.8198 -37.3563 23.1166)" class="st3" cx="18" cy="70.9" rx="0.1" ry="0.2"/>
					
						<ellipse transform="matrix(0.8198 -0.5727 0.5727 0.8198 -37.318 22.9407)" class="st3" cx="17.8" cy="70.8" rx="0.1" ry="0.2"/>
					
						<ellipse transform="matrix(0.8198 -0.5727 0.5727 0.8198 -37.2814 22.7722)" class="st3" cx="17.5" cy="70.6" rx="0.1" ry="0.2"/>
					
						<ellipse transform="matrix(0.8198 -0.5727 0.5727 0.8198 -37.243 22.5964)" class="st3" cx="17.3" cy="70.5" rx="0.1" ry="0.2"/>
					
						<ellipse transform="matrix(0.8198 -0.5727 0.5727 0.8198 -37.2047 22.4205)" class="st3" cx="17" cy="70.3" rx="0.1" ry="0.2"/>
					
						<ellipse transform="matrix(0.8198 -0.5727 0.5727 0.8198 -37.1664 22.2447)" class="st3" cx="16.8" cy="70.2" rx="0.1" ry="0.2"/>
					
						<ellipse transform="matrix(0.8198 -0.5727 0.5727 0.8198 -37.1298 22.0762)" class="st3" cx="16.5" cy="70" rx="0.1" ry="0.2"/>
				</g>
				<g>
					<g>
						
							<ellipse transform="matrix(0.8198 -0.5727 0.5727 0.8198 -37.32 23.592)" class="st3" cx="18.8" cy="71.1" rx="0.1" ry="0.2"/>
						
							<ellipse transform="matrix(0.8198 -0.5727 0.5727 0.8198 -37.2817 23.4162)" class="st3" cx="18.6" cy="70.9" rx="0.1" ry="0.2"/>
						
							<ellipse transform="matrix(0.8198 -0.5727 0.5727 0.8198 -37.2451 23.2477)" class="st3" cx="18.3" cy="70.8" rx="0.1" ry="0.2"/>
						
							<ellipse transform="matrix(0.8198 -0.5727 0.5727 0.8198 -37.2067 23.0719)" class="st3" cx="18.1" cy="70.7" rx="0.1" ry="0.2"/>
						
							<ellipse transform="matrix(0.8198 -0.5727 0.5727 0.8198 -37.1684 22.896)" class="st3" cx="17.8" cy="70.5" rx="0.1" ry="0.2"/>
						
							<ellipse transform="matrix(0.8198 -0.5727 0.5727 0.8198 -37.1301 22.7201)" class="st3" cx="17.5" cy="70.4" rx="0.1" ry="0.2"/>
						
							<ellipse transform="matrix(0.8198 -0.5727 0.5727 0.8198 -37.0917 22.5443)" class="st3" cx="17.3" cy="70.2" rx="0.1" ry="0.2"/>
						
							<ellipse transform="matrix(0.8198 -0.5727 0.5727 0.8198 -37.0551 22.3758)" class="st3" cx="17" cy="70.1" rx="0.1" ry="0.2"/>
						
							<ellipse transform="matrix(0.8198 -0.5727 0.5727 0.8198 -37.0168 22.2)" class="st3" cx="16.8" cy="69.9" rx="0.1" ry="0.2"/>
						
							<ellipse transform="matrix(0.8198 -0.5727 0.5727 0.8198 -36.9785 22.0241)" class="st3" cx="16.5" cy="69.8" rx="0.1" ry="0.2"/>
					</g>
					<g>
						
							<ellipse transform="matrix(0.8198 -0.5727 0.5727 0.8198 -37.1668 23.5426)" class="st3" cx="18.8" cy="70.8" rx="0.1" ry="0.2"/>
						
							<ellipse transform="matrix(0.8198 -0.5727 0.5727 0.8198 -37.1285 23.3667)" class="st3" cx="18.6" cy="70.7" rx="0.1" ry="0.2"/>
						
							<ellipse transform="matrix(0.8198 -0.5727 0.5727 0.8198 -37.0854 23.1945)" class="st3" cx="18.3" cy="70.5" rx="0.1" ry="0.2"/>
						
							<ellipse transform="matrix(0.8198 -0.5727 0.5727 0.8198 -37.0471 23.0187)" class="st3" cx="18" cy="70.4" rx="0.1" ry="0.2"/>
						
							<ellipse transform="matrix(0.8198 -0.5727 0.5727 0.8198 -37.0152 22.8466)" class="st3" cx="17.8" cy="70.2" rx="0.1" ry="0.2"/>
						
							<ellipse transform="matrix(0.8198 -0.5727 0.5727 0.8198 -36.9721 22.6744)" class="st3" cx="17.5" cy="70.1" rx="0.1" ry="0.2"/>
						
							<ellipse transform="matrix(0.8198 -0.5727 0.5727 0.8198 -36.9337 22.4985)" class="st3" cx="17.3" cy="69.9" rx="0.1" ry="0.2"/>
						
							<ellipse transform="matrix(0.8198 -0.5727 0.5727 0.8198 -36.8954 22.3227)" class="st3" cx="17" cy="69.8" rx="0.1" ry="0.2"/>
						
							<ellipse transform="matrix(0.8198 -0.5727 0.5727 0.8198 -36.8588 22.1542)" class="st3" cx="16.8" cy="69.6" rx="0.1" ry="0.2"/>
						
							<ellipse transform="matrix(0.8198 -0.5727 0.5727 0.8198 -36.8205 21.9784)" class="st3" cx="16.5" cy="69.5" rx="0.1" ry="0.2"/>
					</g>
				</g>
				<g>
					<g>
						
							<ellipse transform="matrix(0.8198 -0.5727 0.5727 0.8198 -37.0108 23.4942)" class="st3" cx="18.8" cy="70.6" rx="0.1" ry="0.2"/>
						
							<ellipse transform="matrix(0.8198 -0.5727 0.5727 0.8198 -36.9742 23.3257)" class="st3" cx="18.6" cy="70.4" rx="0.1" ry="0.2"/>
						
							<ellipse transform="matrix(0.8198 -0.5727 0.5727 0.8198 -36.9358 23.1499)" class="st3" cx="18.3" cy="70.3" rx="0.1" ry="0.2"/>
						
							<ellipse transform="matrix(0.8198 -0.5727 0.5727 0.8198 -36.8974 22.9741)" class="st3" cx="18.1" cy="70.1" rx="0.1" ry="0.2"/>
						
							<ellipse transform="matrix(0.8198 -0.5727 0.5727 0.8198 -36.8592 22.7982)" class="st3" cx="17.8" cy="70" rx="0.1" ry="0.2"/>
						
							<ellipse transform="matrix(0.8198 -0.5727 0.5727 0.8198 -36.8208 22.6223)" class="st3" cx="17.5" cy="69.8" rx="0.1" ry="0.2"/>
						
							<ellipse transform="matrix(0.8198 -0.5727 0.5727 0.8198 -36.7842 22.4539)" class="st3" cx="17.3" cy="69.7" rx="0.1" ry="0.2"/>
						
							<ellipse transform="matrix(0.8198 -0.5727 0.5727 0.8198 -36.7458 22.278)" class="st3" cx="17" cy="69.5" rx="0.1" ry="0.2"/>
						
							<ellipse transform="matrix(0.8198 -0.5727 0.5727 0.8198 -36.7076 22.1021)" class="st3" cx="16.8" cy="69.4" rx="0.1" ry="0.2"/>
						
							<ellipse transform="matrix(0.8198 -0.5727 0.5727 0.8198 -36.6692 21.9263)" class="st3" cx="16.5" cy="69.2" rx="0.1" ry="0.2"/>
					</g>
					<g>
						
							<ellipse transform="matrix(0.8198 -0.5727 0.5727 0.8198 -36.8575 23.4447)" class="st3" cx="18.8" cy="70.3" rx="0.1" ry="0.2"/>
						
							<ellipse transform="matrix(0.8198 -0.5727 0.5727 0.8198 -36.8192 23.2689)" class="st3" cx="18.6" cy="70.1" rx="0.1" ry="0.2"/>
						
							<ellipse transform="matrix(0.8198 -0.5727 0.5727 0.8198 -36.7808 23.0931)" class="st3" cx="18.3" cy="70" rx="0.1" ry="0.2"/>
						
							<ellipse transform="matrix(0.8198 -0.5727 0.5727 0.8198 -36.7442 22.9246)" class="st3" cx="18.1" cy="69.8" rx="0.1" ry="0.2"/>
						
							<ellipse transform="matrix(0.8198 -0.5727 0.5727 0.8198 -36.7059 22.7487)" class="st3" cx="17.8" cy="69.7" rx="0.1" ry="0.2"/>
						
							<ellipse transform="matrix(0.8198 -0.5727 0.5727 0.8198 -36.6676 22.5729)" class="st3" cx="17.5" cy="69.5" rx="0.1" ry="0.2"/>
						
							<ellipse transform="matrix(0.8198 -0.5727 0.5727 0.8198 -36.6245 22.4007)" class="st3" cx="17.3" cy="69.4" rx="0.1" ry="0.2"/>
						
							<ellipse transform="matrix(0.8198 -0.5727 0.5727 0.8198 -36.5898 22.2296)" class="st3" cx="17" cy="69.2" rx="0.1" ry="0.2"/>
						
							<ellipse transform="matrix(0.8198 -0.5727 0.5727 0.8198 -36.5543 22.0527)" class="st3" cx="16.8" cy="69.1" rx="0.1" ry="0.2"/>
						
							<ellipse transform="matrix(0.8198 -0.5727 0.5727 0.8198 -36.5112 21.8806)" class="st3" cx="16.5" cy="68.9" rx="0.1" ry="0.2"/>
					</g>
				</g>
			</g>
		</g>
	</g>
</g>
</svg>
