<svg width="24" height="24" viewBox="0 0 24 24" fill="none" xmlns="http://www.w3.org/2000/svg">
<path d="M14.5582 13.5597C13.9186 14.6381 12.6764 15.2056 11.4426 14.983C10.2087 14.7605 9.24301 13.7948 9.02048 12.5609C8.79795 11.3271 9.36544 10.0849 10.4438 9.44531" stroke="#474747" stroke-width="1.5" stroke-linecap="round" stroke-linejoin="round"/>
<path d="M17.9964 16.9985C16.2716 18.3068 14.1646 19.0118 11.9998 19.0053C8.41273 19.0691 5.09837 17.0977 3.44226 13.9151C2.84737 12.7093 2.84737 11.2954 3.44226 10.0895C4.27051 8.44017 5.59081 7.08891 7.22056 6.22266" stroke="#474747" stroke-width="1.5" stroke-linecap="round" stroke-linejoin="round"/>
<path d="M20.4287 14.135C20.4689 14.059 20.5211 13.9908 20.559 13.9133C21.1539 12.7075 21.1539 11.2935 20.559 10.0877C18.9029 6.90513 15.5885 4.93372 12.0014 4.9976C11.7766 4.9976 11.5579 5.02761 11.3359 5.04224" stroke="#474747" stroke-width="1.5" stroke-linecap="round" stroke-linejoin="round"/>
<path d="M21.0032 20.0032L3.99609 2.99609" stroke="#474747" stroke-width="1.5" stroke-linecap="round" stroke-linejoin="round"/>
</svg>
