<?xml version="1.0" encoding="utf-8"?>
<!-- Generator: Adobe Illustrator 28.0.0, SVG Export Plug-In . SVG Version: 6.00 Build 0)  -->
<svg version="1.1" id="Layer_1" xmlns="http://www.w3.org/2000/svg" xmlns:xlink="http://www.w3.org/1999/xlink" x="0px" y="0px"
	 viewBox="0 0 124 50" style="enable-background:new 0 0 124 50;" xml:space="preserve">
<style type="text/css">
	.st0{fill:#FF8800;}
	.st1{fill:#2E323B;}
	.st2{fill:#FFFFFF;stroke:#FFFFFF;stroke-miterlimit:10;}
</style>
<g>
	<path class="st0" d="M63.7,18.1c1.2,0.7,2.2,1.6,2.9,2.8c0.7,1.2,1,2.6,1,4.1c0,1.5-0.3,2.9-1,4.1c-0.7,1.2-1.6,2.1-2.9,2.8
		s-2.7,1-4.3,1h-6.2V17.1h6.2C61,17.1,62.5,17.4,63.7,18.1z M62.1,28c0.7-0.7,1.1-1.7,1.1-3c0-1.3-0.4-2.3-1.1-3
		c-0.7-0.7-1.7-1.1-3-1.1h-1.5v8.1H59C60.3,29.1,61.3,28.7,62.1,28z"/>
	<path class="st0" d="M84.2,32.9h-4.4L74,24.1v8.8h-4.4V17.1H74l5.8,8.9v-8.9h4.4L84.2,32.9L84.2,32.9z"/>
	<path class="st0" d="M87.2,20.8c0.7-1.2,1.6-2.2,2.8-2.8c1.2-0.7,2.6-1,4.1-1c2,0,3.6,0.5,5,1.6c1.3,1,2.2,2.5,2.6,4.3h-4.7
		c-0.3-0.6-0.7-1-1.2-1.3S94.7,21,94,21c-1,0-1.8,0.4-2.4,1.1c-0.6,0.7-0.9,1.7-0.9,2.9s0.3,2.2,0.9,2.9C92.2,28.6,93,29,94,29
		c0.7,0,1.2-0.2,1.7-0.5s0.9-0.8,1.2-1.3h4.7c-0.4,1.8-1.3,3.2-2.6,4.3c-1.3,1.1-3,1.6-5,1.6c-1.6,0-2.9-0.3-4.1-1
		c-1.2-0.7-2.1-1.6-2.8-2.8c-0.7-1.2-1-2.6-1-4.2C86.2,23.4,86.5,22,87.2,20.8z"/>
	<path class="st0" d="M113.1,32.9l-4.9-6.9v6.9h-4.4V17.1h4.4v6.8l4.9-6.8h5.1l-5.8,7.7l6.1,8.1L113.1,32.9L113.1,32.9z"/>
</g>
<path class="st1" d="M37.7,19.1L37.7,19.1c-1.3-1.2-1-4-0.6-5.9c0.2-0.9-0.6-1.5-1.3-1.3c-4.6,2.7-11,12.8-13.3,16.9
	c-0.1,0.2-0.3,0.3-0.5,0.3c-0.1,0-0.2,0-0.3-0.1c-0.3-0.2-0.4-0.5-0.2-0.8c0,0,2.5-4.3,5.5-8.6c1.3-1.8,2.5-3.3,3.6-4.6l-7.5-4.3
	c0,0-0.1,0-0.1-0.1l0,0c-1.3-1.2-1.8-4.8-1.4-6.7c0.2-1-0.9-1.7-1.8-1.1c-8.4,6.3-14,16.5-14,16.5l0,0c-0.1,0.2-0.2,0.5-0.2,0.8v0.2
	v0.7v16c0,0.8,0.4,1.6,1.1,1.9l12.8,7.3l0,0l1,0.6c0.8,0.5,1.8,0.5,2.6,0l1-0.6c0.1,0,0.2-0.1,0.2-0.1l13.1-7.8
	c0.5-0.3,0.8-0.8,0.8-1.4V22.8V22v-1.4C38.3,20,38.1,19.5,37.7,19.1z"/>
<path class="st2" d="M19.2,44.2c0.3,0.1,0.6-0.1,0.6-0.4V43V30.9c0-0.6-0.3-1.1-0.8-1.3L7.8,22.9C7.4,22.8,7,23,7,23.4v13
	c0,0.6,0.3,1.2,0.9,1.5l10.5,6L19.2,44.2z"/>
<g>
	
		<image style="display:none;overflow:visible;opacity:0.97;enable-background:new    ;" width="109" height="154" xlink:href="B2AF0CAD69398E3B.png"  transform="matrix(8.505000e-02 0 0 8.523940e-02 11.4553 29.2872)">
	</image>
	<g>
		<g>
			<g>
				
					<ellipse transform="matrix(0.8209 -0.5711 0.5711 0.8209 -19.1203 16.8455)" class="st0" cx="17.3" cy="38.9" rx="0.1" ry="0.2"/>
				<ellipse transform="matrix(0.8209 -0.5711 0.5711 0.8209 -19.0884 16.6721)" class="st0" cx="17" cy="38.8" rx="0.1" ry="0.2"/>
				
					<ellipse transform="matrix(0.8209 -0.5711 0.5711 0.8209 -19.0451 16.4888)" class="st0" cx="16.8" cy="38.6" rx="0.1" ry="0.2"/>
				
					<ellipse transform="matrix(0.8209 -0.5711 0.5711 0.8209 -19.0061 16.3109)" class="st0" cx="16.5" cy="38.5" rx="0.1" ry="0.2"/>
				
					<ellipse transform="matrix(0.8209 -0.5711 0.5711 0.8209 -18.9671 16.1331)" class="st0" cx="16.2" cy="38.3" rx="0.1" ry="0.2"/>
				<ellipse transform="matrix(0.8209 -0.5711 0.5711 0.8209 -18.9254 15.9584)" class="st0" cx="16" cy="38.1" rx="0.1" ry="0.2"/>
				<ellipse transform="matrix(0.8209 -0.5711 0.5711 0.8209 -18.8865 15.7805)" class="st0" cx="15.7" cy="38" rx="0.1" ry="0.2"/>
				
					<ellipse transform="matrix(0.8209 -0.5711 0.5711 0.8209 -18.8474 15.6027)" class="st0" cx="15.4" cy="37.8" rx="0.1" ry="0.2"/>
				
					<ellipse transform="matrix(0.8209 -0.5711 0.5711 0.8209 -18.8041 15.4194)" class="st0" cx="15.2" cy="37.7" rx="0.1" ry="0.2"/>
				
					<ellipse transform="matrix(0.8209 -0.5711 0.5711 0.8209 -18.7651 15.2416)" class="st0" cx="14.9" cy="37.5" rx="0.1" ry="0.2"/>
			</g>
			<g>
				
					<ellipse transform="matrix(0.8209 -0.5711 0.5711 0.8209 -18.9671 16.8005)" class="st0" cx="17.3" cy="38.6" rx="0.1" ry="0.2"/>
				<ellipse transform="matrix(0.8209 -0.5711 0.5711 0.8209 -18.9238 16.6172)" class="st0" cx="17" cy="38.5" rx="0.1" ry="0.2"/>
				
					<ellipse transform="matrix(0.8209 -0.5711 0.5711 0.8209 -18.8848 16.4394)" class="st0" cx="16.8" cy="38.3" rx="0.1" ry="0.2"/>
				
					<ellipse transform="matrix(0.8209 -0.5711 0.5711 0.8209 -18.8487 16.2605)" class="st0" cx="16.5" cy="38.2" rx="0.1" ry="0.2"/>
				<ellipse transform="matrix(0.8209 -0.5711 0.5711 0.8209 -18.8096 16.0826)" class="st0" cx="16.2" cy="38" rx="0.1" ry="0.2"/>
				<ellipse transform="matrix(0.8209 -0.5711 0.5711 0.8209 -18.7706 15.9048)" class="st0" cx="16" cy="37.9" rx="0.1" ry="0.2"/>
				
					<ellipse transform="matrix(0.8209 -0.5711 0.5711 0.8209 -18.7316 15.727)" class="st0" cx="15.7" cy="37.7" rx="0.1" ry="0.2"/>
				<path class="st0" d="M15.4,37.4c0,0,0.1,0,0.2,0.1c0,0.1,0.1,0.2,0,0.2s-0.1,0-0.2-0.1C15.3,37.5,15.3,37.5,15.4,37.4z"/>
				
					<ellipse transform="matrix(0.8209 -0.5711 0.5711 0.8209 -18.651 15.3745)" class="st0" cx="15.2" cy="37.4" rx="0.1" ry="0.2"/>
				
					<ellipse transform="matrix(0.8209 -0.5711 0.5711 0.8209 -18.6077 15.1912)" class="st0" cx="14.9" cy="37.3" rx="0.1" ry="0.2"/>
			</g>
			<g>
				<g>
					
						<ellipse transform="matrix(0.8209 -0.5711 0.5711 0.8209 -18.8097 16.7501)" class="st0" cx="17.3" cy="38.4" rx="0.1" ry="0.2"/>
					
						<ellipse transform="matrix(0.8209 -0.5711 0.5711 0.8209 -18.7706 16.5723)" class="st0" cx="17" cy="38.2" rx="0.1" ry="0.2"/>
					<ellipse transform="matrix(0.8209 -0.5711 0.5711 0.8209 -18.7274 16.389)" class="st0" cx="16.8" cy="38" rx="0.1" ry="0.2"/>
					
						<ellipse transform="matrix(0.8209 -0.5711 0.5711 0.8209 -18.6884 16.2111)" class="st0" cx="16.5" cy="37.9" rx="0.1" ry="0.2"/>
					
						<ellipse transform="matrix(0.8209 -0.5711 0.5711 0.8209 -18.6493 16.0333)" class="st0" cx="16.2" cy="37.7" rx="0.1" ry="0.2"/>
					
						<ellipse transform="matrix(0.8209 -0.5711 0.5711 0.8209 -18.6132 15.8544)" class="st0" cx="16" cy="37.6" rx="0.1" ry="0.2"/>
					
						<ellipse transform="matrix(0.8209 -0.5711 0.5711 0.8209 -18.5741 15.6766)" class="st0" cx="15.7" cy="37.4" rx="0.1" ry="0.2"/>
					
						<ellipse transform="matrix(0.8209 -0.5711 0.5711 0.8209 -18.5352 15.4987)" class="st0" cx="15.4" cy="37.3" rx="0.1" ry="0.2"/>
					
						<ellipse transform="matrix(0.8209 -0.5711 0.5711 0.8209 -18.4919 15.3154)" class="st0" cx="15.2" cy="37.1" rx="0.1" ry="0.2"/>
					
						<ellipse transform="matrix(0.8209 -0.5711 0.5711 0.8209 -18.4545 15.1462)" class="st0" cx="14.9" cy="37" rx="0.1" ry="0.2"/>
				</g>
				<g>
					
						<ellipse transform="matrix(0.8209 -0.5711 0.5711 0.8209 -18.6494 16.7007)" class="st0" cx="17.3" cy="38.1" rx="0.1" ry="0.2"/>
					
						<ellipse transform="matrix(0.8209 -0.5711 0.5711 0.8209 -18.6061 16.5174)" class="st0" cx="17" cy="37.9" rx="0.1" ry="0.2"/>
					
						<ellipse transform="matrix(0.8209 -0.5711 0.5711 0.8209 -18.5742 16.344)" class="st0" cx="16.8" cy="37.8" rx="0.1" ry="0.2"/>
					
						<ellipse transform="matrix(0.8209 -0.5711 0.5711 0.8209 -18.5309 16.1606)" class="st0" cx="16.5" cy="37.6" rx="0.1" ry="0.2"/>
					
						<ellipse transform="matrix(0.8209 -0.5711 0.5711 0.8209 -18.4919 15.9828)" class="st0" cx="16.2" cy="37.5" rx="0.1" ry="0.2"/>
					<ellipse transform="matrix(0.8209 -0.5711 0.5711 0.8209 -18.4529 15.805)" class="st0" cx="16" cy="37.3" rx="0.1" ry="0.2"/>
					
						<ellipse transform="matrix(0.8209 -0.5711 0.5711 0.8209 -18.4112 15.6304)" class="st0" cx="15.7" cy="37.2" rx="0.1" ry="0.2"/>
					
						<ellipse transform="matrix(0.8209 -0.5711 0.5711 0.8209 -18.3722 15.4525)" class="st0" cx="15.4" cy="37" rx="0.1" ry="0.2"/>
					
						<ellipse transform="matrix(0.8209 -0.5711 0.5711 0.8209 -18.3332 15.2747)" class="st0" cx="15.2" cy="36.9" rx="0.1" ry="0.2"/>
					
						<ellipse transform="matrix(0.8209 -0.5711 0.5711 0.8209 -18.2899 15.0914)" class="st0" cx="14.9" cy="36.7" rx="0.1" ry="0.2"/>
				</g>
			</g>
			<g>
				
					<ellipse transform="matrix(0.8209 -0.5711 0.5711 0.8209 -18.4801 16.6446)" class="st0" cx="17.3" cy="37.8" rx="0.1" ry="0.2"/>
				<path class="st0" d="M16.9,37.5c0,0,0.1,0,0.2,0.1c0,0.1,0.1,0.2,0,0.2c0,0-0.1,0-0.2-0.1C16.9,37.6,16.9,37.5,16.9,37.5z"/>
				
					<ellipse transform="matrix(0.8209 -0.5711 0.5711 0.8209 -18.4021 16.289)" class="st0" cx="16.8" cy="37.5" rx="0.1" ry="0.2"/>
				
					<ellipse transform="matrix(0.8209 -0.5711 0.5711 0.8209 -18.3631 16.1111)" class="st0" cx="16.5" cy="37.3" rx="0.1" ry="0.2"/>
				
					<ellipse transform="matrix(0.8209 -0.5711 0.5711 0.8209 -18.3198 15.9278)" class="st0" cx="16.2" cy="37.2" rx="0.1" ry="0.2"/>
				<ellipse transform="matrix(0.8209 -0.5711 0.5711 0.8209 -18.2879 15.7544)" class="st0" cx="16" cy="37" rx="0.1" ry="0.2"/>
				
					<ellipse transform="matrix(0.8209 -0.5711 0.5711 0.8209 -18.2446 15.5711)" class="st0" cx="15.7" cy="36.9" rx="0.1" ry="0.2"/>
				
					<ellipse transform="matrix(0.8209 -0.5711 0.5711 0.8209 -18.2056 15.3933)" class="st0" cx="15.4" cy="36.7" rx="0.1" ry="0.2"/>
				
					<ellipse transform="matrix(0.8209 -0.5711 0.5711 0.8209 -18.1666 15.2154)" class="st0" cx="15.2" cy="36.6" rx="0.1" ry="0.2"/>
				
					<ellipse transform="matrix(0.8209 -0.5711 0.5711 0.8209 -18.1249 15.0407)" class="st0" cx="14.9" cy="36.4" rx="0.1" ry="0.2"/>
			</g>
			<g>
				
					<ellipse transform="matrix(0.8209 -0.5711 0.5711 0.8209 -18.3198 16.5953)" class="st0" cx="17.3" cy="37.5" rx="0.1" ry="0.2"/>
				<ellipse transform="matrix(0.8209 -0.5711 0.5711 0.8209 -18.2808 16.4174)" class="st0" cx="17" cy="37.3" rx="0.1" ry="0.2"/>
				
					<ellipse transform="matrix(0.8209 -0.5711 0.5711 0.8209 -18.2447 16.2385)" class="st0" cx="16.8" cy="37.2" rx="0.1" ry="0.2"/>
				
					<ellipse transform="matrix(0.8209 -0.5711 0.5711 0.8209 -18.2056 16.0607)" class="st0" cx="16.5" cy="37.1" rx="0.1" ry="0.2"/>
				
					<ellipse transform="matrix(0.8209 -0.5711 0.5711 0.8209 -18.1666 15.8829)" class="st0" cx="16.2" cy="36.9" rx="0.1" ry="0.2"/>
				<ellipse transform="matrix(0.8209 -0.5711 0.5711 0.8209 -18.1233 15.6995)" class="st0" cx="16" cy="36.7" rx="0.1" ry="0.2"/>
				
					<ellipse transform="matrix(0.8209 -0.5711 0.5711 0.8209 -18.0859 15.5304)" class="st0" cx="15.7" cy="36.6" rx="0.1" ry="0.2"/>
				
					<ellipse transform="matrix(0.8209 -0.5711 0.5711 0.8209 -18.0427 15.3471)" class="st0" cx="15.4" cy="36.4" rx="0.1" ry="0.2"/>
				
					<ellipse transform="matrix(0.8209 -0.5711 0.5711 0.8209 -18.0037 15.1692)" class="st0" cx="15.2" cy="36.3" rx="0.1" ry="0.2"/>
				
					<ellipse transform="matrix(0.8209 -0.5711 0.5711 0.8209 -17.9646 14.9914)" class="st0" cx="14.9" cy="36.1" rx="0.1" ry="0.2"/>
			</g>
			<g>
				<g>
					
						<ellipse transform="matrix(0.8209 -0.5711 0.5711 0.8209 -18.1624 16.5448)" class="st0" cx="17.3" cy="37.2" rx="0.1" ry="0.2"/>
					<ellipse transform="matrix(0.8209 -0.5711 0.5711 0.8209 -18.1234 16.367)" class="st0" cx="17" cy="37.1" rx="0.1" ry="0.2"/>
					
						<ellipse transform="matrix(0.8209 -0.5711 0.5711 0.8209 -18.0843 16.1891)" class="st0" cx="16.8" cy="36.9" rx="0.1" ry="0.2"/>
					
						<ellipse transform="matrix(0.8209 -0.5711 0.5711 0.8209 -18.0453 16.0113)" class="st0" cx="16.5" cy="36.8" rx="0.1" ry="0.2"/>
					
						<ellipse transform="matrix(0.8209 -0.5711 0.5711 0.8209 -18.0092 15.8325)" class="st0" cx="16.2" cy="36.6" rx="0.1" ry="0.2"/>
					
						<ellipse transform="matrix(0.8209 -0.5711 0.5711 0.8209 -17.9701 15.6546)" class="st0" cx="16" cy="36.5" rx="0.1" ry="0.2"/>
					
						<ellipse transform="matrix(0.8209 -0.5711 0.5711 0.8209 -17.9269 15.4713)" class="st0" cx="15.7" cy="36.3" rx="0.1" ry="0.2"/>
					
						<ellipse transform="matrix(0.8209 -0.5711 0.5711 0.8209 -17.8878 15.2934)" class="st0" cx="15.4" cy="36.2" rx="0.1" ry="0.2"/>
					
						<ellipse transform="matrix(0.8209 -0.5711 0.5711 0.8209 -17.8462 15.1188)" class="st0" cx="15.2" cy="36" rx="0.1" ry="0.2"/>
					
						<ellipse transform="matrix(0.8209 -0.5711 0.5711 0.8209 -17.8072 14.9409)" class="st0" cx="14.9" cy="35.9" rx="0.1" ry="0.2"/>
				</g>
				<g>
					
						<ellipse transform="matrix(0.8209 -0.5711 0.5711 0.8209 -18.0021 16.4955)" class="st0" cx="17.3" cy="36.9" rx="0.1" ry="0.2"/>
					<ellipse transform="matrix(0.8209 -0.5711 0.5711 0.8209 -17.966 16.3165)" class="st0" cx="17" cy="36.8" rx="0.1" ry="0.2"/>
					
						<ellipse transform="matrix(0.8209 -0.5711 0.5711 0.8209 -17.9269 16.1387)" class="st0" cx="16.8" cy="36.6" rx="0.1" ry="0.2"/>
					
						<ellipse transform="matrix(0.8209 -0.5711 0.5711 0.8209 -17.8879 15.9609)" class="st0" cx="16.5" cy="36.5" rx="0.1" ry="0.2"/>
					
						<ellipse transform="matrix(0.8209 -0.5711 0.5711 0.8209 -17.8488 15.7831)" class="st0" cx="16.2" cy="36.3" rx="0.1" ry="0.2"/>
					
						<ellipse transform="matrix(0.8209 -0.5711 0.5711 0.8209 -17.8056 15.5997)" class="st0" cx="16" cy="36.2" rx="0.1" ry="0.2"/>
					
						<ellipse transform="matrix(0.8209 -0.5711 0.5711 0.8209 -17.7682 15.4306)" class="st0" cx="15.7" cy="36" rx="0.1" ry="0.2"/>
					
						<ellipse transform="matrix(0.8209 -0.5711 0.5711 0.8209 -17.7249 15.2472)" class="st0" cx="15.4" cy="35.9" rx="0.1" ry="0.2"/>
					
						<ellipse transform="matrix(0.8209 -0.5711 0.5711 0.8209 -17.6859 15.0694)" class="st0" cx="15.2" cy="35.7" rx="0.1" ry="0.2"/>
					
						<ellipse transform="matrix(0.8209 -0.5711 0.5711 0.8209 -17.6469 14.8916)" class="st0" cx="14.9" cy="35.6" rx="0.1" ry="0.2"/>
				</g>
			</g>
			<g>
				
					<ellipse transform="matrix(0.8209 -0.5711 0.5711 0.8209 -17.8449 16.4453)" class="st0" cx="17.3" cy="36.7" rx="0.1" ry="0.2"/>
				<ellipse transform="matrix(0.8209 -0.5711 0.5711 0.8209 -17.8058 16.2674)" class="st0" cx="17" cy="36.5" rx="0.1" ry="0.2"/>
				
					<ellipse transform="matrix(0.8209 -0.5711 0.5711 0.8209 -17.7668 16.0896)" class="st0" cx="16.8" cy="36.4" rx="0.1" ry="0.2"/>
				
					<ellipse transform="matrix(0.8209 -0.5711 0.5711 0.8209 -17.7278 15.9118)" class="st0" cx="16.5" cy="36.2" rx="0.1" ry="0.2"/>
				
					<ellipse transform="matrix(0.8209 -0.5711 0.5711 0.8209 -17.6916 15.7329)" class="st0" cx="16.2" cy="36.1" rx="0.1" ry="0.2"/>
				<ellipse transform="matrix(0.8209 -0.5711 0.5711 0.8209 -17.6526 15.555)" class="st0" cx="16" cy="35.9" rx="0.1" ry="0.2"/>
				
					<ellipse transform="matrix(0.8209 -0.5711 0.5711 0.8209 -17.6094 15.3718)" class="st0" cx="15.7" cy="35.8" rx="0.1" ry="0.2"/>
				
					<ellipse transform="matrix(0.8209 -0.5711 0.5711 0.8209 -17.5703 15.1939)" class="st0" cx="15.4" cy="35.6" rx="0.1" ry="0.2"/>
				
					<ellipse transform="matrix(0.8209 -0.5711 0.5711 0.8209 -17.5287 15.0192)" class="st0" cx="15.2" cy="35.5" rx="0.1" ry="0.2"/>
				
					<ellipse transform="matrix(0.8209 -0.5711 0.5711 0.8209 -17.4896 14.8414)" class="st0" cx="14.9" cy="35.3" rx="0.1" ry="0.2"/>
			</g>
			<g>
				
					<ellipse transform="matrix(0.8209 -0.5711 0.5711 0.8209 -17.6846 16.3959)" class="st0" cx="17.3" cy="36.4" rx="0.1" ry="0.2"/>
				<ellipse transform="matrix(0.8209 -0.5711 0.5711 0.8209 -17.6484 16.217)" class="st0" cx="17" cy="36.2" rx="0.1" ry="0.2"/>
				
					<ellipse transform="matrix(0.8209 -0.5711 0.5711 0.8209 -17.6094 16.0392)" class="st0" cx="16.8" cy="36.1" rx="0.1" ry="0.2"/>
				
					<ellipse transform="matrix(0.8209 -0.5711 0.5711 0.8209 -17.5704 15.8614)" class="st0" cx="16.5" cy="35.9" rx="0.1" ry="0.2"/>
				
					<ellipse transform="matrix(0.8209 -0.5711 0.5711 0.8209 -17.5313 15.6836)" class="st0" cx="16.2" cy="35.8" rx="0.1" ry="0.2"/>
				<ellipse transform="matrix(0.8209 -0.5711 0.5711 0.8209 -17.4881 15.5002)" class="st0" cx="16" cy="35.6" rx="0.1" ry="0.2"/>
				
					<ellipse transform="matrix(0.8209 -0.5711 0.5711 0.8209 -17.4506 15.331)" class="st0" cx="15.7" cy="35.5" rx="0.1" ry="0.2"/>
				
					<ellipse transform="matrix(0.8209 -0.5711 0.5711 0.8209 -17.4074 15.1477)" class="st0" cx="15.4" cy="35.3" rx="0.1" ry="0.2"/>
				
					<ellipse transform="matrix(0.8209 -0.5711 0.5711 0.8209 -17.3684 14.9699)" class="st0" cx="15.2" cy="35.2" rx="0.1" ry="0.2"/>
				<ellipse transform="matrix(0.8209 -0.5711 0.5711 0.8209 -17.3293 14.792)" class="st0" cx="14.9" cy="35" rx="0.1" ry="0.2"/>
			</g>
			<g>
				<g>
					
						<ellipse transform="matrix(0.8209 -0.5711 0.5711 0.8209 -17.5271 16.3455)" class="st0" cx="17.3" cy="36.1" rx="0.1" ry="0.2"/>
					<ellipse transform="matrix(0.8209 -0.5711 0.5711 0.8209 -17.4881 16.1676)" class="st0" cx="17" cy="36" rx="0.1" ry="0.2"/>
					
						<ellipse transform="matrix(0.8209 -0.5711 0.5711 0.8209 -17.4491 15.9898)" class="st0" cx="16.8" cy="35.8" rx="0.1" ry="0.2"/>
					
						<ellipse transform="matrix(0.8209 -0.5711 0.5711 0.8209 -17.413 15.811)" class="st0" cx="16.5" cy="35.7" rx="0.1" ry="0.2"/>
					
						<ellipse transform="matrix(0.8209 -0.5711 0.5711 0.8209 -17.3739 15.6331)" class="st0" cx="16.2" cy="35.5" rx="0.1" ry="0.2"/>
					
						<ellipse transform="matrix(0.8209 -0.5711 0.5711 0.8209 -17.3349 15.4553)" class="st0" cx="16" cy="35.4" rx="0.1" ry="0.2"/>
					
						<ellipse transform="matrix(0.8209 -0.5711 0.5711 0.8209 -17.2916 15.2719)" class="st0" cx="15.7" cy="35.2" rx="0.1" ry="0.2"/>
					
						<ellipse transform="matrix(0.8209 -0.5711 0.5711 0.8209 -17.2542 15.1028)" class="st0" cx="15.4" cy="35.1" rx="0.1" ry="0.2"/>
					
						<ellipse transform="matrix(0.8209 -0.5711 0.5711 0.8209 -17.211 14.9195)" class="st0" cx="15.2" cy="34.9" rx="0.1" ry="0.2"/>
					
						<ellipse transform="matrix(0.8209 -0.5711 0.5711 0.8209 -17.1719 14.7416)" class="st0" cx="14.9" cy="34.7" rx="0.1" ry="0.2"/>
				</g>
				<g>
					
						<ellipse transform="matrix(0.8209 -0.5711 0.5711 0.8209 -17.374 16.3006)" class="st0" cx="17.3" cy="35.8" rx="0.1" ry="0.2"/>
					
						<ellipse transform="matrix(0.8209 -0.5711 0.5711 0.8209 -17.3307 16.1172)" class="st0" cx="17" cy="35.7" rx="0.1" ry="0.2"/>
					
						<ellipse transform="matrix(0.8209 -0.5711 0.5711 0.8209 -17.2917 15.9394)" class="st0" cx="16.8" cy="35.5" rx="0.1" ry="0.2"/>
					
						<ellipse transform="matrix(0.8209 -0.5711 0.5711 0.8209 -17.2526 15.7616)" class="st0" cx="16.5" cy="35.4" rx="0.1" ry="0.2"/>
					
						<ellipse transform="matrix(0.8209 -0.5711 0.5711 0.8209 -17.2136 15.5838)" class="st0" cx="16.2" cy="35.2" rx="0.1" ry="0.2"/>
					<ellipse transform="matrix(0.8209 -0.5711 0.5711 0.8209 -17.172 15.409)" class="st0" cx="16" cy="35.1" rx="0.1" ry="0.2"/>
					
						<ellipse transform="matrix(0.8209 -0.5711 0.5711 0.8209 -17.1329 15.2312)" class="st0" cx="15.7" cy="34.9" rx="0.1" ry="0.2"/>
					
						<ellipse transform="matrix(0.8209 -0.5711 0.5711 0.8209 -17.0897 15.0479)" class="st0" cx="15.4" cy="34.8" rx="0.1" ry="0.2"/>
					
						<ellipse transform="matrix(0.8209 -0.5711 0.5711 0.8209 -17.0506 14.8701)" class="st0" cx="15.2" cy="34.6" rx="0.1" ry="0.2"/>
					
						<ellipse transform="matrix(0.8209 -0.5711 0.5711 0.8209 -17.0145 14.6912)" class="st0" cx="14.9" cy="34.5" rx="0.1" ry="0.2"/>
				</g>
			</g>
			<g>
				
					<ellipse transform="matrix(0.8209 -0.5711 0.5711 0.8209 -17.2018 16.2455)" class="st0" cx="17.3" cy="35.5" rx="0.1" ry="0.2"/>
				<ellipse transform="matrix(0.8209 -0.5711 0.5711 0.8209 -17.1628 16.0677)" class="st0" cx="17" cy="35.4" rx="0.1" ry="0.2"/>
				
					<ellipse transform="matrix(0.8209 -0.5711 0.5711 0.8209 -17.1195 15.8843)" class="st0" cx="16.8" cy="35.2" rx="0.1" ry="0.2"/>
				
					<ellipse transform="matrix(0.8209 -0.5711 0.5711 0.8209 -17.0876 15.7109)" class="st0" cx="16.5" cy="35.1" rx="0.1" ry="0.2"/>
				
					<ellipse transform="matrix(0.8209 -0.5711 0.5711 0.8209 -17.0444 15.5276)" class="st0" cx="16.2" cy="34.9" rx="0.1" ry="0.2"/>
				<ellipse transform="matrix(0.8209 -0.5711 0.5711 0.8209 -17.0053 15.3498)" class="st0" cx="16" cy="34.8" rx="0.1" ry="0.2"/>
				
					<ellipse transform="matrix(0.8209 -0.5711 0.5711 0.8209 -16.9663 15.1719)" class="st0" cx="15.7" cy="34.6" rx="0.1" ry="0.2"/>
				
					<ellipse transform="matrix(0.8209 -0.5711 0.5711 0.8209 -16.9247 14.9973)" class="st0" cx="15.4" cy="34.5" rx="0.1" ry="0.2"/>
				
					<ellipse transform="matrix(0.8209 -0.5711 0.5711 0.8209 -16.8856 14.8195)" class="st0" cx="15.2" cy="34.3" rx="0.1" ry="0.2"/>
				
					<ellipse transform="matrix(0.8209 -0.5711 0.5711 0.8209 -16.8466 14.6417)" class="st0" cx="14.9" cy="34.2" rx="0.1" ry="0.2"/>
			</g>
			<g>
				
					<ellipse transform="matrix(0.8209 -0.5711 0.5711 0.8209 -17.0444 16.1951)" class="st0" cx="17.3" cy="35.3" rx="0.1" ry="0.2"/>
				<ellipse transform="matrix(0.8209 -0.5711 0.5711 0.8209 -17.0054 16.0173)" class="st0" cx="17" cy="35.1" rx="0.1" ry="0.2"/>
				<ellipse transform="matrix(0.8209 -0.5711 0.5711 0.8209 -16.9663 15.8394)" class="st0" cx="16.8" cy="35" rx="0.1" ry="0.2"/>
				
					<ellipse transform="matrix(0.8209 -0.5711 0.5711 0.8209 -16.9231 15.6561)" class="st0" cx="16.5" cy="34.8" rx="0.1" ry="0.2"/>
				
					<ellipse transform="matrix(0.8209 -0.5711 0.5711 0.8209 -16.8841 15.4783)" class="st0" cx="16.2" cy="34.7" rx="0.1" ry="0.2"/>
				<ellipse transform="matrix(0.8209 -0.5711 0.5711 0.8209 -16.8479 15.2994)" class="st0" cx="16" cy="34.5" rx="0.1" ry="0.2"/>
				
					<ellipse transform="matrix(0.8209 -0.5711 0.5711 0.8209 -16.8089 15.1216)" class="st0" cx="15.7" cy="34.4" rx="0.1" ry="0.2"/>
				
					<ellipse transform="matrix(0.8209 -0.5711 0.5711 0.8209 -16.7698 14.9437)" class="st0" cx="15.4" cy="34.2" rx="0.1" ry="0.2"/>
				<ellipse transform="matrix(0.8209 -0.5711 0.5711 0.8209 -16.7253 14.7701)" class="st0" cx="15.2" cy="34" rx="0.1" ry="0.2"/>
				
					<ellipse transform="matrix(0.8209 -0.5711 0.5711 0.8209 -16.6892 14.5912)" class="st0" cx="14.9" cy="33.9" rx="0.1" ry="0.2"/>
			</g>
			<g>
				<g>
					
						<ellipse transform="matrix(0.8209 -0.5711 0.5711 0.8209 -16.8841 16.1457)" class="st0" cx="17.3" cy="35" rx="0.1" ry="0.2"/>
					
						<ellipse transform="matrix(0.8209 -0.5711 0.5711 0.8209 -16.8451 15.9679)" class="st0" cx="17" cy="34.8" rx="0.1" ry="0.2"/>
					
						<ellipse transform="matrix(0.8209 -0.5711 0.5711 0.8209 -16.8089 15.789)" class="st0" cx="16.8" cy="34.7" rx="0.1" ry="0.2"/>
					
						<ellipse transform="matrix(0.8209 -0.5711 0.5711 0.8209 -16.7699 15.6111)" class="st0" cx="16.5" cy="34.5" rx="0.1" ry="0.2"/>
					
						<ellipse transform="matrix(0.8209 -0.5711 0.5711 0.8209 -16.7266 15.4278)" class="st0" cx="16.2" cy="34.4" rx="0.1" ry="0.2"/>
					<ellipse transform="matrix(0.8209 -0.5711 0.5711 0.8209 -16.6876 15.25)" class="st0" cx="16" cy="34.2" rx="0.1" ry="0.2"/>
					
						<ellipse transform="matrix(0.8209 -0.5711 0.5711 0.8209 -16.6486 15.0722)" class="st0" cx="15.7" cy="34.1" rx="0.1" ry="0.2"/>
					
						<ellipse transform="matrix(0.8209 -0.5711 0.5711 0.8209 -16.6069 14.8975)" class="st0" cx="15.4" cy="33.9" rx="0.1" ry="0.2"/>
					
						<ellipse transform="matrix(0.8209 -0.5711 0.5711 0.8209 -16.5679 14.7197)" class="st0" cx="15.2" cy="33.8" rx="0.1" ry="0.2"/>
					
						<ellipse transform="matrix(0.8209 -0.5711 0.5711 0.8209 -16.5289 14.5419)" class="st0" cx="14.9" cy="33.6" rx="0.1" ry="0.2"/>
				</g>
				<g>
					
						<ellipse transform="matrix(0.8209 -0.5711 0.5711 0.8209 -16.7267 16.0953)" class="st0" cx="17.3" cy="34.7" rx="0.1" ry="0.2"/>
					
						<ellipse transform="matrix(0.8209 -0.5711 0.5711 0.8209 -16.6876 15.9174)" class="st0" cx="17" cy="34.6" rx="0.1" ry="0.2"/>
					
						<ellipse transform="matrix(0.8209 -0.5711 0.5711 0.8209 -16.6486 15.7396)" class="st0" cx="16.8" cy="34.4" rx="0.1" ry="0.2"/>
					
						<ellipse transform="matrix(0.8209 -0.5711 0.5711 0.8209 -16.6054 15.5563)" class="st0" cx="16.5" cy="34.2" rx="0.1" ry="0.2"/>
					
						<ellipse transform="matrix(0.8209 -0.5711 0.5711 0.8209 -16.5734 15.3829)" class="st0" cx="16.2" cy="34.1" rx="0.1" ry="0.2"/>
					<ellipse transform="matrix(0.8209 -0.5711 0.5711 0.8209 -16.5301 15.1996)" class="st0" cx="16" cy="34" rx="0.1" ry="0.2"/>
					
						<ellipse transform="matrix(0.8209 -0.5711 0.5711 0.8209 -16.4911 15.0218)" class="st0" cx="15.7" cy="33.8" rx="0.1" ry="0.2"/>
					
						<ellipse transform="matrix(0.8209 -0.5711 0.5711 0.8209 -16.4521 14.8439)" class="st0" cx="15.4" cy="33.6" rx="0.1" ry="0.2"/>
					
						<ellipse transform="matrix(0.8209 -0.5711 0.5711 0.8209 -16.4105 14.6692)" class="st0" cx="15.2" cy="33.5" rx="0.1" ry="0.2"/>
					
						<ellipse transform="matrix(0.8209 -0.5711 0.5711 0.8209 -16.3715 14.4914)" class="st0" cx="14.9" cy="33.3" rx="0.1" ry="0.2"/>
				</g>
			</g>
			<g>
				<g>
					
						<ellipse transform="matrix(0.8209 -0.5711 0.5711 0.8209 -16.5664 16.0459)" class="st0" cx="17.3" cy="34.4" rx="0.1" ry="0.2"/>
					<ellipse transform="matrix(0.8209 -0.5711 0.5711 0.8209 -16.5302 15.867)" class="st0" cx="17" cy="34.3" rx="0.1" ry="0.2"/>
					
						<ellipse transform="matrix(0.8209 -0.5711 0.5711 0.8209 -16.4911 15.6892)" class="st0" cx="16.8" cy="34.1" rx="0.1" ry="0.2"/>
					
						<ellipse transform="matrix(0.8209 -0.5711 0.5711 0.8209 -16.4522 15.5113)" class="st0" cx="16.5" cy="34" rx="0.1" ry="0.2"/>
					
						<ellipse transform="matrix(0.8209 -0.5711 0.5711 0.8209 -16.4089 15.328)" class="st0" cx="16.2" cy="33.8" rx="0.1" ry="0.2"/>
					
						<ellipse transform="matrix(0.8209 -0.5711 0.5711 0.8209 -16.3698 15.1502)" class="st0" cx="16" cy="33.7" rx="0.1" ry="0.2"/>
					
						<ellipse transform="matrix(0.8209 -0.5711 0.5711 0.8209 -16.3282 14.9756)" class="st0" cx="15.7" cy="33.5" rx="0.1" ry="0.2"/>
					
						<ellipse transform="matrix(0.8209 -0.5711 0.5711 0.8209 -16.2892 14.7977)" class="st0" cx="15.4" cy="33.4" rx="0.1" ry="0.2"/>
					
						<ellipse transform="matrix(0.8209 -0.5711 0.5711 0.8209 -16.2502 14.6199)" class="st0" cx="15.2" cy="33.2" rx="0.1" ry="0.2"/>
					
						<ellipse transform="matrix(0.8209 -0.5711 0.5711 0.8209 -16.2111 14.442)" class="st0" cx="14.9" cy="33.1" rx="0.1" ry="0.2"/>
				</g>
				<g>
					
						<ellipse transform="matrix(0.8209 -0.5711 0.5711 0.8209 -16.4089 15.9955)" class="st0" cx="17.3" cy="34.2" rx="0.1" ry="0.2"/>
					<ellipse transform="matrix(0.8209 -0.5711 0.5711 0.8209 -16.3699 15.8176)" class="st0" cx="17" cy="34" rx="0.1" ry="0.2"/>
					
						<ellipse transform="matrix(0.8209 -0.5711 0.5711 0.8209 -16.3309 15.6398)" class="st0" cx="16.8" cy="33.9" rx="0.1" ry="0.2"/>
					
						<ellipse transform="matrix(0.8209 -0.5711 0.5711 0.8209 -16.2947 15.461)" class="st0" cx="16.5" cy="33.7" rx="0.1" ry="0.2"/>
					
						<ellipse transform="matrix(0.8209 -0.5711 0.5711 0.8209 -16.2557 15.2831)" class="st0" cx="16.2" cy="33.6" rx="0.1" ry="0.2"/>
					
						<ellipse transform="matrix(0.8209 -0.5711 0.5711 0.8209 -16.2124 15.0998)" class="st0" cx="16" cy="33.4" rx="0.1" ry="0.2"/>
					
						<ellipse transform="matrix(0.8209 -0.5711 0.5711 0.8209 -16.1734 14.9219)" class="st0" cx="15.7" cy="33.2" rx="0.1" ry="0.2"/>
					
						<ellipse transform="matrix(0.8209 -0.5711 0.5711 0.8209 -16.1343 14.7441)" class="st0" cx="15.4" cy="33.1" rx="0.1" ry="0.2"/>
					
						<ellipse transform="matrix(0.8209 -0.5711 0.5711 0.8209 -16.0927 14.5694)" class="st0" cx="15.2" cy="32.9" rx="0.1" ry="0.2"/>
					
						<ellipse transform="matrix(0.8209 -0.5711 0.5711 0.8209 -16.0537 14.3916)" class="st0" cx="14.9" cy="32.8" rx="0.1" ry="0.2"/>
				</g>
			</g>
		</g>
	</g>
</g>
<g>
	
		<image style="display:none;overflow:visible;opacity:0.97;enable-background:new    ;" width="109" height="154" xlink:href="B2AF0CAD69398E3E.png"  transform="matrix(8.505000e-02 0 0 8.523940e-02 5.7258 25.8205)">
	</image>
	<g>
		<g>
			<g>
				
					<ellipse transform="matrix(0.8209 -0.5711 0.5711 0.8209 -18.1693 12.9531)" class="st0" cx="11.6" cy="35.4" rx="0.1" ry="0.2"/>
				
					<ellipse transform="matrix(0.8209 -0.5711 0.5711 0.8209 -18.1331 12.7742)" class="st0" cx="11.3" cy="35.3" rx="0.1" ry="0.2"/>
				<ellipse transform="matrix(0.8209 -0.5711 0.5711 0.8209 -18.0941 12.5964)" class="st0" cx="11" cy="35.1" rx="0.1" ry="0.2"/>
				<ellipse transform="matrix(0.8209 -0.5711 0.5711 0.8209 -18.0551 12.4185)" class="st0" cx="10.8" cy="35" rx="0.1" ry="0.2"/>
				
					<ellipse transform="matrix(0.8209 -0.5711 0.5711 0.8209 -18.0118 12.2352)" class="st0" cx="10.5" cy="34.8" rx="0.1" ry="0.2"/>
				
					<ellipse transform="matrix(0.8209 -0.5711 0.5711 0.8209 -17.9744 12.066)" class="st0" cx="10.2" cy="34.7" rx="0.1" ry="0.2"/>
				<ellipse transform="matrix(0.8209 -0.5711 0.5711 0.8209 -17.9353 11.8882)" class="st0" cx="10" cy="34.5" rx="0.1" ry="0.2"/>
				
					<ellipse transform="matrix(0.8209 -0.5711 0.5711 0.8209 -17.8921 11.7048)" class="st0" cx="9.7" cy="34.4" rx="0.1" ry="0.2"/>
				<ellipse transform="matrix(0.8209 -0.5711 0.5711 0.8209 -17.8531 11.527)" class="st0" cx="9.4" cy="34.2" rx="0.1" ry="0.2"/>
				<ellipse transform="matrix(0.8209 -0.5711 0.5711 0.8209 -17.814 11.3492)" class="st0" cx="9.2" cy="34.1" rx="0.1" ry="0.2"/>
			</g>
			<g>
				
					<ellipse transform="matrix(0.8209 -0.5711 0.5711 0.8209 -18.0118 12.9026)" class="st0" cx="11.6" cy="35.2" rx="0.1" ry="0.2"/>
				<ellipse transform="matrix(0.8209 -0.5711 0.5711 0.8209 -17.9728 12.7248)" class="st0" cx="11.3" cy="35" rx="0.1" ry="0.2"/>
				<ellipse transform="matrix(0.8209 -0.5711 0.5711 0.8209 -17.9338 12.547)" class="st0" cx="11" cy="34.9" rx="0.1" ry="0.2"/>
				
					<ellipse transform="matrix(0.8209 -0.5711 0.5711 0.8209 -17.8976 12.3681)" class="st0" cx="10.8" cy="34.7" rx="0.1" ry="0.2"/>
				
					<ellipse transform="matrix(0.8209 -0.5711 0.5711 0.8209 -17.8586 12.1902)" class="st0" cx="10.5" cy="34.6" rx="0.1" ry="0.2"/>
				
					<ellipse transform="matrix(0.8209 -0.5711 0.5711 0.8209 -17.8196 12.0124)" class="st0" cx="10.2" cy="34.4" rx="0.1" ry="0.2"/>
				<ellipse transform="matrix(0.8209 -0.5711 0.5711 0.8209 -17.7763 11.8291)" class="st0" cx="10" cy="34.3" rx="0.1" ry="0.2"/>
				<path class="st0" d="M9.6,34c0,0,0.1,0,0.2,0.1c0,0.1,0.1,0.2,0,0.2c0,0-0.1,0-0.2-0.1C9.6,34.1,9.6,34,9.6,34z"/>
				
					<ellipse transform="matrix(0.8209 -0.5711 0.5711 0.8209 -17.6957 11.4766)" class="st0" cx="9.4" cy="33.9" rx="0.1" ry="0.2"/>
				
					<ellipse transform="matrix(0.8209 -0.5711 0.5711 0.8209 -17.6566 11.2988)" class="st0" cx="9.2" cy="33.8" rx="0.1" ry="0.2"/>
			</g>
			<g>
				<g>
					
						<ellipse transform="matrix(0.8209 -0.5711 0.5711 0.8209 -17.8586 12.8577)" class="st0" cx="11.6" cy="34.9" rx="0.1" ry="0.2"/>
					
						<ellipse transform="matrix(0.8209 -0.5711 0.5711 0.8209 -17.8153 12.6744)" class="st0" cx="11.3" cy="34.7" rx="0.1" ry="0.2"/>
					
						<ellipse transform="matrix(0.8209 -0.5711 0.5711 0.8209 -17.7763 12.4966)" class="st0" cx="11" cy="34.6" rx="0.1" ry="0.2"/>
					
						<ellipse transform="matrix(0.8209 -0.5711 0.5711 0.8209 -17.7373 12.3187)" class="st0" cx="10.8" cy="34.4" rx="0.1" ry="0.2"/>
					
						<ellipse transform="matrix(0.8209 -0.5711 0.5711 0.8209 -17.694 12.1354)" class="st0" cx="10.5" cy="34.3" rx="0.1" ry="0.2"/>
					
						<ellipse transform="matrix(0.8209 -0.5711 0.5711 0.8209 -17.6567 11.9662)" class="st0" cx="10.2" cy="34.1" rx="0.1" ry="0.2"/>
					<ellipse transform="matrix(0.8209 -0.5711 0.5711 0.8209 -17.6176 11.7884)" class="st0" cx="10" cy="34" rx="0.1" ry="0.2"/>
					
						<ellipse transform="matrix(0.8209 -0.5711 0.5711 0.8209 -17.5743 11.6051)" class="st0" cx="9.7" cy="33.8" rx="0.1" ry="0.2"/>
					
						<ellipse transform="matrix(0.8209 -0.5711 0.5711 0.8209 -17.5353 11.4272)" class="st0" cx="9.4" cy="33.7" rx="0.1" ry="0.2"/>
					
						<ellipse transform="matrix(0.8209 -0.5711 0.5711 0.8209 -17.4992 11.2483)" class="st0" cx="9.2" cy="33.5" rx="0.1" ry="0.2"/>
				</g>
				<g>
					
						<ellipse transform="matrix(0.8209 -0.5711 0.5711 0.8209 -17.6941 12.8028)" class="st0" cx="11.6" cy="34.6" rx="0.1" ry="0.2"/>
					
						<ellipse transform="matrix(0.8209 -0.5711 0.5711 0.8209 -17.655 12.625)" class="st0" cx="11.3" cy="34.5" rx="0.1" ry="0.2"/>
					
						<ellipse transform="matrix(0.8209 -0.5711 0.5711 0.8209 -17.6189 12.4461)" class="st0" cx="11" cy="34.3" rx="0.1" ry="0.2"/>
					
						<ellipse transform="matrix(0.8209 -0.5711 0.5711 0.8209 -17.5798 12.2683)" class="st0" cx="10.8" cy="34.2" rx="0.1" ry="0.2"/>
					
						<ellipse transform="matrix(0.8209 -0.5711 0.5711 0.8209 -17.5409 12.0904)" class="st0" cx="10.5" cy="34" rx="0.1" ry="0.2"/>
					
						<ellipse transform="matrix(0.8209 -0.5711 0.5711 0.8209 -17.5018 11.9126)" class="st0" cx="10.2" cy="33.9" rx="0.1" ry="0.2"/>
					<ellipse transform="matrix(0.8209 -0.5711 0.5711 0.8209 -17.4602 11.738)" class="st0" cx="10" cy="33.7" rx="0.1" ry="0.2"/>
					
						<ellipse transform="matrix(0.8209 -0.5711 0.5711 0.8209 -17.4212 11.5602)" class="st0" cx="9.7" cy="33.6" rx="0.1" ry="0.2"/>
					
						<ellipse transform="matrix(0.8209 -0.5711 0.5711 0.8209 -17.3779 11.3768)" class="st0" cx="9.4" cy="33.4" rx="0.1" ry="0.2"/>
					
						<ellipse transform="matrix(0.8209 -0.5711 0.5711 0.8209 -17.3389 11.199)" class="st0" cx="9.2" cy="33.2" rx="0.1" ry="0.2"/>
				</g>
			</g>
			<g>
				
					<ellipse transform="matrix(0.8209 -0.5711 0.5711 0.8209 -17.529 12.7522)" class="st0" cx="11.6" cy="34.3" rx="0.1" ry="0.2"/>
				<path class="st0" d="M11.2,34c0,0,0.1,0,0.2,0.1c0,0.1,0.1,0.2,0,0.2c0,0-0.1,0-0.2-0.1C11.2,34.1,11.2,34.1,11.2,34z"/>
				<ellipse transform="matrix(0.8209 -0.5711 0.5711 0.8209 -17.451 12.3965)" class="st0" cx="11" cy="34" rx="0.1" ry="0.2"/>
				
					<ellipse transform="matrix(0.8209 -0.5711 0.5711 0.8209 -17.4077 12.2132)" class="st0" cx="10.8" cy="33.9" rx="0.1" ry="0.2"/>
				
					<ellipse transform="matrix(0.8209 -0.5711 0.5711 0.8209 -17.3687 12.0354)" class="st0" cx="10.5" cy="33.7" rx="0.1" ry="0.2"/>
				
					<ellipse transform="matrix(0.8209 -0.5711 0.5711 0.8209 -17.3271 11.8607)" class="st0" cx="10.2" cy="33.6" rx="0.1" ry="0.2"/>
				<ellipse transform="matrix(0.8209 -0.5711 0.5711 0.8209 -17.2881 11.6829)" class="st0" cx="10" cy="33.4" rx="0.1" ry="0.2"/>
				<ellipse transform="matrix(0.8209 -0.5711 0.5711 0.8209 -17.249 11.5051)" class="st0" cx="9.7" cy="33.2" rx="0.1" ry="0.2"/>
				
					<ellipse transform="matrix(0.8209 -0.5711 0.5711 0.8209 -17.2058 11.3218)" class="st0" cx="9.4" cy="33.1" rx="0.1" ry="0.2"/>
				<ellipse transform="matrix(0.8209 -0.5711 0.5711 0.8209 -17.1739 11.1483)" class="st0" cx="9.2" cy="33" rx="0.1" ry="0.2"/>
			</g>
			<g>
				<ellipse transform="matrix(0.8209 -0.5711 0.5711 0.8209 -17.3687 12.7029)" class="st0" cx="11.6" cy="34" rx="0.1" ry="0.2"/>
				
					<ellipse transform="matrix(0.8209 -0.5711 0.5711 0.8209 -17.3297 12.5251)" class="st0" cx="11.3" cy="33.9" rx="0.1" ry="0.2"/>
				<ellipse transform="matrix(0.8209 -0.5711 0.5711 0.8209 -17.2936 12.3461)" class="st0" cx="11" cy="33.7" rx="0.1" ry="0.2"/>
				
					<ellipse transform="matrix(0.8209 -0.5711 0.5711 0.8209 -17.2546 12.1683)" class="st0" cx="10.8" cy="33.6" rx="0.1" ry="0.2"/>
				
					<ellipse transform="matrix(0.8209 -0.5711 0.5711 0.8209 -17.2113 11.985)" class="st0" cx="10.5" cy="33.4" rx="0.1" ry="0.2"/>
				
					<ellipse transform="matrix(0.8209 -0.5711 0.5711 0.8209 -17.1722 11.8072)" class="st0" cx="10.2" cy="33.3" rx="0.1" ry="0.2"/>
				<ellipse transform="matrix(0.8209 -0.5711 0.5711 0.8209 -17.1306 11.6325)" class="st0" cx="10" cy="33.1" rx="0.1" ry="0.2"/>
				<ellipse transform="matrix(0.8209 -0.5711 0.5711 0.8209 -17.0916 11.4546)" class="st0" cx="9.7" cy="33" rx="0.1" ry="0.2"/>
				
					<ellipse transform="matrix(0.8209 -0.5711 0.5711 0.8209 -17.0526 11.2768)" class="st0" cx="9.4" cy="32.8" rx="0.1" ry="0.2"/>
				<ellipse transform="matrix(0.8209 -0.5711 0.5711 0.8209 -17.0136 11.099)" class="st0" cx="9.2" cy="32.7" rx="0.1" ry="0.2"/>
			</g>
			<g>
				<g>
					
						<ellipse transform="matrix(0.8209 -0.5711 0.5711 0.8209 -17.2113 12.6524)" class="st0" cx="11.6" cy="33.8" rx="0.1" ry="0.2"/>
					
						<ellipse transform="matrix(0.8209 -0.5711 0.5711 0.8209 -17.1723 12.4746)" class="st0" cx="11.3" cy="33.6" rx="0.1" ry="0.2"/>
					
						<ellipse transform="matrix(0.8209 -0.5711 0.5711 0.8209 -17.1333 12.2967)" class="st0" cx="11" cy="33.5" rx="0.1" ry="0.2"/>
					
						<ellipse transform="matrix(0.8209 -0.5711 0.5711 0.8209 -17.09 12.1134)" class="st0" cx="10.8" cy="33.3" rx="0.1" ry="0.2"/>
					
						<ellipse transform="matrix(0.8209 -0.5711 0.5711 0.8209 -17.0526 11.9443)" class="st0" cx="10.5" cy="33.2" rx="0.1" ry="0.2"/>
					<ellipse transform="matrix(0.8209 -0.5711 0.5711 0.8209 -17.0093 11.761)" class="st0" cx="10.2" cy="33" rx="0.1" ry="0.2"/>
					
						<ellipse transform="matrix(0.8209 -0.5711 0.5711 0.8209 -16.9703 11.5831)" class="st0" cx="10" cy="32.8" rx="0.1" ry="0.2"/>
					
						<ellipse transform="matrix(0.8209 -0.5711 0.5711 0.8209 -16.9313 11.4053)" class="st0" cx="9.7" cy="32.7" rx="0.1" ry="0.2"/>
					
						<ellipse transform="matrix(0.8209 -0.5711 0.5711 0.8209 -16.8951 11.2264)" class="st0" cx="9.4" cy="32.5" rx="0.1" ry="0.2"/>
					
						<ellipse transform="matrix(0.8209 -0.5711 0.5711 0.8209 -16.8561 11.0486)" class="st0" cx="9.2" cy="32.4" rx="0.1" ry="0.2"/>
				</g>
				<g>
					
						<ellipse transform="matrix(0.8209 -0.5711 0.5711 0.8209 -17.051 12.6031)" class="st0" cx="11.6" cy="33.5" rx="0.1" ry="0.2"/>
					
						<ellipse transform="matrix(0.8209 -0.5711 0.5711 0.8209 -17.0148 12.4242)" class="st0" cx="11.3" cy="33.3" rx="0.1" ry="0.2"/>
					
						<ellipse transform="matrix(0.8209 -0.5711 0.5711 0.8209 -16.9758 12.2463)" class="st0" cx="11" cy="33.2" rx="0.1" ry="0.2"/>
					
						<ellipse transform="matrix(0.8209 -0.5711 0.5711 0.8209 -16.9368 12.0685)" class="st0" cx="10.8" cy="33" rx="0.1" ry="0.2"/>
					
						<ellipse transform="matrix(0.8209 -0.5711 0.5711 0.8209 -16.8935 11.8852)" class="st0" cx="10.5" cy="32.9" rx="0.1" ry="0.2"/>
					
						<ellipse transform="matrix(0.8209 -0.5711 0.5711 0.8209 -16.8545 11.7074)" class="st0" cx="10.2" cy="32.7" rx="0.1" ry="0.2"/>
					
						<ellipse transform="matrix(0.8209 -0.5711 0.5711 0.8209 -16.8129 11.5327)" class="st0" cx="10" cy="32.6" rx="0.1" ry="0.2"/>
					
						<ellipse transform="matrix(0.8209 -0.5711 0.5711 0.8209 -16.7739 11.3548)" class="st0" cx="9.7" cy="32.4" rx="0.1" ry="0.2"/>
					
						<ellipse transform="matrix(0.8209 -0.5711 0.5711 0.8209 -16.7348 11.177)" class="st0" cx="9.4" cy="32.3" rx="0.1" ry="0.2"/>
					
						<ellipse transform="matrix(0.8209 -0.5711 0.5711 0.8209 -16.6958 10.9992)" class="st0" cx="9.2" cy="32.1" rx="0.1" ry="0.2"/>
				</g>
			</g>
			<g>
				
					<ellipse transform="matrix(0.8209 -0.5711 0.5711 0.8209 -16.8938 12.5529)" class="st0" cx="11.6" cy="33.2" rx="0.1" ry="0.2"/>
				
					<ellipse transform="matrix(0.8209 -0.5711 0.5711 0.8209 -16.8548 12.375)" class="st0" cx="11.3" cy="33.1" rx="0.1" ry="0.2"/>
				<ellipse transform="matrix(0.8209 -0.5711 0.5711 0.8209 -16.8157 12.1972)" class="st0" cx="11" cy="32.9" rx="0.1" ry="0.2"/>
				
					<ellipse transform="matrix(0.8209 -0.5711 0.5711 0.8209 -16.7724 12.0139)" class="st0" cx="10.8" cy="32.7" rx="0.1" ry="0.2"/>
				
					<ellipse transform="matrix(0.8209 -0.5711 0.5711 0.8209 -16.7351 11.8447)" class="st0" cx="10.5" cy="32.6" rx="0.1" ry="0.2"/>
				
					<ellipse transform="matrix(0.8209 -0.5711 0.5711 0.8209 -16.6918 11.6614)" class="st0" cx="10.2" cy="32.4" rx="0.1" ry="0.2"/>
				<ellipse transform="matrix(0.8209 -0.5711 0.5711 0.8209 -16.6528 11.4836)" class="st0" cx="10" cy="32.3" rx="0.1" ry="0.2"/>
				
					<ellipse transform="matrix(0.8209 -0.5711 0.5711 0.8209 -16.6138 11.3058)" class="st0" cx="9.7" cy="32.1" rx="0.1" ry="0.2"/>
				<ellipse transform="matrix(0.8209 -0.5711 0.5711 0.8209 -16.5776 11.1269)" class="st0" cx="9.4" cy="32" rx="0.1" ry="0.2"/>
				<ellipse transform="matrix(0.8209 -0.5711 0.5711 0.8209 -16.5386 10.949)" class="st0" cx="9.2" cy="31.8" rx="0.1" ry="0.2"/>
			</g>
			<g>
				
					<ellipse transform="matrix(0.8209 -0.5711 0.5711 0.8209 -16.7334 12.5035)" class="st0" cx="11.6" cy="32.9" rx="0.1" ry="0.2"/>
				
					<ellipse transform="matrix(0.8209 -0.5711 0.5711 0.8209 -16.6973 12.3247)" class="st0" cx="11.3" cy="32.8" rx="0.1" ry="0.2"/>
				<ellipse transform="matrix(0.8209 -0.5711 0.5711 0.8209 -16.6583 12.1468)" class="st0" cx="11" cy="32.6" rx="0.1" ry="0.2"/>
				
					<ellipse transform="matrix(0.8209 -0.5711 0.5711 0.8209 -16.6192 11.969)" class="st0" cx="10.8" cy="32.5" rx="0.1" ry="0.2"/>
				
					<ellipse transform="matrix(0.8209 -0.5711 0.5711 0.8209 -16.576 11.7857)" class="st0" cx="10.5" cy="32.3" rx="0.1" ry="0.2"/>
				
					<ellipse transform="matrix(0.8209 -0.5711 0.5711 0.8209 -16.5369 11.6078)" class="st0" cx="10.2" cy="32.2" rx="0.1" ry="0.2"/>
				<ellipse transform="matrix(0.8209 -0.5711 0.5711 0.8209 -16.4953 11.4331)" class="st0" cx="10" cy="32" rx="0.1" ry="0.2"/>
				
					<ellipse transform="matrix(0.8209 -0.5711 0.5711 0.8209 -16.4563 11.2553)" class="st0" cx="9.7" cy="31.9" rx="0.1" ry="0.2"/>
				
					<ellipse transform="matrix(0.8209 -0.5711 0.5711 0.8209 -16.4173 11.0775)" class="st0" cx="9.4" cy="31.7" rx="0.1" ry="0.2"/>
				
					<ellipse transform="matrix(0.8209 -0.5711 0.5711 0.8209 -16.3783 10.8997)" class="st0" cx="9.2" cy="31.6" rx="0.1" ry="0.2"/>
			</g>
			<g>
				<g>
					
						<ellipse transform="matrix(0.8209 -0.5711 0.5711 0.8209 -16.576 12.4531)" class="st0" cx="11.6" cy="32.7" rx="0.1" ry="0.2"/>
					
						<ellipse transform="matrix(0.8209 -0.5711 0.5711 0.8209 -16.537 12.2753)" class="st0" cx="11.3" cy="32.5" rx="0.1" ry="0.2"/>
					<ellipse transform="matrix(0.8209 -0.5711 0.5711 0.8209 -16.498 12.0974)" class="st0" cx="11" cy="32.3" rx="0.1" ry="0.2"/>
					
						<ellipse transform="matrix(0.8209 -0.5711 0.5711 0.8209 -16.4563 11.9228)" class="st0" cx="10.8" cy="32.2" rx="0.1" ry="0.2"/>
					
						<ellipse transform="matrix(0.8209 -0.5711 0.5711 0.8209 -16.4173 11.7449)" class="st0" cx="10.5" cy="32" rx="0.1" ry="0.2"/>
					
						<ellipse transform="matrix(0.8209 -0.5711 0.5711 0.8209 -16.374 11.5616)" class="st0" cx="10.2" cy="31.9" rx="0.1" ry="0.2"/>
					<ellipse transform="matrix(0.8209 -0.5711 0.5711 0.8209 -16.335 11.3838)" class="st0" cx="10" cy="31.7" rx="0.1" ry="0.2"/>
					
						<ellipse transform="matrix(0.8209 -0.5711 0.5711 0.8209 -16.2989 11.2049)" class="st0" cx="9.7" cy="31.6" rx="0.1" ry="0.2"/>
					
						<ellipse transform="matrix(0.8209 -0.5711 0.5711 0.8209 -16.2598 11.0271)" class="st0" cx="9.4" cy="31.4" rx="0.1" ry="0.2"/>
					
						<ellipse transform="matrix(0.8209 -0.5711 0.5711 0.8209 -16.2208 10.8493)" class="st0" cx="9.2" cy="31.3" rx="0.1" ry="0.2"/>
				</g>
				<g>
					
						<ellipse transform="matrix(0.8209 -0.5711 0.5711 0.8209 -16.4186 12.4027)" class="st0" cx="11.6" cy="32.4" rx="0.1" ry="0.2"/>
					
						<ellipse transform="matrix(0.8209 -0.5711 0.5711 0.8209 -16.3796 12.2249)" class="st0" cx="11.3" cy="32.2" rx="0.1" ry="0.2"/>
					<ellipse transform="matrix(0.8209 -0.5711 0.5711 0.8209 -16.3405 12.047)" class="st0" cx="11" cy="32.1" rx="0.1" ry="0.2"/>
					
						<ellipse transform="matrix(0.8209 -0.5711 0.5711 0.8209 -16.3015 11.8692)" class="st0" cx="10.8" cy="31.9" rx="0.1" ry="0.2"/>
					
						<ellipse transform="matrix(0.8209 -0.5711 0.5711 0.8209 -16.2583 11.6859)" class="st0" cx="10.5" cy="31.8" rx="0.1" ry="0.2"/>
					
						<ellipse transform="matrix(0.8209 -0.5711 0.5711 0.8209 -16.2208 11.5167)" class="st0" cx="10.2" cy="31.6" rx="0.1" ry="0.2"/>
					
						<ellipse transform="matrix(0.8209 -0.5711 0.5711 0.8209 -16.1776 11.3333)" class="st0" cx="10" cy="31.5" rx="0.1" ry="0.2"/>
					
						<ellipse transform="matrix(0.8209 -0.5711 0.5711 0.8209 -16.1386 11.1555)" class="st0" cx="9.7" cy="31.3" rx="0.1" ry="0.2"/>
					
						<ellipse transform="matrix(0.8209 -0.5711 0.5711 0.8209 -16.0995 10.9777)" class="st0" cx="9.4" cy="31.2" rx="0.1" ry="0.2"/>
					<ellipse transform="matrix(0.8209 -0.5711 0.5711 0.8209 -16.0634 10.7988)" class="st0" cx="9.2" cy="31" rx="0.1" ry="0.2"/>
				</g>
			</g>
			<g>
				
					<ellipse transform="matrix(0.8209 -0.5711 0.5711 0.8209 -16.2507 12.3531)" class="st0" cx="11.6" cy="32.1" rx="0.1" ry="0.2"/>
				
					<ellipse transform="matrix(0.8209 -0.5711 0.5711 0.8209 -16.2075 12.1698)" class="st0" cx="11.3" cy="31.9" rx="0.1" ry="0.2"/>
				<ellipse transform="matrix(0.8209 -0.5711 0.5711 0.8209 -16.1684 11.992)" class="st0" cx="11" cy="31.8" rx="0.1" ry="0.2"/>
				
					<ellipse transform="matrix(0.8209 -0.5711 0.5711 0.8209 -16.1268 11.8173)" class="st0" cx="10.8" cy="31.6" rx="0.1" ry="0.2"/>
				
					<ellipse transform="matrix(0.8209 -0.5711 0.5711 0.8209 -16.0878 11.6394)" class="st0" cx="10.5" cy="31.5" rx="0.1" ry="0.2"/>
				
					<ellipse transform="matrix(0.8209 -0.5711 0.5711 0.8209 -16.0487 11.4616)" class="st0" cx="10.2" cy="31.3" rx="0.1" ry="0.2"/>
				<ellipse transform="matrix(0.8209 -0.5711 0.5711 0.8209 -16.0097 11.2838)" class="st0" cx="10" cy="31.2" rx="0.1" ry="0.2"/>
				<ellipse transform="matrix(0.8209 -0.5711 0.5711 0.8209 -15.9736 11.1049)" class="st0" cx="9.7" cy="31" rx="0.1" ry="0.2"/>
				
					<ellipse transform="matrix(0.8209 -0.5711 0.5711 0.8209 -15.9346 10.9271)" class="st0" cx="9.5" cy="30.9" rx="0.1" ry="0.2"/>
				
					<ellipse transform="matrix(0.8209 -0.5711 0.5711 0.8209 -15.8913 10.7438)" class="st0" cx="9.2" cy="30.7" rx="0.1" ry="0.2"/>
			</g>
			<g>
				
					<ellipse transform="matrix(0.8209 -0.5711 0.5711 0.8209 -16.0933 12.3027)" class="st0" cx="11.6" cy="31.8" rx="0.1" ry="0.2"/>
				
					<ellipse transform="matrix(0.8209 -0.5711 0.5711 0.8209 -16.0543 12.1248)" class="st0" cx="11.3" cy="31.7" rx="0.1" ry="0.2"/>
				<ellipse transform="matrix(0.8209 -0.5711 0.5711 0.8209 -16.011 11.9415)" class="st0" cx="11" cy="31.5" rx="0.1" ry="0.2"/>
				
					<ellipse transform="matrix(0.8209 -0.5711 0.5711 0.8209 -15.972 11.7637)" class="st0" cx="10.8" cy="31.3" rx="0.1" ry="0.2"/>
				
					<ellipse transform="matrix(0.8209 -0.5711 0.5711 0.8209 -15.9329 11.5858)" class="st0" cx="10.5" cy="31.2" rx="0.1" ry="0.2"/>
				<ellipse transform="matrix(0.8209 -0.5711 0.5711 0.8209 -15.8913 11.4112)" class="st0" cx="10.2" cy="31" rx="0.1" ry="0.2"/>
				<ellipse transform="matrix(0.8209 -0.5711 0.5711 0.8209 -15.8523 11.2334)" class="st0" cx="10" cy="30.9" rx="0.1" ry="0.2"/>
				
					<ellipse transform="matrix(0.8209 -0.5711 0.5711 0.8209 -15.8133 11.0555)" class="st0" cx="9.7" cy="30.7" rx="0.1" ry="0.2"/>
				<ellipse transform="matrix(0.8209 -0.5711 0.5711 0.8209 -15.77 10.8722)" class="st0" cx="9.4" cy="30.6" rx="0.1" ry="0.2"/>
				
					<ellipse transform="matrix(0.8209 -0.5711 0.5711 0.8209 -15.7381 10.6988)" class="st0" cx="9.2" cy="30.4" rx="0.1" ry="0.2"/>
			</g>
			<g>
				<g>
					
						<ellipse transform="matrix(0.8209 -0.5711 0.5711 0.8209 -15.933 12.2533)" class="st0" cx="11.6" cy="31.5" rx="0.1" ry="0.2"/>
					
						<ellipse transform="matrix(0.8209 -0.5711 0.5711 0.8209 -15.8897 12.07)" class="st0" cx="11.3" cy="31.4" rx="0.1" ry="0.2"/>
					
						<ellipse transform="matrix(0.8209 -0.5711 0.5711 0.8209 -15.8578 11.8966)" class="st0" cx="11" cy="31.2" rx="0.1" ry="0.2"/>
					
						<ellipse transform="matrix(0.8209 -0.5711 0.5711 0.8209 -15.8146 11.7133)" class="st0" cx="10.8" cy="31.1" rx="0.1" ry="0.2"/>
					
						<ellipse transform="matrix(0.8209 -0.5711 0.5711 0.8209 -15.7755 11.5354)" class="st0" cx="10.5" cy="30.9" rx="0.1" ry="0.2"/>
					
						<ellipse transform="matrix(0.8209 -0.5711 0.5711 0.8209 -15.7365 11.3576)" class="st0" cx="10.2" cy="30.8" rx="0.1" ry="0.2"/>
					
						<ellipse transform="matrix(0.8209 -0.5711 0.5711 0.8209 -15.6974 11.1798)" class="st0" cx="10" cy="30.6" rx="0.1" ry="0.2"/>
					
						<ellipse transform="matrix(0.8209 -0.5711 0.5711 0.8209 -15.6558 11.0051)" class="st0" cx="9.7" cy="30.5" rx="0.1" ry="0.2"/>
					
						<ellipse transform="matrix(0.8209 -0.5711 0.5711 0.8209 -15.6168 10.8273)" class="st0" cx="9.5" cy="30.3" rx="0.1" ry="0.2"/>
					
						<ellipse transform="matrix(0.8209 -0.5711 0.5711 0.8209 -15.5735 10.6439)" class="st0" cx="9.2" cy="30.1" rx="0.1" ry="0.2"/>
				</g>
				<g>
					
						<ellipse transform="matrix(0.8209 -0.5711 0.5711 0.8209 -15.7756 12.2029)" class="st0" cx="11.6" cy="31.2" rx="0.1" ry="0.2"/>
					
						<ellipse transform="matrix(0.8209 -0.5711 0.5711 0.8209 -15.7365 12.025)" class="st0" cx="11.3" cy="31.1" rx="0.1" ry="0.2"/>
					
						<ellipse transform="matrix(0.8209 -0.5711 0.5711 0.8209 -15.6933 11.8417)" class="st0" cx="11" cy="30.9" rx="0.1" ry="0.2"/>
					
						<ellipse transform="matrix(0.8209 -0.5711 0.5711 0.8209 -15.6543 11.6639)" class="st0" cx="10.8" cy="30.8" rx="0.1" ry="0.2"/>
					
						<ellipse transform="matrix(0.8209 -0.5711 0.5711 0.8209 -15.6126 11.4892)" class="st0" cx="10.5" cy="30.6" rx="0.1" ry="0.2"/>
					
						<ellipse transform="matrix(0.8209 -0.5711 0.5711 0.8209 -15.5736 11.3114)" class="st0" cx="10.2" cy="30.5" rx="0.1" ry="0.2"/>
					
						<ellipse transform="matrix(0.8209 -0.5711 0.5711 0.8209 -15.5345 11.1336)" class="st0" cx="10" cy="30.3" rx="0.1" ry="0.2"/>
					
						<ellipse transform="matrix(0.8209 -0.5711 0.5711 0.8209 -15.4955 10.9558)" class="st0" cx="9.7" cy="30.2" rx="0.1" ry="0.2"/>
					<ellipse transform="matrix(0.8209 -0.5711 0.5711 0.8209 -15.4594 10.7768)" class="st0" cx="9.4" cy="30" rx="0.1" ry="0.2"/>
					
						<ellipse transform="matrix(0.8209 -0.5711 0.5711 0.8209 -15.4203 10.599)" class="st0" cx="9.2" cy="29.9" rx="0.1" ry="0.2"/>
				</g>
			</g>
			<g>
				<g>
					
						<ellipse transform="matrix(0.8209 -0.5711 0.5711 0.8209 -15.6153 12.1536)" class="st0" cx="11.6" cy="31" rx="0.1" ry="0.2"/>
					
						<ellipse transform="matrix(0.8209 -0.5711 0.5711 0.8209 -15.5791 11.9746)" class="st0" cx="11.3" cy="30.8" rx="0.1" ry="0.2"/>
					
						<ellipse transform="matrix(0.8209 -0.5711 0.5711 0.8209 -15.5401 11.7968)" class="st0" cx="11" cy="30.7" rx="0.1" ry="0.2"/>
					
						<ellipse transform="matrix(0.8209 -0.5711 0.5711 0.8209 -15.4968 11.6135)" class="st0" cx="10.8" cy="30.5" rx="0.1" ry="0.2"/>
					
						<ellipse transform="matrix(0.8209 -0.5711 0.5711 0.8209 -15.4578 11.4356)" class="st0" cx="10.5" cy="30.4" rx="0.1" ry="0.2"/>
					
						<ellipse transform="matrix(0.8209 -0.5711 0.5711 0.8209 -15.4188 11.2578)" class="st0" cx="10.2" cy="30.2" rx="0.1" ry="0.2"/>
					
						<ellipse transform="matrix(0.8209 -0.5711 0.5711 0.8209 -15.3771 11.0831)" class="st0" cx="10" cy="30.1" rx="0.1" ry="0.2"/>
					
						<ellipse transform="matrix(0.8209 -0.5711 0.5711 0.8209 -15.3381 10.9053)" class="st0" cx="9.7" cy="29.9" rx="0.1" ry="0.2"/>
					
						<ellipse transform="matrix(0.8209 -0.5711 0.5711 0.8209 -15.2991 10.7275)" class="st0" cx="9.5" cy="29.8" rx="0.1" ry="0.2"/>
					
						<ellipse transform="matrix(0.8209 -0.5711 0.5711 0.8209 -15.2558 10.5441)" class="st0" cx="9.2" cy="29.6" rx="0.1" ry="0.2"/>
				</g>
				<g>
					
						<ellipse transform="matrix(0.8209 -0.5711 0.5711 0.8209 -15.4578 12.1031)" class="st0" cx="11.6" cy="30.7" rx="0.1" ry="0.2"/>
					
						<ellipse transform="matrix(0.8209 -0.5711 0.5711 0.8209 -15.4188 11.9252)" class="st0" cx="11.3" cy="30.5" rx="0.1" ry="0.2"/>
					
						<ellipse transform="matrix(0.8209 -0.5711 0.5711 0.8209 -15.3755 11.7419)" class="st0" cx="11" cy="30.4" rx="0.1" ry="0.2"/>
					
						<ellipse transform="matrix(0.8209 -0.5711 0.5711 0.8209 -15.3381 11.5728)" class="st0" cx="10.8" cy="30.2" rx="0.1" ry="0.2"/>
					
						<ellipse transform="matrix(0.8209 -0.5711 0.5711 0.8209 -15.2949 11.3895)" class="st0" cx="10.5" cy="30.1" rx="0.1" ry="0.2"/>
					
						<ellipse transform="matrix(0.8209 -0.5711 0.5711 0.8209 -15.2559 11.2116)" class="st0" cx="10.2" cy="29.9" rx="0.1" ry="0.2"/>
					
						<ellipse transform="matrix(0.8209 -0.5711 0.5711 0.8209 -15.2168 11.0338)" class="st0" cx="10" cy="29.8" rx="0.1" ry="0.2"/>
					
						<ellipse transform="matrix(0.8209 -0.5711 0.5711 0.8209 -15.1778 10.856)" class="st0" cx="9.7" cy="29.6" rx="0.1" ry="0.2"/>
					
						<ellipse transform="matrix(0.8209 -0.5711 0.5711 0.8209 -15.1417 10.6771)" class="st0" cx="9.4" cy="29.5" rx="0.1" ry="0.2"/>
					
						<ellipse transform="matrix(0.8209 -0.5711 0.5711 0.8209 -15.1026 10.4992)" class="st0" cx="9.2" cy="29.3" rx="0.1" ry="0.2"/>
				</g>
			</g>
		</g>
	</g>
</g>
</svg>
