<svg width="28" height="28" viewBox="0 0 28 28" fill="none" xmlns="http://www.w3.org/2000/svg">
<path d="M12.0352 12.543V11.0076C12.0352 9.92264 12.9148 9.04297 13.9998 9.04297C15.0848 9.04297 15.9645 9.92264 15.9645 11.0076V12.543" stroke="#9D9D9D" stroke-width="1.5" stroke-linecap="round" stroke-linejoin="round"/>
<path fill-rule="evenodd" clip-rule="evenodd" d="M16.3333 18.3763H11.6667C11.0227 18.3763 10.5 17.8536 10.5 17.2096V13.7096C10.5 13.0656 11.0227 12.543 11.6667 12.543H16.3333C16.9773 12.543 17.5 13.0656 17.5 13.7096V17.2096C17.5 17.8536 16.9773 18.3763 16.3333 18.3763Z" stroke="#9D9D9D" stroke-width="1.5" stroke-linecap="round" stroke-linejoin="round"/>
<path d="M4.48047 5.55859V8.74709H7.67014" stroke="#9D9D9D" stroke-width="1.5" stroke-linecap="round" stroke-linejoin="round"/>
<path d="M23.0935 8.75583C21.277 5.61633 17.8901 3.5 14.0028 3.5C10.119 3.5 6.73564 5.614 4.91797 8.74883" stroke="#9D9D9D" stroke-width="1.5" stroke-linecap="round" stroke-linejoin="round"/>
<path d="M24.4134 12.6875C24.6969 14.8855 24.2956 17.1885 23.1009 19.257C21.1572 22.624 17.6304 24.4977 14.0032 24.5012L13.9962 24.4953C10.3691 24.4918 6.84223 22.6182 4.89856 19.2512C3.70506 17.185 3.3049 14.8832 3.58606 12.6875" stroke="#9D9D9D" stroke-width="1.5" stroke-linecap="round" stroke-linejoin="round"/>
</svg>
