<svg width="25" height="24" viewBox="0 0 25 24" fill="none" xmlns="http://www.w3.org/2000/svg">
<path fill-rule="evenodd" clip-rule="evenodd" d="M14.663 21.0001L19.107 20.0121C19.921 19.8321 20.5 19.1101 20.5 18.2771V5.76614C20.5 4.93314 19.921 4.21114 19.108 4.03114L14.664 3.04314C13.553 2.79614 12.5 3.64114 12.5 4.77914V19.2651C12.5 20.4021 13.553 21.2471 14.663 21.0001V21.0001Z" stroke="#FCFCFC" stroke-width="1.5" stroke-linecap="round" stroke-linejoin="round"/>
<path d="M15.5 10.98V12.98" stroke="#FCFCFC" stroke-width="1.5" stroke-linecap="round" stroke-linejoin="round"/>
<path d="M4.5 16V18.042C4.5 19.147 5.395 20.042 6.5 20.042H9.5" stroke="#FCFCFC" stroke-width="1.5" stroke-linecap="round" stroke-linejoin="round"/>
<path d="M4.5 8V6C4.5 4.895 5.395 4 6.5 4H9.5" stroke="#FCFCFC" stroke-width="1.5" stroke-linecap="round" stroke-linejoin="round"/>
<path d="M4.5 12H9.5" stroke="#FCFCFC" stroke-width="1.5" stroke-linecap="round" stroke-linejoin="round"/>
<path d="M7.5 14L9.5 12L7.5 10" stroke="#FCFCFC" stroke-width="1.5" stroke-linecap="round" stroke-linejoin="round"/>
</svg>
