<svg width="48" height="48" viewBox="0 0 48 48" fill="none" xmlns="http://www.w3.org/2000/svg">
<path fill-rule="evenodd" clip-rule="evenodd" d="M28.668 31V31C27.702 31 26.918 30.216 26.918 29.25V18.75C26.918 17.784 27.702 17 28.668 17V17C29.634 17 30.418 17.784 30.418 18.75V29.25C30.418 30.216 29.634 31 28.668 31Z" fill="#171C26" stroke="#171C26" stroke-linecap="round" stroke-linejoin="round"/>
<path fill-rule="evenodd" clip-rule="evenodd" d="M19.332 31V31C18.366 31 17.582 30.216 17.582 29.25V18.75C17.582 17.784 18.366 17 19.332 17V17C20.298 17 21.082 17.784 21.082 18.75V29.25C21.082 30.216 20.298 31 19.332 31Z" fill="#171C26" stroke="#171C26" stroke-linecap="round" stroke-linejoin="round"/>
</svg>
