<svg width="28" height="28" viewBox="0 0 28 28" fill="none" xmlns="http://www.w3.org/2000/svg">
<path d="M7 7.0013H21" stroke="#FF8800" stroke-width="1.5" stroke-linecap="round" stroke-linejoin="round"/>
<path d="M9.33203 3.5013H18.6654" stroke="#FF8800" stroke-width="1.5" stroke-linecap="round" stroke-linejoin="round"/>
<path fill-rule="evenodd" clip-rule="evenodd" d="M13.1349 15.2503L16.3048 17.1252C16.7061 17.362 16.7061 17.943 16.3048 18.1798L13.1349 20.0547C12.7266 20.2962 12.2109 20.0022 12.2109 19.5273V15.7788C12.2098 15.3028 12.7266 15.0088 13.1349 15.2503V15.2503Z" stroke="#FF8800" stroke-width="1.5" stroke-linecap="round" stroke-linejoin="round"/>
<path fill-rule="evenodd" clip-rule="evenodd" d="M22.1667 24.5H5.83333C4.54417 24.5 3.5 23.4558 3.5 22.1667V12.8333C3.5 11.5442 4.54417 10.5 5.83333 10.5H22.1667C23.4558 10.5 24.5 11.5442 24.5 12.8333V22.1667C24.5 23.4558 23.4558 24.5 22.1667 24.5Z" stroke="#FF8800" stroke-width="1.5" stroke-linecap="round" stroke-linejoin="round"/>
</svg>
