<?xml version="1.0" encoding="utf-8"?>
<!-- Generator: Adobe Illustrator 28.0.0, SVG Export Plug-In . SVG Version: 6.00 Build 0)  -->
<svg version="1.1" id="Layer_1" xmlns="http://www.w3.org/2000/svg" xmlns:xlink="http://www.w3.org/1999/xlink" x="0px" y="0px"
	 viewBox="0 0 124 50" style="enable-background:new 0 0 124 50;" xml:space="preserve">
<style type="text/css">
	.st0{fill:#FF8800;}
	.st1{fill:#FFFFFF;}
	.st2{fill:url(#SVGID_1_);stroke:url(#SVGID_00000061440208923592729340000005445433937149463982_);stroke-miterlimit:10;}
	.st3{fill:#F37A20;}
</style>
<g>
	<path class="st0" d="M63.7,18.1c1.2,0.7,2.2,1.6,2.9,2.8c0.7,1.2,1,2.6,1,4.1c0,1.5-0.3,2.9-1,4.1c-0.7,1.2-1.6,2.1-2.9,2.8
		s-2.7,1-4.3,1h-6.2V17.1h6.2C61,17.1,62.5,17.4,63.7,18.1z M62.1,28c0.7-0.7,1.1-1.7,1.1-3c0-1.3-0.4-2.3-1.1-3
		c-0.7-0.7-1.7-1.1-3-1.1h-1.5v8.1H59C60.3,29.1,61.3,28.7,62.1,28z"/>
	<path class="st0" d="M84.2,32.9h-4.4L74,24.1v8.8h-4.4V17.1H74l5.8,8.9v-8.9h4.4L84.2,32.9L84.2,32.9z"/>
	<path class="st0" d="M87.2,20.8c0.7-1.2,1.6-2.2,2.8-2.8c1.2-0.7,2.6-1,4.1-1c2,0,3.6,0.5,5,1.6c1.3,1,2.2,2.5,2.6,4.3h-4.7
		c-0.3-0.6-0.7-1-1.2-1.3S94.7,21,94,21c-1,0-1.8,0.4-2.4,1.1c-0.6,0.7-0.9,1.7-0.9,2.9s0.3,2.2,0.9,2.9C92.2,28.6,93,29,94,29
		c0.7,0,1.2-0.2,1.7-0.5s0.9-0.8,1.2-1.3h4.7c-0.4,1.8-1.3,3.2-2.6,4.3c-1.3,1.1-3,1.6-5,1.6c-1.6,0-2.9-0.3-4.1-1
		c-1.2-0.7-2.1-1.6-2.8-2.8c-0.7-1.2-1-2.6-1-4.2C86.2,23.4,86.5,22,87.2,20.8z"/>
	<path class="st0" d="M113.1,32.9l-4.9-6.9v6.9h-4.4V17.1h4.4v6.8l4.9-6.8h5.1l-5.8,7.7l6.1,8.1L113.1,32.9L113.1,32.9z"/>
</g>
<g>
	<path class="st1" d="M37.7,19.1L37.7,19.1c-1.3-1.2-1-4-0.6-5.9c0.2-0.9-0.6-1.5-1.3-1.3c-4.6,2.7-11,12.8-13.3,16.9
		c-0.1,0.2-0.3,0.3-0.5,0.3c-0.1,0-0.2,0-0.3-0.1c-0.3-0.2-0.4-0.5-0.2-0.8c0,0,2.5-4.3,5.5-8.6c1.3-1.8,2.5-3.3,3.6-4.6l-7.5-4.3
		c0,0-0.1,0-0.1-0.1l0,0c-1.3-1.2-1.8-4.8-1.4-6.7c0.2-1-0.9-1.7-1.8-1.1c-8.4,6.3-14,16.5-14,16.5l0,0c-0.1,0.2-0.2,0.5-0.2,0.8
		v0.2v0.7v16c0,0.8,0.4,1.6,1.1,1.9l12.8,7.3l0,0l1,0.6c0.8,0.5,1.8,0.5,2.6,0l1-0.6c0.1,0,0.2-0.1,0.2-0.1l13.1-7.8
		c0.5-0.3,0.8-0.8,0.8-1.4V22.8V22v-1.4C38.3,20,38.1,19.5,37.7,19.1z"/>
	
		<radialGradient id="SVGID_1_" cx="13.4102" cy="-42.4264" r="11.1191" gradientTransform="matrix(1 0 0 1 0 76)" gradientUnits="userSpaceOnUse">
		<stop  offset="0" style="stop-color:#14151D"/>
		<stop  offset="0.5985" style="stop-color:#13131B"/>
		<stop  offset="1" style="stop-color:#0E0E12"/>
	</radialGradient>
	
		<radialGradient id="SVGID_00000083801413191570468750000003781384384915064714_" cx="13.4102" cy="-42.4264" r="9.2929" gradientTransform="matrix(1 0 0 1 0 76)" gradientUnits="userSpaceOnUse">
		<stop  offset="0" style="stop-color:#14151D"/>
		<stop  offset="0.5985" style="stop-color:#13131B"/>
		<stop  offset="1" style="stop-color:#0E0E12"/>
	</radialGradient>
	
		<path style="fill:url(#SVGID_1_);stroke:url(#SVGID_00000083801413191570468750000003781384384915064714_);stroke-miterlimit:10;" d="
		M19.2,44.2c0.3,0.1,0.6-0.1,0.6-0.4V43V30.9c0-0.6-0.3-1.1-0.8-1.3L7.8,22.9C7.4,22.8,7,23,7,23.4v13c0,0.6,0.3,1.2,0.9,1.5l10.5,6
		L19.2,44.2z"/>
	<g>
		
			<image style="overflow:visible;opacity:0.97;enable-background:new    ;" width="110" height="155" xlink:href="B2AF0CAD69398E38.png"  transform="matrix(8.260000e-02 0 0 8.260000e-02 5.908 25.9936)">
		</image>
		<g>
			<g>
				<g>
					
						<ellipse transform="matrix(0.8198 -0.5727 0.5727 0.8198 -18.1684 13.0381)" class="st3" cx="11.6" cy="35.4" rx="0.1" ry="0.2"/>
					
						<ellipse transform="matrix(0.8198 -0.5727 0.5727 0.8198 -18.1301 12.8623)" class="st3" cx="11.4" cy="35.2" rx="0.1" ry="0.2"/>
					
						<ellipse transform="matrix(0.8198 -0.5727 0.5727 0.8198 -18.0934 12.6938)" class="st3" cx="11.1" cy="35.1" rx="0.1" ry="0.2"/>
					
						<ellipse transform="matrix(0.8198 -0.5727 0.5727 0.8198 -18.0551 12.518)" class="st3" cx="10.9" cy="34.9" rx="0.1" ry="0.2"/>
					
						<ellipse transform="matrix(0.8198 -0.5727 0.5727 0.8198 -18.0168 12.3421)" class="st3" cx="10.6" cy="34.8" rx="0.1" ry="0.2"/>
					
						<ellipse transform="matrix(0.8198 -0.5727 0.5727 0.8198 -17.9785 12.1663)" class="st3" cx="10.3" cy="34.6" rx="0.1" ry="0.2"/>
					
						<ellipse transform="matrix(0.8198 -0.5727 0.5727 0.8198 -17.9401 11.9904)" class="st3" cx="10.1" cy="34.5" rx="0.1" ry="0.2"/>
					
						<ellipse transform="matrix(0.8198 -0.5727 0.5727 0.8198 -17.9035 11.822)" class="st3" cx="9.8" cy="34.4" rx="0.1" ry="0.2"/>
					
						<ellipse transform="matrix(0.8198 -0.5727 0.5727 0.8198 -17.8652 11.6461)" class="st3" cx="9.6" cy="34.2" rx="0.1" ry="0.2"/>
					
						<ellipse transform="matrix(0.8198 -0.5727 0.5727 0.8198 -17.8269 11.4703)" class="st3" cx="9.3" cy="34.1" rx="0.1" ry="0.2"/>
				</g>
				<g>
					
						<ellipse transform="matrix(0.8198 -0.5727 0.5727 0.8198 -18.0152 12.9887)" class="st3" cx="11.6" cy="35.1" rx="0.1" ry="0.2"/>
					
						<ellipse transform="matrix(0.8198 -0.5727 0.5727 0.8198 -17.9805 12.8176)" class="st3" cx="11.4" cy="35" rx="0.1" ry="0.2"/>
					
						<ellipse transform="matrix(0.8198 -0.5727 0.5727 0.8198 -17.9422 12.6417)" class="st3" cx="11.1" cy="34.8" rx="0.1" ry="0.2"/>
					
						<ellipse transform="matrix(0.8198 -0.5727 0.5727 0.8198 -17.8991 12.4696)" class="st3" cx="10.9" cy="34.7" rx="0.1" ry="0.2"/>
					
						<ellipse transform="matrix(0.8198 -0.5727 0.5727 0.8198 -17.8672 12.2974)" class="st3" cx="10.6" cy="34.5" rx="0.1" ry="0.2"/>
					
						<ellipse transform="matrix(0.8198 -0.5727 0.5727 0.8198 -17.8289 12.1216)" class="st3" cx="10.3" cy="34.4" rx="0.1" ry="0.2"/>
					
						<ellipse transform="matrix(0.8198 -0.5727 0.5727 0.8198 -17.7858 11.9494)" class="st3" cx="10.1" cy="34.2" rx="0.1" ry="0.2"/>
					
						<ellipse transform="matrix(0.8198 -0.5727 0.5727 0.8198 -17.7475 11.7735)" class="st3" cx="9.8" cy="34.1" rx="0.1" ry="0.2"/>
					
						<ellipse transform="matrix(0.8198 -0.5727 0.5727 0.8198 -17.7091 11.5977)" class="st3" cx="9.6" cy="33.9" rx="0.1" ry="0.2"/>
					
						<ellipse transform="matrix(0.8198 -0.5727 0.5727 0.8198 -17.6725 11.4292)" class="st3" cx="9.3" cy="33.8" rx="0.1" ry="0.2"/>
				</g>
				<g>
					<g>
						
							<ellipse transform="matrix(0.8198 -0.5727 0.5727 0.8198 -17.8591 12.9403)" class="st3" cx="11.6" cy="34.8" rx="0.1" ry="0.2"/>
						
							<ellipse transform="matrix(0.8198 -0.5727 0.5727 0.8198 -17.8208 12.7645)" class="st3" cx="11.4" cy="34.7" rx="0.1" ry="0.2"/>
						
							<ellipse transform="matrix(0.8198 -0.5727 0.5727 0.8198 -17.7842 12.596)" class="st3" cx="11.1" cy="34.6" rx="0.1" ry="0.2"/>
						
							<ellipse transform="matrix(0.8198 -0.5727 0.5727 0.8198 -17.7459 12.4202)" class="st3" cx="10.9" cy="34.4" rx="0.1" ry="0.2"/>
						
							<ellipse transform="matrix(0.8198 -0.5727 0.5727 0.8198 -17.7075 12.2443)" class="st3" cx="10.6" cy="34.3" rx="0.1" ry="0.2"/>
						
							<ellipse transform="matrix(0.8198 -0.5727 0.5727 0.8198 -17.6692 12.0684)" class="st3" cx="10.3" cy="34.1" rx="0.1" ry="0.2"/>
						<ellipse transform="matrix(0.8198 -0.5727 0.5727 0.8198 -17.6325 11.9)" class="st3" cx="10.1" cy="34" rx="0.1" ry="0.2"/>
						
							<ellipse transform="matrix(0.8198 -0.5727 0.5727 0.8198 -17.5943 11.7241)" class="st3" cx="9.8" cy="33.8" rx="0.1" ry="0.2"/>
						
							<ellipse transform="matrix(0.8198 -0.5727 0.5727 0.8198 -17.5559 11.5483)" class="st3" cx="9.6" cy="33.7" rx="0.1" ry="0.2"/>
						
							<ellipse transform="matrix(0.8198 -0.5727 0.5727 0.8198 -17.5176 11.3724)" class="st3" cx="9.3" cy="33.5" rx="0.1" ry="0.2"/>
					</g>
					<g>
						
							<ellipse transform="matrix(0.8198 -0.5727 0.5727 0.8198 -17.7096 12.8957)" class="st3" cx="11.6" cy="34.6" rx="0.1" ry="0.2"/>
						
							<ellipse transform="matrix(0.8198 -0.5727 0.5727 0.8198 -17.6712 12.7198)" class="st3" cx="11.4" cy="34.4" rx="0.1" ry="0.2"/>
						
							<ellipse transform="matrix(0.8198 -0.5727 0.5727 0.8198 -17.6329 12.5439)" class="st3" cx="11.1" cy="34.3" rx="0.1" ry="0.2"/>
						
							<ellipse transform="matrix(0.8198 -0.5727 0.5727 0.8198 -17.5898 12.3717)" class="st3" cx="10.9" cy="34.1" rx="0.1" ry="0.2"/>
						
							<ellipse transform="matrix(0.8198 -0.5727 0.5727 0.8198 -17.558 12.1996)" class="st3" cx="10.6" cy="34" rx="0.1" ry="0.2"/>
						
							<ellipse transform="matrix(0.8198 -0.5727 0.5727 0.8198 -17.5196 12.0237)" class="st3" cx="10.3" cy="33.8" rx="0.1" ry="0.2"/>
						
							<ellipse transform="matrix(0.8198 -0.5727 0.5727 0.8198 -17.4765 11.8516)" class="st3" cx="10.1" cy="33.7" rx="0.1" ry="0.2"/>
						
							<ellipse transform="matrix(0.8198 -0.5727 0.5727 0.8198 -17.4382 11.6757)" class="st3" cx="9.8" cy="33.5" rx="0.1" ry="0.2"/>
						
							<ellipse transform="matrix(0.8198 -0.5727 0.5727 0.8198 -17.4063 11.5036)" class="st3" cx="9.6" cy="33.4" rx="0.1" ry="0.2"/>
						
							<ellipse transform="matrix(0.8198 -0.5727 0.5727 0.8198 -17.3632 11.3314)" class="st3" cx="9.3" cy="33.3" rx="0.1" ry="0.2"/>
					</g>
				</g>
				<g>
					
						<ellipse transform="matrix(0.8198 -0.5727 0.5727 0.8198 -17.5429 12.8429)" class="st3" cx="11.6" cy="34.3" rx="0.1" ry="0.2"/>
					
						<ellipse transform="matrix(0.8198 -0.5727 0.5727 0.8198 -17.5046 12.667)" class="st3" cx="11.4" cy="34.1" rx="0.1" ry="0.2"/>
					
						<ellipse transform="matrix(0.8198 -0.5727 0.5727 0.8198 -17.4644 12.4938)" class="st3" cx="11.1" cy="34" rx="0.1" ry="0.2"/>
					
						<ellipse transform="matrix(0.8198 -0.5727 0.5727 0.8198 -17.4297 12.3227)" class="st3" cx="10.9" cy="33.9" rx="0.1" ry="0.2"/>
					
						<ellipse transform="matrix(0.8198 -0.5727 0.5727 0.8198 -17.3913 12.1468)" class="st3" cx="10.6" cy="33.7" rx="0.1" ry="0.2"/>
					
						<ellipse transform="matrix(0.8198 -0.5727 0.5727 0.8198 -17.353 11.971)" class="st3" cx="10.3" cy="33.6" rx="0.1" ry="0.2"/>
					
						<ellipse transform="matrix(0.8198 -0.5727 0.5727 0.8198 -17.3164 11.8025)" class="st3" cx="10.1" cy="33.4" rx="0.1" ry="0.2"/>
					
						<ellipse transform="matrix(0.8198 -0.5727 0.5727 0.8198 -17.2781 11.6267)" class="st3" cx="9.8" cy="33.3" rx="0.1" ry="0.2"/>
					
						<ellipse transform="matrix(0.8198 -0.5727 0.5727 0.8198 -17.2397 11.4508)" class="st3" cx="9.6" cy="33.1" rx="0.1" ry="0.2"/>
					<ellipse transform="matrix(0.8198 -0.5727 0.5727 0.8198 -17.2014 11.275)" class="st3" cx="9.3" cy="33" rx="0.1" ry="0.2"/>
				</g>
				<g>
					
						<ellipse transform="matrix(0.8198 -0.5727 0.5727 0.8198 -17.3897 12.7934)" class="st3" cx="11.6" cy="34" rx="0.1" ry="0.2"/>
					
						<ellipse transform="matrix(0.8198 -0.5727 0.5727 0.8198 -17.3514 12.6176)" class="st3" cx="11.4" cy="33.9" rx="0.1" ry="0.2"/>
					
						<ellipse transform="matrix(0.8198 -0.5727 0.5727 0.8198 -17.3131 12.4417)" class="st3" cx="11.1" cy="33.7" rx="0.1" ry="0.2"/>
					
						<ellipse transform="matrix(0.8198 -0.5727 0.5727 0.8198 -17.2765 12.2733)" class="st3" cx="10.9" cy="33.6" rx="0.1" ry="0.2"/>
					
						<ellipse transform="matrix(0.8198 -0.5727 0.5727 0.8198 -17.2381 12.0974)" class="st3" cx="10.6" cy="33.4" rx="0.1" ry="0.2"/>
					
						<ellipse transform="matrix(0.8198 -0.5727 0.5727 0.8198 -17.1997 11.9216)" class="st3" cx="10.3" cy="33.3" rx="0.1" ry="0.2"/>
					
						<ellipse transform="matrix(0.8198 -0.5727 0.5727 0.8198 -17.1567 11.7494)" class="st3" cx="10.1" cy="33.1" rx="0.1" ry="0.2"/>
					<ellipse transform="matrix(0.8198 -0.5727 0.5727 0.8198 -17.1183 11.5735)" class="st3" cx="9.8" cy="33" rx="0.1" ry="0.2"/>
					
						<ellipse transform="matrix(0.8198 -0.5727 0.5727 0.8198 -17.0865 11.4014)" class="st3" cx="9.6" cy="32.8" rx="0.1" ry="0.2"/>
					
						<ellipse transform="matrix(0.8198 -0.5727 0.5727 0.8198 -17.0434 11.2292)" class="st3" cx="9.3" cy="32.7" rx="0.1" ry="0.2"/>
				</g>
				<g>
					<g>
						
							<ellipse transform="matrix(0.8198 -0.5727 0.5727 0.8198 -17.2337 12.7451)" class="st3" cx="11.6" cy="33.8" rx="0.1" ry="0.2"/>
						
							<ellipse transform="matrix(0.8198 -0.5727 0.5727 0.8198 -17.2018 12.5729)" class="st3" cx="11.4" cy="33.6" rx="0.1" ry="0.2"/>
						
							<ellipse transform="matrix(0.8198 -0.5727 0.5727 0.8198 -17.1587 12.4007)" class="st3" cx="11.1" cy="33.5" rx="0.1" ry="0.2"/>
						
							<ellipse transform="matrix(0.8198 -0.5727 0.5727 0.8198 -17.1204 12.2249)" class="st3" cx="10.9" cy="33.3" rx="0.1" ry="0.2"/>
						
							<ellipse transform="matrix(0.8198 -0.5727 0.5727 0.8198 -17.0821 12.049)" class="st3" cx="10.6" cy="33.2" rx="0.1" ry="0.2"/>
						
							<ellipse transform="matrix(0.8198 -0.5727 0.5727 0.8198 -17.0454 11.8806)" class="st3" cx="10.4" cy="33" rx="0.1" ry="0.2"/>
						
							<ellipse transform="matrix(0.8198 -0.5727 0.5727 0.8198 -17.0071 11.7047)" class="st3" cx="10.1" cy="32.9" rx="0.1" ry="0.2"/>
						
							<ellipse transform="matrix(0.8198 -0.5727 0.5727 0.8198 -16.9688 11.5288)" class="st3" cx="9.8" cy="32.7" rx="0.1" ry="0.2"/>
						
							<ellipse transform="matrix(0.8198 -0.5727 0.5727 0.8198 -16.9304 11.353)" class="st3" cx="9.6" cy="32.6" rx="0.1" ry="0.2"/>
						
							<ellipse transform="matrix(0.8198 -0.5727 0.5727 0.8198 -16.8921 11.1772)" class="st3" cx="9.3" cy="32.4" rx="0.1" ry="0.2"/>
					</g>
					<g>
						
							<ellipse transform="matrix(0.8198 -0.5727 0.5727 0.8198 -17.0804 12.6956)" class="st3" cx="11.6" cy="33.5" rx="0.1" ry="0.2"/>
						
							<ellipse transform="matrix(0.8198 -0.5727 0.5727 0.8198 -17.0421 12.5198)" class="st3" cx="11.4" cy="33.3" rx="0.1" ry="0.2"/>
						
							<ellipse transform="matrix(0.8198 -0.5727 0.5727 0.8198 -17.0038 12.3439)" class="st3" cx="11.1" cy="33.2" rx="0.1" ry="0.2"/>
						
							<ellipse transform="matrix(0.8198 -0.5727 0.5727 0.8198 -16.9672 12.1754)" class="st3" cx="10.9" cy="33" rx="0.1" ry="0.2"/>
						
							<ellipse transform="matrix(0.8198 -0.5727 0.5727 0.8198 -16.9288 11.9996)" class="st3" cx="10.6" cy="32.9" rx="0.1" ry="0.2"/>
						
							<ellipse transform="matrix(0.8198 -0.5727 0.5727 0.8198 -16.8905 11.8237)" class="st3" cx="10.3" cy="32.7" rx="0.1" ry="0.2"/>
						
							<ellipse transform="matrix(0.8198 -0.5727 0.5727 0.8198 -16.8522 11.6479)" class="st3" cx="10.1" cy="32.6" rx="0.1" ry="0.2"/>
						
							<ellipse transform="matrix(0.8198 -0.5727 0.5727 0.8198 -16.8156 11.4795)" class="st3" cx="9.8" cy="32.5" rx="0.1" ry="0.2"/>
						
							<ellipse transform="matrix(0.8198 -0.5727 0.5727 0.8198 -16.7772 11.3036)" class="st3" cx="9.6" cy="32.3" rx="0.1" ry="0.2"/>
						
							<ellipse transform="matrix(0.8198 -0.5727 0.5727 0.8198 -16.7389 11.1277)" class="st3" cx="9.3" cy="32.2" rx="0.1" ry="0.2"/>
					</g>
				</g>
				<g>
					
						<ellipse transform="matrix(0.8198 -0.5727 0.5727 0.8198 -16.9246 12.6475)" class="st3" cx="11.6" cy="33.2" rx="0.1" ry="0.2"/>
					
						<ellipse transform="matrix(0.8198 -0.5727 0.5727 0.8198 -16.8927 12.4753)" class="st3" cx="11.4" cy="33.1" rx="0.1" ry="0.2"/>
					
						<ellipse transform="matrix(0.8198 -0.5727 0.5727 0.8198 -16.8497 12.3031)" class="st3" cx="11.1" cy="32.9" rx="0.1" ry="0.2"/>
					
						<ellipse transform="matrix(0.8198 -0.5727 0.5727 0.8198 -16.8113 12.1273)" class="st3" cx="10.9" cy="32.8" rx="0.1" ry="0.2"/>
					
						<ellipse transform="matrix(0.8198 -0.5727 0.5727 0.8198 -16.773 11.9515)" class="st3" cx="10.6" cy="32.6" rx="0.1" ry="0.2"/>
					
						<ellipse transform="matrix(0.8198 -0.5727 0.5727 0.8198 -16.7363 11.783)" class="st3" cx="10.4" cy="32.5" rx="0.1" ry="0.2"/>
					
						<ellipse transform="matrix(0.8198 -0.5727 0.5727 0.8198 -16.698 11.6071)" class="st3" cx="10.1" cy="32.3" rx="0.1" ry="0.2"/>
					
						<ellipse transform="matrix(0.8198 -0.5727 0.5727 0.8198 -16.6597 11.4313)" class="st3" cx="9.8" cy="32.2" rx="0.1" ry="0.2"/>
					<ellipse transform="matrix(0.8198 -0.5727 0.5727 0.8198 -16.6214 11.2554)" class="st3" cx="9.6" cy="32" rx="0.1" ry="0.2"/>
					
						<ellipse transform="matrix(0.8198 -0.5727 0.5727 0.8198 -16.583 11.0796)" class="st3" cx="9.3" cy="31.9" rx="0.1" ry="0.2"/>
				</g>
				<g>
					
						<ellipse transform="matrix(0.8198 -0.5727 0.5727 0.8198 -16.7714 12.598)" class="st3" cx="11.6" cy="32.9" rx="0.1" ry="0.2"/>
					
						<ellipse transform="matrix(0.8198 -0.5727 0.5727 0.8198 -16.733 12.4222)" class="st3" cx="11.4" cy="32.8" rx="0.1" ry="0.2"/>
					
						<ellipse transform="matrix(0.8198 -0.5727 0.5727 0.8198 -16.6947 12.2463)" class="st3" cx="11.1" cy="32.6" rx="0.1" ry="0.2"/>
					
						<ellipse transform="matrix(0.8198 -0.5727 0.5727 0.8198 -16.6581 12.0779)" class="st3" cx="10.9" cy="32.5" rx="0.1" ry="0.2"/>
					
						<ellipse transform="matrix(0.8198 -0.5727 0.5727 0.8198 -16.6197 11.902)" class="st3" cx="10.6" cy="32.4" rx="0.1" ry="0.2"/>
					
						<ellipse transform="matrix(0.8198 -0.5727 0.5727 0.8198 -16.5814 11.7262)" class="st3" cx="10.3" cy="32.2" rx="0.1" ry="0.2"/>
					
						<ellipse transform="matrix(0.8198 -0.5727 0.5727 0.8198 -16.5431 11.5503)" class="st3" cx="10.1" cy="32.1" rx="0.1" ry="0.2"/>
					
						<ellipse transform="matrix(0.8198 -0.5727 0.5727 0.8198 -16.5065 11.3818)" class="st3" cx="9.8" cy="31.9" rx="0.1" ry="0.2"/>
					
						<ellipse transform="matrix(0.8198 -0.5727 0.5727 0.8198 -16.4681 11.206)" class="st3" cx="9.6" cy="31.8" rx="0.1" ry="0.2"/>
					
						<ellipse transform="matrix(0.8198 -0.5727 0.5727 0.8198 -16.4298 11.0302)" class="st3" cx="9.3" cy="31.6" rx="0.1" ry="0.2"/>
				</g>
				<g>
					<g>
						
							<ellipse transform="matrix(0.8198 -0.5727 0.5727 0.8198 -16.6218 12.5534)" class="st3" cx="11.6" cy="32.7" rx="0.1" ry="0.2"/>
						
							<ellipse transform="matrix(0.8198 -0.5727 0.5727 0.8198 -16.5834 12.3775)" class="st3" cx="11.4" cy="32.5" rx="0.1" ry="0.2"/>
						
							<ellipse transform="matrix(0.8198 -0.5727 0.5727 0.8198 -16.5451 12.2017)" class="st3" cx="11.1" cy="32.4" rx="0.1" ry="0.2"/>
						
							<ellipse transform="matrix(0.8198 -0.5727 0.5727 0.8198 -16.502 12.0295)" class="st3" cx="10.9" cy="32.2" rx="0.1" ry="0.2"/>
						
							<ellipse transform="matrix(0.8198 -0.5727 0.5727 0.8198 -16.4637 11.8537)" class="st3" cx="10.6" cy="32.1" rx="0.1" ry="0.2"/>
						
							<ellipse transform="matrix(0.8198 -0.5727 0.5727 0.8198 -16.4318 11.6815)" class="st3" cx="10.3" cy="31.9" rx="0.1" ry="0.2"/>
						
							<ellipse transform="matrix(0.8198 -0.5727 0.5727 0.8198 -16.3888 11.5093)" class="st3" cx="10.1" cy="31.8" rx="0.1" ry="0.2"/>
						
							<ellipse transform="matrix(0.8198 -0.5727 0.5727 0.8198 -16.3504 11.3335)" class="st3" cx="9.8" cy="31.6" rx="0.1" ry="0.2"/>
						
							<ellipse transform="matrix(0.8198 -0.5727 0.5727 0.8198 -16.3121 11.1576)" class="st3" cx="9.6" cy="31.5" rx="0.1" ry="0.2"/>
						
							<ellipse transform="matrix(0.8198 -0.5727 0.5727 0.8198 -16.2754 10.9891)" class="st3" cx="9.3" cy="31.4" rx="0.1" ry="0.2"/>
					</g>
					<g>
						
							<ellipse transform="matrix(0.8198 -0.5727 0.5727 0.8198 -16.4621 12.5002)" class="st3" cx="11.6" cy="32.4" rx="0.1" ry="0.2"/>
						
							<ellipse transform="matrix(0.8198 -0.5727 0.5727 0.8198 -16.4238 12.3243)" class="st3" cx="11.4" cy="32.3" rx="0.1" ry="0.2"/>
						
							<ellipse transform="matrix(0.8198 -0.5727 0.5727 0.8198 -16.3871 12.1559)" class="st3" cx="11.1" cy="32.1" rx="0.1" ry="0.2"/>
						<ellipse transform="matrix(0.8198 -0.5727 0.5727 0.8198 -16.3488 11.98)" class="st3" cx="10.9" cy="32" rx="0.1" ry="0.2"/>
						
							<ellipse transform="matrix(0.8198 -0.5727 0.5727 0.8198 -16.3105 11.8042)" class="st3" cx="10.6" cy="31.8" rx="0.1" ry="0.2"/>
						
							<ellipse transform="matrix(0.8198 -0.5727 0.5727 0.8198 -16.2722 11.6284)" class="st3" cx="10.3" cy="31.7" rx="0.1" ry="0.2"/>
						
							<ellipse transform="matrix(0.8198 -0.5727 0.5727 0.8198 -16.2355 11.4599)" class="st3" cx="10.1" cy="31.5" rx="0.1" ry="0.2"/>
						
							<ellipse transform="matrix(0.8198 -0.5727 0.5727 0.8198 -16.1972 11.284)" class="st3" cx="9.8" cy="31.4" rx="0.1" ry="0.2"/>
						
							<ellipse transform="matrix(0.8198 -0.5727 0.5727 0.8198 -16.1588 11.1082)" class="st3" cx="9.6" cy="31.2" rx="0.1" ry="0.2"/>
						
							<ellipse transform="matrix(0.8198 -0.5727 0.5727 0.8198 -16.1242 10.9371)" class="st3" cx="9.3" cy="31.1" rx="0.1" ry="0.2"/>
					</g>
				</g>
				<g>
					
						<ellipse transform="matrix(0.8198 -0.5727 0.5727 0.8198 -16.3019 12.4512)" class="st3" cx="11.6" cy="32.1" rx="0.1" ry="0.2"/>
					
						<ellipse transform="matrix(0.8198 -0.5727 0.5727 0.8198 -16.2636 12.2753)" class="st3" cx="11.4" cy="32" rx="0.1" ry="0.2"/>
					
						<ellipse transform="matrix(0.8198 -0.5727 0.5727 0.8198 -16.2253 12.0995)" class="st3" cx="11.1" cy="31.8" rx="0.1" ry="0.2"/>
					
						<ellipse transform="matrix(0.8198 -0.5727 0.5727 0.8198 -16.1822 11.9273)" class="st3" cx="10.9" cy="31.7" rx="0.1" ry="0.2"/>
					
						<ellipse transform="matrix(0.8198 -0.5727 0.5727 0.8198 -16.1503 11.7552)" class="st3" cx="10.6" cy="31.5" rx="0.1" ry="0.2"/>
					
						<ellipse transform="matrix(0.8198 -0.5727 0.5727 0.8198 -16.112 11.5793)" class="st3" cx="10.3" cy="31.4" rx="0.1" ry="0.2"/>
					
						<ellipse transform="matrix(0.8198 -0.5727 0.5727 0.8198 -16.0689 11.4071)" class="st3" cx="10.1" cy="31.2" rx="0.1" ry="0.2"/>
					
						<ellipse transform="matrix(0.8198 -0.5727 0.5727 0.8198 -16.0306 11.2312)" class="st3" cx="9.8" cy="31.1" rx="0.1" ry="0.2"/>
					
						<ellipse transform="matrix(0.8198 -0.5727 0.5727 0.8198 -15.9923 11.0554)" class="st3" cx="9.6" cy="30.9" rx="0.1" ry="0.2"/>
					
						<ellipse transform="matrix(0.8198 -0.5727 0.5727 0.8198 -15.9556 10.8869)" class="st3" cx="9.3" cy="30.8" rx="0.1" ry="0.2"/>
				</g>
				<g>
					
						<ellipse transform="matrix(0.8198 -0.5727 0.5727 0.8198 -16.1459 12.4028)" class="st3" cx="11.6" cy="31.9" rx="0.1" ry="0.2"/>
					
						<ellipse transform="matrix(0.8198 -0.5727 0.5727 0.8198 -16.1076 12.2269)" class="st3" cx="11.4" cy="31.7" rx="0.1" ry="0.2"/>
					
						<ellipse transform="matrix(0.8198 -0.5727 0.5727 0.8198 -16.071 12.0585)" class="st3" cx="11.1" cy="31.6" rx="0.1" ry="0.2"/>
					
						<ellipse transform="matrix(0.8198 -0.5727 0.5727 0.8198 -16.0326 11.8826)" class="st3" cx="10.9" cy="31.4" rx="0.1" ry="0.2"/>
					
						<ellipse transform="matrix(0.8198 -0.5727 0.5727 0.8198 -15.9943 11.7067)" class="st3" cx="10.6" cy="31.3" rx="0.1" ry="0.2"/>
					
						<ellipse transform="matrix(0.8198 -0.5727 0.5727 0.8198 -15.956 11.5309)" class="st3" cx="10.3" cy="31.1" rx="0.1" ry="0.2"/>
					
						<ellipse transform="matrix(0.8198 -0.5727 0.5727 0.8198 -15.9194 11.3624)" class="st3" cx="10.1" cy="31" rx="0.1" ry="0.2"/>
					
						<ellipse transform="matrix(0.8198 -0.5727 0.5727 0.8198 -15.881 11.1866)" class="st3" cx="9.8" cy="30.8" rx="0.1" ry="0.2"/>
					
						<ellipse transform="matrix(0.8198 -0.5727 0.5727 0.8198 -15.8426 11.0107)" class="st3" cx="9.6" cy="30.7" rx="0.1" ry="0.2"/>
					
						<ellipse transform="matrix(0.8198 -0.5727 0.5727 0.8198 -15.8044 10.8349)" class="st3" cx="9.3" cy="30.5" rx="0.1" ry="0.2"/>
				</g>
				<g>
					<g>
						
							<ellipse transform="matrix(0.8198 -0.5727 0.5727 0.8198 -15.9927 12.3533)" class="st3" cx="11.6" cy="31.6" rx="0.1" ry="0.2"/>
						
							<ellipse transform="matrix(0.8198 -0.5727 0.5727 0.8198 -15.9543 12.1775)" class="st3" cx="11.4" cy="31.4" rx="0.1" ry="0.2"/>
						
							<ellipse transform="matrix(0.8198 -0.5727 0.5727 0.8198 -15.916 12.0016)" class="st3" cx="11.1" cy="31.3" rx="0.1" ry="0.2"/>
						
							<ellipse transform="matrix(0.8198 -0.5727 0.5727 0.8198 -15.8729 11.8294)" class="st3" cx="10.9" cy="31.1" rx="0.1" ry="0.2"/>
						
							<ellipse transform="matrix(0.8198 -0.5727 0.5727 0.8198 -15.8411 11.6573)" class="st3" cx="10.6" cy="31" rx="0.1" ry="0.2"/>
						
							<ellipse transform="matrix(0.8198 -0.5727 0.5727 0.8198 -15.8027 11.4815)" class="st3" cx="10.3" cy="30.8" rx="0.1" ry="0.2"/>
						
							<ellipse transform="matrix(0.8198 -0.5727 0.5727 0.8198 -15.7596 11.3093)" class="st3" cx="10.1" cy="30.7" rx="0.1" ry="0.2"/>
						
							<ellipse transform="matrix(0.8198 -0.5727 0.5727 0.8198 -15.7213 11.1334)" class="st3" cx="9.8" cy="30.5" rx="0.1" ry="0.2"/>
						
							<ellipse transform="matrix(0.8198 -0.5727 0.5727 0.8198 -15.6894 10.9613)" class="st3" cx="9.6" cy="30.4" rx="0.1" ry="0.2"/>
						
							<ellipse transform="matrix(0.8198 -0.5727 0.5727 0.8198 -15.6463 10.7891)" class="st3" cx="9.3" cy="30.3" rx="0.1" ry="0.2"/>
					</g>
					<g>
						
							<ellipse transform="matrix(0.8198 -0.5727 0.5727 0.8198 -15.8366 12.3049)" class="st3" cx="11.6" cy="31.3" rx="0.1" ry="0.2"/>
						
							<ellipse transform="matrix(0.8198 -0.5727 0.5727 0.8198 -15.8048 12.1328)" class="st3" cx="11.4" cy="31.2" rx="0.1" ry="0.2"/>
						
							<ellipse transform="matrix(0.8198 -0.5727 0.5727 0.8198 -15.7617 11.9606)" class="st3" cx="11.1" cy="31" rx="0.1" ry="0.2"/>
						
							<ellipse transform="matrix(0.8198 -0.5727 0.5727 0.8198 -15.7233 11.7848)" class="st3" cx="10.9" cy="30.9" rx="0.1" ry="0.2"/>
						
							<ellipse transform="matrix(0.8198 -0.5727 0.5727 0.8198 -15.685 11.6089)" class="st3" cx="10.6" cy="30.7" rx="0.1" ry="0.2"/>
						
							<ellipse transform="matrix(0.8198 -0.5727 0.5727 0.8198 -15.6467 11.4331)" class="st3" cx="10.3" cy="30.6" rx="0.1" ry="0.2"/>
						
							<ellipse transform="matrix(0.8198 -0.5727 0.5727 0.8198 -15.6101 11.2646)" class="st3" cx="10.1" cy="30.4" rx="0.1" ry="0.2"/>
						
							<ellipse transform="matrix(0.8198 -0.5727 0.5727 0.8198 -15.5717 11.0887)" class="st3" cx="9.8" cy="30.3" rx="0.1" ry="0.2"/>
						
							<ellipse transform="matrix(0.8198 -0.5727 0.5727 0.8198 -15.5334 10.9129)" class="st3" cx="9.6" cy="30.1" rx="0.1" ry="0.2"/>
						
							<ellipse transform="matrix(0.8198 -0.5727 0.5727 0.8198 -15.4951 10.7371)" class="st3" cx="9.3" cy="30" rx="0.1" ry="0.2"/>
					</g>
				</g>
				<g>
					<g>
						
							<ellipse transform="matrix(0.8198 -0.5727 0.5727 0.8198 -15.6834 12.2555)" class="st3" cx="11.6" cy="31" rx="0.1" ry="0.2"/>
						
							<ellipse transform="matrix(0.8198 -0.5727 0.5727 0.8198 -15.645 12.0797)" class="st3" cx="11.4" cy="30.9" rx="0.1" ry="0.2"/>
						
							<ellipse transform="matrix(0.8198 -0.5727 0.5727 0.8198 -15.6067 11.9038)" class="st3" cx="11.1" cy="30.7" rx="0.1" ry="0.2"/>
						
							<ellipse transform="matrix(0.8198 -0.5727 0.5727 0.8198 -15.5701 11.7354)" class="st3" cx="10.9" cy="30.6" rx="0.1" ry="0.2"/>
						
							<ellipse transform="matrix(0.8198 -0.5727 0.5727 0.8198 -15.5318 11.5595)" class="st3" cx="10.6" cy="30.5" rx="0.1" ry="0.2"/>
						
							<ellipse transform="matrix(0.8198 -0.5727 0.5727 0.8198 -15.4934 11.3836)" class="st3" cx="10.3" cy="30.3" rx="0.1" ry="0.2"/>
						
							<ellipse transform="matrix(0.8198 -0.5727 0.5727 0.8198 -15.4551 11.2078)" class="st3" cx="10.1" cy="30.2" rx="0.1" ry="0.2"/>
						
							<ellipse transform="matrix(0.8198 -0.5727 0.5727 0.8198 -15.4185 11.0393)" class="st3" cx="9.8" cy="30" rx="0.1" ry="0.2"/>
						
							<ellipse transform="matrix(0.8198 -0.5727 0.5727 0.8198 -15.3802 10.8635)" class="st3" cx="9.6" cy="29.9" rx="0.1" ry="0.2"/>
						
							<ellipse transform="matrix(0.8198 -0.5727 0.5727 0.8198 -15.3418 10.6876)" class="st3" cx="9.3" cy="29.7" rx="0.1" ry="0.2"/>
					</g>
					<g>
						
							<ellipse transform="matrix(0.8198 -0.5727 0.5727 0.8198 -15.5338 12.2109)" class="st3" cx="11.6" cy="30.8" rx="0.1" ry="0.2"/>
						
							<ellipse transform="matrix(0.8198 -0.5727 0.5727 0.8198 -15.4955 12.035)" class="st3" cx="11.4" cy="30.6" rx="0.1" ry="0.2"/>
						
							<ellipse transform="matrix(0.8198 -0.5727 0.5727 0.8198 -15.4571 11.8591)" class="st3" cx="11.1" cy="30.5" rx="0.1" ry="0.2"/>
						
							<ellipse transform="matrix(0.8198 -0.5727 0.5727 0.8198 -15.4141 11.6869)" class="st3" cx="10.9" cy="30.3" rx="0.1" ry="0.2"/>
						
							<ellipse transform="matrix(0.8198 -0.5727 0.5727 0.8198 -15.3757 11.5111)" class="st3" cx="10.6" cy="30.2" rx="0.1" ry="0.2"/>
						
							<ellipse transform="matrix(0.8198 -0.5727 0.5727 0.8198 -15.3439 11.3389)" class="st3" cx="10.3" cy="30" rx="0.1" ry="0.2"/>
						
							<ellipse transform="matrix(0.8198 -0.5727 0.5727 0.8198 -15.3007 11.1668)" class="st3" cx="10.1" cy="29.9" rx="0.1" ry="0.2"/>
						
							<ellipse transform="matrix(0.8198 -0.5727 0.5727 0.8198 -15.2625 10.9909)" class="st3" cx="9.8" cy="29.7" rx="0.1" ry="0.2"/>
						
							<ellipse transform="matrix(0.8198 -0.5727 0.5727 0.8198 -15.2241 10.8151)" class="st3" cx="9.6" cy="29.6" rx="0.1" ry="0.2"/>
						
							<ellipse transform="matrix(0.8198 -0.5727 0.5727 0.8198 -15.1875 10.6466)" class="st3" cx="9.3" cy="29.5" rx="0.1" ry="0.2"/>
					</g>
				</g>
			</g>
		</g>
	</g>
	<g>
		
			<image style="overflow:visible;opacity:0.97;enable-background:new    ;" width="109" height="154" xlink:href="B2AF0CAD69398E39.png"  transform="matrix(8.260000e-02 0 0 8.260000e-02 11.5483 29.3944)">
		</image>
		<g>
			<g>
				<g>
					
						<ellipse transform="matrix(0.8198 -0.5727 0.5727 0.8198 -19.0726 16.8427)" class="st3" cx="17.2" cy="38.7" rx="0.1" ry="0.2"/>
					
						<ellipse transform="matrix(0.8198 -0.5727 0.5727 0.8198 -19.0371 16.6658)" class="st3" cx="17" cy="38.6" rx="0.1" ry="0.2"/>
					
						<ellipse transform="matrix(0.8198 -0.5727 0.5727 0.8198 -18.9939 16.4937)" class="st3" cx="16.7" cy="38.4" rx="0.1" ry="0.2"/>
					
						<ellipse transform="matrix(0.8198 -0.5727 0.5727 0.8198 -18.9592 16.3225)" class="st3" cx="16.5" cy="38.3" rx="0.1" ry="0.2"/>
					
						<ellipse transform="matrix(0.8198 -0.5727 0.5727 0.8198 -18.921 16.1467)" class="st3" cx="16.2" cy="38.1" rx="0.1" ry="0.2"/>
					
						<ellipse transform="matrix(0.8198 -0.5727 0.5727 0.8198 -18.8807 15.9735)" class="st3" cx="15.9" cy="38" rx="0.1" ry="0.2"/>
					
						<ellipse transform="matrix(0.8198 -0.5727 0.5727 0.8198 -18.846 15.8024)" class="st3" cx="15.7" cy="37.8" rx="0.1" ry="0.2"/>
					
						<ellipse transform="matrix(0.8198 -0.5727 0.5727 0.8198 -18.8076 15.6265)" class="st3" cx="15.4" cy="37.7" rx="0.1" ry="0.2"/>
					
						<ellipse transform="matrix(0.8198 -0.5727 0.5727 0.8198 -18.7693 15.4507)" class="st3" cx="15.2" cy="37.5" rx="0.1" ry="0.2"/>
					
						<ellipse transform="matrix(0.8198 -0.5727 0.5727 0.8198 -18.731 15.2748)" class="st3" cx="14.9" cy="37.4" rx="0.1" ry="0.2"/>
				</g>
				<g>
					
						<ellipse transform="matrix(0.8198 -0.5727 0.5727 0.8198 -18.9193 16.7933)" class="st3" cx="17.2" cy="38.5" rx="0.1" ry="0.2"/>
					<ellipse transform="matrix(0.8198 -0.5727 0.5727 0.8198 -18.881 16.6174)" class="st3" cx="17" cy="38.3" rx="0.1" ry="0.2"/>
					
						<ellipse transform="matrix(0.8198 -0.5727 0.5727 0.8198 -18.8426 16.4416)" class="st3" cx="16.7" cy="38.2" rx="0.1" ry="0.2"/>
					<ellipse transform="matrix(0.8198 -0.5727 0.5727 0.8198 -18.806 16.2731)" class="st3" cx="16.5" cy="38" rx="0.1" ry="0.2"/>
					
						<ellipse transform="matrix(0.8198 -0.5727 0.5727 0.8198 -18.7677 16.0973)" class="st3" cx="16.2" cy="37.9" rx="0.1" ry="0.2"/>
					
						<ellipse transform="matrix(0.8198 -0.5727 0.5727 0.8198 -18.7294 15.9214)" class="st3" cx="15.9" cy="37.7" rx="0.1" ry="0.2"/>
					
						<ellipse transform="matrix(0.8198 -0.5727 0.5727 0.8198 -18.6863 15.7492)" class="st3" cx="15.7" cy="37.6" rx="0.1" ry="0.2"/>
					<path class="st3" d="M15.3,37.3c0,0,0.1,0,0.1,0.1c0,0.1,0.1,0.1,0,0.2c0,0-0.1,0-0.1-0.1S15.3,37.3,15.3,37.3z"/>
					
						<ellipse transform="matrix(0.8198 -0.5727 0.5727 0.8198 -18.6161 15.4013)" class="st3" cx="15.2" cy="37.3" rx="0.1" ry="0.2"/>
					
						<ellipse transform="matrix(0.8198 -0.5727 0.5727 0.8198 -18.573 15.2291)" class="st3" cx="14.9" cy="37.1" rx="0.1" ry="0.2"/>
				</g>
				<g>
					<g>
						
							<ellipse transform="matrix(0.8198 -0.5727 0.5727 0.8198 -18.7661 16.7439)" class="st3" cx="17.2" cy="38.2" rx="0.1" ry="0.2"/>
						<ellipse transform="matrix(0.8198 -0.5727 0.5727 0.8198 -18.7314 16.5728)" class="st3" cx="17" cy="38" rx="0.1" ry="0.2"/>
						
							<ellipse transform="matrix(0.8198 -0.5727 0.5727 0.8198 -18.6883 16.4005)" class="st3" cx="16.7" cy="37.9" rx="0.1" ry="0.2"/>
						
							<ellipse transform="matrix(0.8198 -0.5727 0.5727 0.8198 -18.65 16.2247)" class="st3" cx="16.5" cy="37.7" rx="0.1" ry="0.2"/>
						
							<ellipse transform="matrix(0.8198 -0.5727 0.5727 0.8198 -18.6117 16.0489)" class="st3" cx="16.2" cy="37.6" rx="0.1" ry="0.2"/>
						
							<ellipse transform="matrix(0.8198 -0.5727 0.5727 0.8198 -18.5751 15.8804)" class="st3" cx="15.9" cy="37.5" rx="0.1" ry="0.2"/>
						
							<ellipse transform="matrix(0.8198 -0.5727 0.5727 0.8198 -18.5367 15.7046)" class="st3" cx="15.7" cy="37.3" rx="0.1" ry="0.2"/>
						
							<ellipse transform="matrix(0.8198 -0.5727 0.5727 0.8198 -18.4984 15.5287)" class="st3" cx="15.4" cy="37.2" rx="0.1" ry="0.2"/>
						
							<ellipse transform="matrix(0.8198 -0.5727 0.5727 0.8198 -18.4601 15.3528)" class="st3" cx="15.2" cy="37" rx="0.1" ry="0.2"/>
						
							<ellipse transform="matrix(0.8198 -0.5727 0.5727 0.8198 -18.4235 15.1844)" class="st3" cx="14.9" cy="36.9" rx="0.1" ry="0.2"/>
					</g>
					<g>
						
							<ellipse transform="matrix(0.8198 -0.5727 0.5727 0.8198 -18.6101 16.6954)" class="st3" cx="17.2" cy="37.9" rx="0.1" ry="0.2"/>
						
							<ellipse transform="matrix(0.8198 -0.5727 0.5727 0.8198 -18.5717 16.5196)" class="st3" cx="17" cy="37.8" rx="0.1" ry="0.2"/>
						
							<ellipse transform="matrix(0.8198 -0.5727 0.5727 0.8198 -18.5351 16.3511)" class="st3" cx="16.7" cy="37.6" rx="0.1" ry="0.2"/>
						
							<ellipse transform="matrix(0.8198 -0.5727 0.5727 0.8198 -18.4968 16.1753)" class="st3" cx="16.5" cy="37.5" rx="0.1" ry="0.2"/>
						
							<ellipse transform="matrix(0.8198 -0.5727 0.5727 0.8198 -18.4585 15.9994)" class="st3" cx="16.2" cy="37.3" rx="0.1" ry="0.2"/>
						
							<ellipse transform="matrix(0.8198 -0.5727 0.5727 0.8198 -18.4201 15.8236)" class="st3" cx="15.9" cy="37.2" rx="0.1" ry="0.2"/>
						
							<ellipse transform="matrix(0.8198 -0.5727 0.5727 0.8198 -18.3835 15.6551)" class="st3" cx="15.7" cy="37" rx="0.1" ry="0.2"/>
						
							<ellipse transform="matrix(0.8198 -0.5727 0.5727 0.8198 -18.3451 15.4793)" class="st3" cx="15.4" cy="36.9" rx="0.1" ry="0.2"/>
						
							<ellipse transform="matrix(0.8198 -0.5727 0.5727 0.8198 -18.3068 15.3034)" class="st3" cx="15.2" cy="36.7" rx="0.1" ry="0.2"/>
						
							<ellipse transform="matrix(0.8198 -0.5727 0.5727 0.8198 -18.2685 15.1276)" class="st3" cx="14.9" cy="36.6" rx="0.1" ry="0.2"/>
					</g>
				</g>
				<g>
					
						<ellipse transform="matrix(0.8198 -0.5727 0.5727 0.8198 -18.4499 16.6464)" class="st3" cx="17.2" cy="37.6" rx="0.1" ry="0.2"/>
					<path class="st3" d="M16.9,37.4c0,0,0.1,0,0.1,0.1s0.1,0.1,0,0.2c0,0-0.1,0-0.1-0.1C16.9,37.5,16.8,37.4,16.9,37.4z"/>
					
						<ellipse transform="matrix(0.8198 -0.5727 0.5727 0.8198 -18.3685 16.2984)" class="st3" cx="16.7" cy="37.3" rx="0.1" ry="0.2"/>
					
						<ellipse transform="matrix(0.8198 -0.5727 0.5727 0.8198 -18.3302 16.1225)" class="st3" cx="16.5" cy="37.2" rx="0.1" ry="0.2"/>
					
						<ellipse transform="matrix(0.8198 -0.5727 0.5727 0.8198 -18.2918 15.9466)" class="st3" cx="16.2" cy="37" rx="0.1" ry="0.2"/>
					
						<ellipse transform="matrix(0.8198 -0.5727 0.5727 0.8198 -18.2552 15.7782)" class="st3" cx="15.9" cy="36.9" rx="0.1" ry="0.2"/>
					
						<ellipse transform="matrix(0.8198 -0.5727 0.5727 0.8198 -18.2169 15.6023)" class="st3" cx="15.7" cy="36.7" rx="0.1" ry="0.2"/>
					
						<ellipse transform="matrix(0.8198 -0.5727 0.5727 0.8198 -18.1786 15.4265)" class="st3" cx="15.4" cy="36.6" rx="0.1" ry="0.2"/>
					
						<ellipse transform="matrix(0.8198 -0.5727 0.5727 0.8198 -18.1402 15.2507)" class="st3" cx="15.2" cy="36.4" rx="0.1" ry="0.2"/>
					
						<ellipse transform="matrix(0.8198 -0.5727 0.5727 0.8198 -18.1036 15.0822)" class="st3" cx="14.9" cy="36.3" rx="0.1" ry="0.2"/>
				</g>
				<g>
					
						<ellipse transform="matrix(0.8198 -0.5727 0.5727 0.8198 -18.2939 16.598)" class="st3" cx="17.2" cy="37.4" rx="0.1" ry="0.2"/>
					
						<ellipse transform="matrix(0.8198 -0.5727 0.5727 0.8198 -18.2555 16.4221)" class="st3" cx="17" cy="37.2" rx="0.1" ry="0.2"/>
					
						<ellipse transform="matrix(0.8198 -0.5727 0.5727 0.8198 -18.2153 16.2489)" class="st3" cx="16.7" cy="37.1" rx="0.1" ry="0.2"/>
					
						<ellipse transform="matrix(0.8198 -0.5727 0.5727 0.8198 -18.1806 16.0778)" class="st3" cx="16.5" cy="36.9" rx="0.1" ry="0.2"/>
					
						<ellipse transform="matrix(0.8198 -0.5727 0.5727 0.8198 -18.1423 15.902)" class="st3" cx="16.2" cy="36.8" rx="0.1" ry="0.2"/>
					
						<ellipse transform="matrix(0.8198 -0.5727 0.5727 0.8198 -18.1039 15.7262)" class="st3" cx="15.9" cy="36.6" rx="0.1" ry="0.2"/>
					
						<ellipse transform="matrix(0.8198 -0.5727 0.5727 0.8198 -18.0636 15.5529)" class="st3" cx="15.7" cy="36.5" rx="0.1" ry="0.2"/>
					
						<ellipse transform="matrix(0.8198 -0.5727 0.5727 0.8198 -18.0289 15.3818)" class="st3" cx="15.4" cy="36.3" rx="0.1" ry="0.2"/>
					
						<ellipse transform="matrix(0.8198 -0.5727 0.5727 0.8198 -17.9907 15.206)" class="st3" cx="15.2" cy="36.2" rx="0.1" ry="0.2"/>
					
						<ellipse transform="matrix(0.8198 -0.5727 0.5727 0.8198 -17.9523 15.0301)" class="st3" cx="14.9" cy="36" rx="0.1" ry="0.2"/>
				</g>
				<g>
					<g>
						
							<ellipse transform="matrix(0.8198 -0.5727 0.5727 0.8198 -18.1406 16.5486)" class="st3" cx="17.2" cy="37.1" rx="0.1" ry="0.2"/>
						
							<ellipse transform="matrix(0.8198 -0.5727 0.5727 0.8198 -18.1023 16.3727)" class="st3" cx="17" cy="36.9" rx="0.1" ry="0.2"/>
						
							<ellipse transform="matrix(0.8198 -0.5727 0.5727 0.8198 -18.064 16.1968)" class="st3" cx="16.7" cy="36.8" rx="0.1" ry="0.2"/>
						
							<ellipse transform="matrix(0.8198 -0.5727 0.5727 0.8198 -18.0208 16.0247)" class="st3" cx="16.4" cy="36.6" rx="0.1" ry="0.2"/>
						
							<ellipse transform="matrix(0.8198 -0.5727 0.5727 0.8198 -17.989 15.8526)" class="st3" cx="16.2" cy="36.5" rx="0.1" ry="0.2"/>
						
							<ellipse transform="matrix(0.8198 -0.5727 0.5727 0.8198 -17.9507 15.6767)" class="st3" cx="15.9" cy="36.4" rx="0.1" ry="0.2"/>
						
							<ellipse transform="matrix(0.8198 -0.5727 0.5727 0.8198 -17.9076 15.5045)" class="st3" cx="15.7" cy="36.2" rx="0.1" ry="0.2"/>
						
							<ellipse transform="matrix(0.8198 -0.5727 0.5727 0.8198 -17.8692 15.3286)" class="st3" cx="15.4" cy="36.1" rx="0.1" ry="0.2"/>
						
							<ellipse transform="matrix(0.8198 -0.5727 0.5727 0.8198 -17.8374 15.1565)" class="st3" cx="15.2" cy="35.9" rx="0.1" ry="0.2"/>
						
							<ellipse transform="matrix(0.8198 -0.5727 0.5727 0.8198 -17.7943 14.9843)" class="st3" cx="14.9" cy="35.8" rx="0.1" ry="0.2"/>
					</g>
					<g>
						
							<ellipse transform="matrix(0.8198 -0.5727 0.5727 0.8198 -17.9846 16.5002)" class="st3" cx="17.2" cy="36.8" rx="0.1" ry="0.2"/>
						
							<ellipse transform="matrix(0.8198 -0.5727 0.5727 0.8198 -17.9443 16.3269)" class="st3" cx="17" cy="36.7" rx="0.1" ry="0.2"/>
						
							<ellipse transform="matrix(0.8198 -0.5727 0.5727 0.8198 -17.9096 16.1559)" class="st3" cx="16.7" cy="36.5" rx="0.1" ry="0.2"/>
						
							<ellipse transform="matrix(0.8198 -0.5727 0.5727 0.8198 -17.8713 15.98)" class="st3" cx="16.5" cy="36.4" rx="0.1" ry="0.2"/>
						
							<ellipse transform="matrix(0.8198 -0.5727 0.5727 0.8198 -17.833 15.8042)" class="st3" cx="16.2" cy="36.2" rx="0.1" ry="0.2"/>
						
							<ellipse transform="matrix(0.8198 -0.5727 0.5727 0.8198 -17.7946 15.6283)" class="st3" cx="15.9" cy="36.1" rx="0.1" ry="0.2"/>
						
							<ellipse transform="matrix(0.8198 -0.5727 0.5727 0.8198 -17.758 15.4598)" class="st3" cx="15.7" cy="35.9" rx="0.1" ry="0.2"/>
						
							<ellipse transform="matrix(0.8198 -0.5727 0.5727 0.8198 -17.7197 15.284)" class="st3" cx="15.4" cy="35.8" rx="0.1" ry="0.2"/>
						
							<ellipse transform="matrix(0.8198 -0.5727 0.5727 0.8198 -17.6814 15.1082)" class="st3" cx="15.2" cy="35.6" rx="0.1" ry="0.2"/>
						
							<ellipse transform="matrix(0.8198 -0.5727 0.5727 0.8198 -17.643 14.9323)" class="st3" cx="14.9" cy="35.5" rx="0.1" ry="0.2"/>
					</g>
				</g>
				<g>
					
						<ellipse transform="matrix(0.8198 -0.5727 0.5727 0.8198 -17.8316 16.451)" class="st3" cx="17.2" cy="36.6" rx="0.1" ry="0.2"/>
					
						<ellipse transform="matrix(0.8198 -0.5727 0.5727 0.8198 -17.7932 16.2751)" class="st3" cx="17" cy="36.4" rx="0.1" ry="0.2"/>
					
						<ellipse transform="matrix(0.8198 -0.5727 0.5727 0.8198 -17.7549 16.0993)" class="st3" cx="16.7" cy="36.3" rx="0.1" ry="0.2"/>
					
						<ellipse transform="matrix(0.8198 -0.5727 0.5727 0.8198 -17.7118 15.9271)" class="st3" cx="16.4" cy="36.1" rx="0.1" ry="0.2"/>
					<ellipse transform="matrix(0.8198 -0.5727 0.5727 0.8198 -17.68 15.755)" class="st3" cx="16.2" cy="36" rx="0.1" ry="0.2"/>
					
						<ellipse transform="matrix(0.8198 -0.5727 0.5727 0.8198 -17.6416 15.5792)" class="st3" cx="15.9" cy="35.8" rx="0.1" ry="0.2"/>
					
						<ellipse transform="matrix(0.8198 -0.5727 0.5727 0.8198 -17.5985 15.407)" class="st3" cx="15.7" cy="35.7" rx="0.1" ry="0.2"/>
					
						<ellipse transform="matrix(0.8198 -0.5727 0.5727 0.8198 -17.5602 15.2311)" class="st3" cx="15.4" cy="35.5" rx="0.1" ry="0.2"/>
					
						<ellipse transform="matrix(0.8198 -0.5727 0.5727 0.8198 -17.5283 15.059)" class="st3" cx="15.2" cy="35.4" rx="0.1" ry="0.2"/>
					
						<ellipse transform="matrix(0.8198 -0.5727 0.5727 0.8198 -17.4852 14.8868)" class="st3" cx="14.9" cy="35.2" rx="0.1" ry="0.2"/>
				</g>
				<g>
					
						<ellipse transform="matrix(0.8198 -0.5727 0.5727 0.8198 -17.6755 16.4026)" class="st3" cx="17.2" cy="36.3" rx="0.1" ry="0.2"/>
					
						<ellipse transform="matrix(0.8198 -0.5727 0.5727 0.8198 -17.6389 16.2341)" class="st3" cx="17" cy="36.1" rx="0.1" ry="0.2"/>
					
						<ellipse transform="matrix(0.8198 -0.5727 0.5727 0.8198 -17.6006 16.0583)" class="st3" cx="16.7" cy="36" rx="0.1" ry="0.2"/>
					
						<ellipse transform="matrix(0.8198 -0.5727 0.5727 0.8198 -17.5622 15.8825)" class="st3" cx="16.5" cy="35.8" rx="0.1" ry="0.2"/>
					
						<ellipse transform="matrix(0.8198 -0.5727 0.5727 0.8198 -17.5239 15.7066)" class="st3" cx="16.2" cy="35.7" rx="0.1" ry="0.2"/>
					
						<ellipse transform="matrix(0.8198 -0.5727 0.5727 0.8198 -17.4855 15.5307)" class="st3" cx="15.9" cy="35.5" rx="0.1" ry="0.2"/>
					
						<ellipse transform="matrix(0.8198 -0.5727 0.5727 0.8198 -17.4489 15.3623)" class="st3" cx="15.7" cy="35.4" rx="0.1" ry="0.2"/>
					
						<ellipse transform="matrix(0.8198 -0.5727 0.5727 0.8198 -17.4106 15.1864)" class="st3" cx="15.4" cy="35.3" rx="0.1" ry="0.2"/>
					
						<ellipse transform="matrix(0.8198 -0.5727 0.5727 0.8198 -17.3723 15.0105)" class="st3" cx="15.2" cy="35.1" rx="0.1" ry="0.2"/>
					
						<ellipse transform="matrix(0.8198 -0.5727 0.5727 0.8198 -17.3339 14.8347)" class="st3" cx="14.9" cy="35" rx="0.1" ry="0.2"/>
				</g>
				<g>
					<g>
						
							<ellipse transform="matrix(0.8198 -0.5727 0.5727 0.8198 -17.5223 16.3532)" class="st3" cx="17.2" cy="36" rx="0.1" ry="0.2"/>
						
							<ellipse transform="matrix(0.8198 -0.5727 0.5727 0.8198 -17.4839 16.1773)" class="st3" cx="17" cy="35.9" rx="0.1" ry="0.2"/>
						
							<ellipse transform="matrix(0.8198 -0.5727 0.5727 0.8198 -17.4456 16.0015)" class="st3" cx="16.7" cy="35.7" rx="0.1" ry="0.2"/>
						
							<ellipse transform="matrix(0.8198 -0.5727 0.5727 0.8198 -17.409 15.833)" class="st3" cx="16.5" cy="35.6" rx="0.1" ry="0.2"/>
						
							<ellipse transform="matrix(0.8198 -0.5727 0.5727 0.8198 -17.3707 15.6572)" class="st3" cx="16.2" cy="35.4" rx="0.1" ry="0.2"/>
						
							<ellipse transform="matrix(0.8198 -0.5727 0.5727 0.8198 -17.3323 15.4813)" class="st3" cx="15.9" cy="35.3" rx="0.1" ry="0.2"/>
						
							<ellipse transform="matrix(0.8198 -0.5727 0.5727 0.8198 -17.2892 15.3091)" class="st3" cx="15.7" cy="35.1" rx="0.1" ry="0.2"/>
						
							<ellipse transform="matrix(0.8198 -0.5727 0.5727 0.8198 -17.2574 15.137)" class="st3" cx="15.4" cy="35" rx="0.1" ry="0.2"/>
						
							<ellipse transform="matrix(0.8198 -0.5727 0.5727 0.8198 -17.2191 14.9611)" class="st3" cx="15.2" cy="34.8" rx="0.1" ry="0.2"/>
						
							<ellipse transform="matrix(0.8198 -0.5727 0.5727 0.8198 -17.1759 14.789)" class="st3" cx="14.9" cy="34.7" rx="0.1" ry="0.2"/>
					</g>
					<g>
						
							<ellipse transform="matrix(0.8198 -0.5727 0.5727 0.8198 -17.3727 16.3085)" class="st3" cx="17.2" cy="35.8" rx="0.1" ry="0.2"/>
						
							<ellipse transform="matrix(0.8198 -0.5727 0.5727 0.8198 -17.3344 16.1327)" class="st3" cx="17" cy="35.6" rx="0.1" ry="0.2"/>
						
							<ellipse transform="matrix(0.8198 -0.5727 0.5727 0.8198 -17.2913 15.9605)" class="st3" cx="16.7" cy="35.5" rx="0.1" ry="0.2"/>
						
							<ellipse transform="matrix(0.8198 -0.5727 0.5727 0.8198 -17.253 15.7846)" class="st3" cx="16.5" cy="35.3" rx="0.1" ry="0.2"/>
						
							<ellipse transform="matrix(0.8198 -0.5727 0.5727 0.8198 -17.2146 15.6088)" class="st3" cx="16.2" cy="35.2" rx="0.1" ry="0.2"/>
						
							<ellipse transform="matrix(0.8198 -0.5727 0.5727 0.8198 -17.178 15.4403)" class="st3" cx="15.9" cy="35" rx="0.1" ry="0.2"/>
						
							<ellipse transform="matrix(0.8198 -0.5727 0.5727 0.8198 -17.1397 15.2645)" class="st3" cx="15.7" cy="34.9" rx="0.1" ry="0.2"/>
						
							<ellipse transform="matrix(0.8198 -0.5727 0.5727 0.8198 -17.1013 15.0886)" class="st3" cx="15.4" cy="34.7" rx="0.1" ry="0.2"/>
						
							<ellipse transform="matrix(0.8198 -0.5727 0.5727 0.8198 -17.063 14.9127)" class="st3" cx="15.2" cy="34.6" rx="0.1" ry="0.2"/>
						
							<ellipse transform="matrix(0.8198 -0.5727 0.5727 0.8198 -17.0264 14.7443)" class="st3" cx="14.9" cy="34.4" rx="0.1" ry="0.2"/>
					</g>
				</g>
				<g>
					
						<ellipse transform="matrix(0.8198 -0.5727 0.5727 0.8198 -17.2061 16.2557)" class="st3" cx="17.2" cy="35.5" rx="0.1" ry="0.2"/>
					
						<ellipse transform="matrix(0.8198 -0.5727 0.5727 0.8198 -17.1678 16.0799)" class="st3" cx="17" cy="35.3" rx="0.1" ry="0.2"/>
					
						<ellipse transform="matrix(0.8198 -0.5727 0.5727 0.8198 -17.1294 15.904)" class="st3" cx="16.7" cy="35.2" rx="0.1" ry="0.2"/>
					
						<ellipse transform="matrix(0.8198 -0.5727 0.5727 0.8198 -17.0928 15.7355)" class="st3" cx="16.5" cy="35" rx="0.1" ry="0.2"/>
					
						<ellipse transform="matrix(0.8198 -0.5727 0.5727 0.8198 -17.0545 15.5597)" class="st3" cx="16.2" cy="34.9" rx="0.1" ry="0.2"/>
					
						<ellipse transform="matrix(0.8198 -0.5727 0.5727 0.8198 -17.0161 15.3839)" class="st3" cx="15.9" cy="34.7" rx="0.1" ry="0.2"/>
					
						<ellipse transform="matrix(0.8198 -0.5727 0.5727 0.8198 -16.973 15.2117)" class="st3" cx="15.7" cy="34.6" rx="0.1" ry="0.2"/>
					
						<ellipse transform="matrix(0.8198 -0.5727 0.5727 0.8198 -16.9412 15.0396)" class="st3" cx="15.4" cy="34.4" rx="0.1" ry="0.2"/>
					
						<ellipse transform="matrix(0.8198 -0.5727 0.5727 0.8198 -16.9029 14.8637)" class="st3" cx="15.2" cy="34.3" rx="0.1" ry="0.2"/>
					
						<ellipse transform="matrix(0.8198 -0.5727 0.5727 0.8198 -16.8598 14.6915)" class="st3" cx="14.9" cy="34.1" rx="0.1" ry="0.2"/>
				</g>
				<g>
					
						<ellipse transform="matrix(0.8198 -0.5727 0.5727 0.8198 -17.0528 16.2063)" class="st3" cx="17.2" cy="35.2" rx="0.1" ry="0.2"/>
					<ellipse transform="matrix(0.8198 -0.5727 0.5727 0.8198 -17.0145 16.0304)" class="st3" cx="17" cy="35" rx="0.1" ry="0.2"/>
					
						<ellipse transform="matrix(0.8198 -0.5727 0.5727 0.8198 -16.9714 15.8582)" class="st3" cx="16.7" cy="34.9" rx="0.1" ry="0.2"/>
					
						<ellipse transform="matrix(0.8198 -0.5727 0.5727 0.8198 -16.9331 15.6824)" class="st3" cx="16.4" cy="34.7" rx="0.1" ry="0.2"/>
					
						<ellipse transform="matrix(0.8198 -0.5727 0.5727 0.8198 -16.8948 15.5066)" class="st3" cx="16.2" cy="34.6" rx="0.1" ry="0.2"/>
					
						<ellipse transform="matrix(0.8198 -0.5727 0.5727 0.8198 -16.8582 15.3381)" class="st3" cx="15.9" cy="34.5" rx="0.1" ry="0.2"/>
					
						<ellipse transform="matrix(0.8198 -0.5727 0.5727 0.8198 -16.8198 15.1622)" class="st3" cx="15.7" cy="34.3" rx="0.1" ry="0.2"/>
					
						<ellipse transform="matrix(0.8198 -0.5727 0.5727 0.8198 -16.7815 14.9864)" class="st3" cx="15.4" cy="34.2" rx="0.1" ry="0.2"/>
					
						<ellipse transform="matrix(0.8198 -0.5727 0.5727 0.8198 -16.7431 14.8106)" class="st3" cx="15.2" cy="34" rx="0.1" ry="0.2"/>
					
						<ellipse transform="matrix(0.8198 -0.5727 0.5727 0.8198 -16.7066 14.6421)" class="st3" cx="14.9" cy="33.9" rx="0.1" ry="0.2"/>
				</g>
				<g>
					<g>
						
							<ellipse transform="matrix(0.8198 -0.5727 0.5727 0.8198 -16.8968 16.1579)" class="st3" cx="17.2" cy="34.9" rx="0.1" ry="0.2"/>
						
							<ellipse transform="matrix(0.8198 -0.5727 0.5727 0.8198 -16.8585 15.9821)" class="st3" cx="17" cy="34.8" rx="0.1" ry="0.2"/>
						
							<ellipse transform="matrix(0.8198 -0.5727 0.5727 0.8198 -16.8219 15.8136)" class="st3" cx="16.7" cy="34.6" rx="0.1" ry="0.2"/>
						
							<ellipse transform="matrix(0.8198 -0.5727 0.5727 0.8198 -16.7835 15.6377)" class="st3" cx="16.5" cy="34.5" rx="0.1" ry="0.2"/>
						
							<ellipse transform="matrix(0.8198 -0.5727 0.5727 0.8198 -16.7452 15.4619)" class="st3" cx="16.2" cy="34.3" rx="0.1" ry="0.2"/>
						
							<ellipse transform="matrix(0.8198 -0.5727 0.5727 0.8198 -16.7069 15.286)" class="st3" cx="15.9" cy="34.2" rx="0.1" ry="0.2"/>
						
							<ellipse transform="matrix(0.8198 -0.5727 0.5727 0.8198 -16.6685 15.1102)" class="st3" cx="15.7" cy="34" rx="0.1" ry="0.2"/>
						
							<ellipse transform="matrix(0.8198 -0.5727 0.5727 0.8198 -16.6319 14.9417)" class="st3" cx="15.4" cy="33.9" rx="0.1" ry="0.2"/>
						
							<ellipse transform="matrix(0.8198 -0.5727 0.5727 0.8198 -16.5936 14.7659)" class="st3" cx="15.2" cy="33.7" rx="0.1" ry="0.2"/>
						
							<ellipse transform="matrix(0.8198 -0.5727 0.5727 0.8198 -16.5552 14.59)" class="st3" cx="14.9" cy="33.6" rx="0.1" ry="0.2"/>
					</g>
					<g>
						
							<ellipse transform="matrix(0.8198 -0.5727 0.5727 0.8198 -16.7436 16.1085)" class="st3" cx="17.2" cy="34.7" rx="0.1" ry="0.2"/>
						
							<ellipse transform="matrix(0.8198 -0.5727 0.5727 0.8198 -16.7053 15.9326)" class="st3" cx="17" cy="34.5" rx="0.1" ry="0.2"/>
						
							<ellipse transform="matrix(0.8198 -0.5727 0.5727 0.8198 -16.6622 15.7604)" class="st3" cx="16.7" cy="34.4" rx="0.1" ry="0.2"/>
						
							<ellipse transform="matrix(0.8198 -0.5727 0.5727 0.8198 -16.6239 15.5846)" class="st3" cx="16.4" cy="34.2" rx="0.1" ry="0.2"/>
						
							<ellipse transform="matrix(0.8198 -0.5727 0.5727 0.8198 -16.5919 15.4124)" class="st3" cx="16.2" cy="34.1" rx="0.1" ry="0.2"/>
						
							<ellipse transform="matrix(0.8198 -0.5727 0.5727 0.8198 -16.5489 15.2403)" class="st3" cx="15.9" cy="33.9" rx="0.1" ry="0.2"/>
						
							<ellipse transform="matrix(0.8198 -0.5727 0.5727 0.8198 -16.5105 15.0644)" class="st3" cx="15.7" cy="33.8" rx="0.1" ry="0.2"/>
						
							<ellipse transform="matrix(0.8198 -0.5727 0.5727 0.8198 -16.4722 14.8886)" class="st3" cx="15.4" cy="33.6" rx="0.1" ry="0.2"/>
						
							<ellipse transform="matrix(0.8198 -0.5727 0.5727 0.8198 -16.4356 14.7201)" class="st3" cx="15.2" cy="33.5" rx="0.1" ry="0.2"/>
						
							<ellipse transform="matrix(0.8198 -0.5727 0.5727 0.8198 -16.3973 14.5443)" class="st3" cx="14.9" cy="33.3" rx="0.1" ry="0.2"/>
					</g>
				</g>
				<g>
					<g>
						
							<ellipse transform="matrix(0.8198 -0.5727 0.5727 0.8198 -16.5876 16.0601)" class="st3" cx="17.2" cy="34.4" rx="0.1" ry="0.2"/>
						
							<ellipse transform="matrix(0.8198 -0.5727 0.5727 0.8198 -16.551 15.8916)" class="st3" cx="17" cy="34.2" rx="0.1" ry="0.2"/>
						
							<ellipse transform="matrix(0.8198 -0.5727 0.5727 0.8198 -16.5126 15.7157)" class="st3" cx="16.7" cy="34.1" rx="0.1" ry="0.2"/>
						
							<ellipse transform="matrix(0.8198 -0.5727 0.5727 0.8198 -16.4742 15.5399)" class="st3" cx="16.5" cy="33.9" rx="0.1" ry="0.2"/>
						
							<ellipse transform="matrix(0.8198 -0.5727 0.5727 0.8198 -16.4359 15.3641)" class="st3" cx="16.2" cy="33.8" rx="0.1" ry="0.2"/>
						
							<ellipse transform="matrix(0.8198 -0.5727 0.5727 0.8198 -16.3976 15.1882)" class="st3" cx="15.9" cy="33.6" rx="0.1" ry="0.2"/>
						
							<ellipse transform="matrix(0.8198 -0.5727 0.5727 0.8198 -16.361 15.0198)" class="st3" cx="15.7" cy="33.5" rx="0.1" ry="0.2"/>
						
							<ellipse transform="matrix(0.8198 -0.5727 0.5727 0.8198 -16.3226 14.8439)" class="st3" cx="15.4" cy="33.4" rx="0.1" ry="0.2"/>
						
							<ellipse transform="matrix(0.8198 -0.5727 0.5727 0.8198 -16.2843 14.668)" class="st3" cx="15.2" cy="33.2" rx="0.1" ry="0.2"/>
						
							<ellipse transform="matrix(0.8198 -0.5727 0.5727 0.8198 -16.246 14.4922)" class="st3" cx="14.9" cy="33.1" rx="0.1" ry="0.2"/>
					</g>
					<g>
						
							<ellipse transform="matrix(0.8198 -0.5727 0.5727 0.8198 -16.4343 16.0106)" class="st3" cx="17.2" cy="34.1" rx="0.1" ry="0.2"/>
						<ellipse transform="matrix(0.8198 -0.5727 0.5727 0.8198 -16.396 15.8348)" class="st3" cx="17" cy="34" rx="0.1" ry="0.2"/>
						
							<ellipse transform="matrix(0.8198 -0.5727 0.5727 0.8198 -16.3576 15.6589)" class="st3" cx="16.7" cy="33.8" rx="0.1" ry="0.2"/>
						
							<ellipse transform="matrix(0.8198 -0.5727 0.5727 0.8198 -16.321 15.4905)" class="st3" cx="16.5" cy="33.7" rx="0.1" ry="0.2"/>
						
							<ellipse transform="matrix(0.8198 -0.5727 0.5727 0.8198 -16.2827 15.3146)" class="st3" cx="16.2" cy="33.5" rx="0.1" ry="0.2"/>
						
							<ellipse transform="matrix(0.8198 -0.5727 0.5727 0.8198 -16.2444 15.1388)" class="st3" cx="15.9" cy="33.4" rx="0.1" ry="0.2"/>
						
							<ellipse transform="matrix(0.8198 -0.5727 0.5727 0.8198 -16.2013 14.9666)" class="st3" cx="15.7" cy="33.2" rx="0.1" ry="0.2"/>
						
							<ellipse transform="matrix(0.8198 -0.5727 0.5727 0.8198 -16.1666 14.7955)" class="st3" cx="15.4" cy="33.1" rx="0.1" ry="0.2"/>
						
							<ellipse transform="matrix(0.8198 -0.5727 0.5727 0.8198 -16.1311 14.6186)" class="st3" cx="15.2" cy="32.9" rx="0.1" ry="0.2"/>
						
							<ellipse transform="matrix(0.8198 -0.5727 0.5727 0.8198 -16.088 14.4464)" class="st3" cx="14.9" cy="32.8" rx="0.1" ry="0.2"/>
					</g>
				</g>
			</g>
		</g>
	</g>
</g>
</svg>
